# Blender 5.1.2
# www.blender.org
mtllib camera.mtl
o Camera_Position_Marker
v 0.220000 -0.160000 -0.183847
v 0.220000 0.160000 -0.183847
v 0.220000 -0.160000 0.276153
v 0.220000 0.160000 0.276153
v -0.220000 -0.160000 -0.183847
v -0.220000 0.160000 -0.183847
v -0.220000 -0.160000 0.276153
v -0.220000 0.160000 0.276153
v 0.200000 -0.140000 0.273653
v 0.200000 0.140000 0.273653
v 0.200000 -0.140000 0.308653
v 0.200000 0.140000 0.308653
v -0.200000 -0.140000 0.273653
v -0.200000 0.140000 0.273653
v -0.200000 -0.140000 0.308653
v -0.200000 0.140000 0.308653
v 0.000000 0.130000 -0.143847
v 0.000000 0.130000 -0.373847
v -0.091924 0.091924 -0.143847
v -0.091924 0.091924 -0.373847
v -0.130000 0.000000 -0.143847
v -0.130000 -0.000000 -0.373847
v -0.091924 -0.091924 -0.143847
v -0.091924 -0.091924 -0.373847
v 0.000000 -0.130000 -0.143847
v 0.000000 -0.130000 -0.373847
v 0.091924 -0.091924 -0.143847
v 0.091924 -0.091924 -0.373847
v 0.130000 0.000000 -0.143847
v 0.130000 -0.000000 -0.373847
v 0.091924 0.091924 -0.143847
v 0.091924 0.091924 -0.373847
v 0.000000 0.105000 -0.369847
v 0.000000 0.105000 -0.373847
v -0.074246 0.074246 -0.369847
v -0.074246 0.074246 -0.373847
v -0.105000 0.000000 -0.369847
v -0.105000 -0.000000 -0.373847
v -0.074246 -0.074246 -0.369847
v -0.074246 -0.074246 -0.373847
v 0.000000 -0.105000 -0.369847
v 0.000000 -0.105000 -0.373847
v 0.074246 -0.074246 -0.369847
v 0.074246 -0.074246 -0.373847
v 0.105000 0.000000 -0.369847
v 0.105000 -0.000000 -0.373847
v 0.074246 0.074246 -0.369847
v 0.074246 0.074246 -0.373847
v 0.115000 0.255000 0.076153
v -0.115000 0.255000 0.076153
v 0.115000 0.156005 0.035148
v -0.115000 0.156005 0.035148
v 0.115000 0.115000 -0.063847
v -0.115000 0.115000 -0.063847
v 0.115000 0.156005 -0.162842
v -0.115000 0.156005 -0.162842
v 0.115000 0.255000 -0.203847
v -0.115000 0.255000 -0.203847
v 0.115000 0.353995 -0.162842
v -0.115000 0.353995 -0.162842
v 0.115000 0.395000 -0.063847
v -0.115000 0.395000 -0.063847
v 0.115000 0.353995 0.035148
v -0.115000 0.353995 0.035148
v -0.114000 0.255000 -0.015847
v -0.130000 0.255000 -0.015847
v -0.114000 0.221059 -0.029906
v -0.130000 0.221059 -0.029906
v -0.114000 0.207000 -0.063847
v -0.130000 0.207000 -0.063847
v -0.114000 0.221059 -0.097788
v -0.130000 0.221059 -0.097788
v -0.114000 0.255000 -0.111847
v -0.130000 0.255000 -0.111847
v -0.114000 0.288941 -0.097788
v -0.130000 0.288941 -0.097788
v -0.114000 0.303000 -0.063847
v -0.130000 0.303000 -0.063847
v -0.114000 0.288941 -0.029906
v -0.130000 0.288941 -0.029906
v 0.115000 0.255000 0.316153
v -0.115000 0.255000 0.316153
v 0.115000 0.156005 0.275148
v -0.115000 0.156005 0.275148
v 0.115000 0.115000 0.176153
v -0.115000 0.115000 0.176153
v 0.115000 0.156005 0.077158
v -0.115000 0.156005 0.077158
v 0.115000 0.255000 0.036153
v -0.115000 0.255000 0.036153
v 0.115000 0.353995 0.077158
v -0.115000 0.353995 0.077158
v 0.115000 0.395000 0.176153
v -0.115000 0.395000 0.176153
v 0.115000 0.353995 0.275148
v -0.115000 0.353995 0.275148
v -0.114000 0.255000 0.224153
v -0.130000 0.255000 0.224153
v -0.114000 0.221059 0.210094
v -0.130000 0.221059 0.210094
v -0.114000 0.207000 0.176153
v -0.130000 0.207000 0.176153
v -0.114000 0.221059 0.142212
v -0.130000 0.221059 0.142212
v -0.114000 0.255000 0.128153
v -0.130000 0.255000 0.128153
v -0.114000 0.288941 0.142212
v -0.130000 0.288941 0.142212
v -0.114000 0.303000 0.176153
v -0.130000 0.303000 0.176153
v -0.114000 0.288941 0.210094
v -0.130000 0.288941 0.210094
v 0.085000 -0.250000 -0.038847
v 0.085000 -0.160000 -0.038847
v 0.085000 -0.250000 0.151153
v 0.085000 -0.160000 0.151153
v -0.085000 -0.250000 -0.038847
v -0.085000 -0.160000 -0.038847
v -0.085000 -0.250000 0.151153
v -0.085000 -0.160000 0.151153
v 0.065000 0.162000 0.116153
v -0.065000 0.162000 0.116153
v -0.065000 0.162000 0.006153
v -0.115000 0.162000 0.006153
v 0.000000 0.162000 -0.103847
v 0.115000 0.162000 0.006153
v 0.065000 0.162000 0.006153
vn 1.0000 -0.0000 -0.0000
vn -0.0000 -0.0000 1.0000
vn -1.0000 -0.0000 -0.0000
vn -0.0000 -0.0000 -1.0000
vn -0.0000 -1.0000 -0.0000
vn -0.0000 1.0000 -0.0000
vn -0.3827 0.9239 -0.0000
vn -0.9239 0.3827 -0.0000
vn -0.9239 -0.3827 -0.0000
vn -0.3827 -0.9239 -0.0000
vn 0.3827 -0.9239 -0.0000
vn 0.9239 -0.3827 -0.0000
vn 0.9239 0.3827 -0.0000
vn 0.3827 0.9239 -0.0000
vn -0.0000 -0.3827 0.9239
vn -0.0000 -0.9239 0.3827
vn -0.0000 -0.9239 -0.3827
vn -0.0000 -0.3827 -0.9239
vn -0.0000 0.3827 -0.9239
vn -0.0000 0.9239 -0.3827
vn -0.0000 0.9239 0.3827
vn -0.0000 0.3827 0.9239
vt 0.010299 0.517090
vt 0.179410 0.273993
vt 0.179410 0.517090
vt 0.516548 0.242826
vt 0.685660 0.010299
vt 0.685660 0.242826
vt 0.200007 0.517090
vt 0.369118 0.273993
vt 0.369118 0.517090
vt 0.389715 0.506521
vt 0.558826 0.273993
vt 0.558826 0.506521
vt 0.010299 0.253396
vt 0.242826 0.010299
vt 0.242826 0.253396
vt 0.263423 0.253396
vt 0.495951 0.010299
vt 0.495951 0.253396
vt 0.956715 0.010299
vt 0.975212 0.158271
vt 0.956715 0.158271
vt 0.579423 0.717368
vt 0.727396 0.505979
vt 0.727396 0.717368
vt 0.514944 0.841729
vt 0.533441 0.989701
vt 0.514944 0.989701
vt 0.579423 0.485382
vt 0.727396 0.273993
vt 0.727396 0.485382
vt 0.343406 0.749076
vt 0.324910 0.537687
vt 0.343406 0.537687
vt 0.891719 0.731639
vt 0.873222 0.520250
vt 0.891719 0.520250
vt 0.058878 0.842534
vt 0.107457 0.964082
vt 0.058878 0.964082
vt 0.225213 0.964082
vt 0.176633 0.842534
vt 0.225213 0.842534
vt 0.128054 0.964082
vt 0.128054 0.842534
vt 0.747993 0.842576
vt 0.796572 0.964125
vt 0.747993 0.964125
vt 0.796572 0.842576
vt 0.845151 0.964125
vt 0.245810 0.842534
vt 0.294389 0.964082
vt 0.245810 0.964082
vt 0.137242 0.784756
vt 0.047479 0.821936
vt 0.010299 0.732174
vt 0.294389 0.842534
vt 0.342968 0.964082
vt 0.010299 0.842534
vt 0.010299 0.964082
vt 0.247602 0.821937
vt 0.157839 0.784756
vt 0.195020 0.694993
vt 0.547021 0.566355
vt 0.549135 0.527118
vt 0.549135 0.566355
vt 0.549135 0.626189
vt 0.547021 0.665426
vt 0.547021 0.626189
vt 0.549135 0.665426
vt 0.547021 0.704663
vt 0.367004 0.616161
vt 0.369118 0.576924
vt 0.369118 0.616161
vt 0.367004 0.576924
vt 0.369118 0.537687
vt 0.367004 0.715233
vt 0.369118 0.675996
vt 0.369118 0.715233
vt 0.945723 0.376524
vt 0.873222 0.346494
vt 0.903253 0.273993
vt 0.367004 0.675996
vt 0.369118 0.636759
vt 0.547021 0.605592
vt 0.549135 0.605592
vt 0.945723 0.499653
vt 0.873222 0.469622
vt 0.903253 0.397121
vt 0.758573 0.131847
vt 0.706257 0.010299
vt 0.758573 0.010299
vt 0.852625 0.700430
vt 0.800309 0.821979
vt 0.800309 0.700430
vt 0.747993 0.700430
vt 0.747993 0.273993
vt 0.800309 0.395542
vt 0.747993 0.395542
vt 0.800309 0.273993
vt 0.852625 0.395542
vt 0.579423 0.737965
vt 0.631739 0.859514
vt 0.579423 0.859514
vt 0.429756 0.684424
vt 0.526424 0.724465
vt 0.486383 0.821132
vt 0.631739 0.737965
vt 0.684056 0.859514
vt 0.810889 0.010299
vt 0.050340 0.674396
vt 0.010299 0.577728
vt 0.106966 0.537687
vt 0.713108 0.812373
vt 0.704653 0.830310
vt 0.704653 0.812373
vt 0.715743 0.972456
vt 0.724198 0.954519
vt 0.724198 0.972456
vt 0.715743 0.954519
vt 0.724198 0.936582
vt 0.704653 0.773839
vt 0.713108 0.755902
vt 0.713108 0.773839
vt 0.704653 0.755902
vt 0.713108 0.737965
vt 0.555476 0.781731
vt 0.547021 0.799668
vt 0.547021 0.781731
vt 0.940860 0.205982
vt 0.974003 0.219711
vt 0.960275 0.252854
vt 0.555476 0.799668
vt 0.547021 0.817605
vt 0.713108 0.794436
vt 0.704653 0.794436
vt 0.940691 0.788836
vt 0.973834 0.775107
vt 0.987562 0.808250
vt 0.800309 0.537687
vt 0.747993 0.416139
vt 0.800309 0.416139
vt 0.936118 0.131847
vt 0.883802 0.010299
vt 0.936118 0.010299
vt 0.883802 0.131847
vt 0.831486 0.010299
vt 0.747993 0.558284
vt 0.800309 0.679833
vt 0.747993 0.679833
vt 0.800309 0.558284
vt 0.852625 0.679833
vt 0.389715 0.841729
vt 0.442031 0.963278
vt 0.389715 0.963278
vt 0.304313 0.577728
vt 0.264272 0.674396
vt 0.167604 0.634355
vt 0.442031 0.841729
vt 0.494347 0.963278
vt 0.852625 0.537687
vt 0.852625 0.416139
vt 0.389715 0.567159
vt 0.486383 0.527118
vt 0.526424 0.623785
vt 0.724198 0.898048
vt 0.715743 0.915985
vt 0.715743 0.898048
vt 0.980475 0.612595
vt 0.988931 0.594658
vt 0.988931 0.612595
vt 0.980475 0.594658
vt 0.988931 0.576721
vt 0.547021 0.761134
vt 0.555476 0.743197
vt 0.555476 0.761134
vt 0.547021 0.743197
vt 0.555476 0.725260
vt 0.988931 0.520250
vt 0.980475 0.538187
vt 0.980475 0.520250
vt 0.369118 0.787989
vt 0.355390 0.821132
vt 0.322246 0.807404
vt 0.988931 0.538187
vt 0.980475 0.556124
vt 0.724198 0.880111
vt 0.715743 0.880111
vt 0.906365 0.821979
vt 0.873222 0.808250
vt 0.886950 0.775107
vt 0.912316 0.620660
vt 0.959878 0.520250
vt 0.959878 0.620660
vt 0.579423 0.969951
vt 0.626986 0.880111
vt 0.626986 0.969951
vt 0.912316 0.741667
vt 0.959878 0.641257
vt 0.959878 0.741667
vt 0.647583 0.969951
vt 0.695145 0.880111
vt 0.695145 0.969951
vt 0.706257 0.252854
vt 0.796097 0.152444
vt 0.796097 0.252854
vt 0.816694 0.252854
vt 0.906534 0.152444
vt 0.906534 0.252854
vt 0.907757 0.861671
vt 0.973509 0.846312
vt 0.955245 0.911317
vt 0.010299 0.273993
vt 0.516548 0.010299
vt 0.200007 0.273993
vt 0.389715 0.273993
vt 0.010299 0.010299
vt 0.263423 0.010299
vt 0.975212 0.010299
vt 0.579423 0.505979
vt 0.533441 0.841729
vt 0.579423 0.273993
vt 0.324910 0.749076
vt 0.873222 0.731639
vt 0.107457 0.842534
vt 0.176633 0.964082
vt 0.845151 0.842576
vt 0.047479 0.694993
vt 0.100061 0.694993
vt 0.137242 0.732174
vt 0.100061 0.821936
vt 0.010299 0.784756
vt 0.342968 0.842534
vt 0.247602 0.694993
vt 0.284783 0.732174
vt 0.284783 0.784756
vt 0.195020 0.821937
vt 0.157839 0.732174
vt 0.547021 0.527118
vt 0.549135 0.704663
vt 0.367004 0.537687
vt 0.945723 0.273993
vt 0.975753 0.304024
vt 0.975753 0.346494
vt 0.903253 0.376524
vt 0.873222 0.304024
vt 0.367004 0.636759
vt 0.945723 0.397121
vt 0.975753 0.427152
vt 0.975753 0.469622
vt 0.903253 0.499653
vt 0.873222 0.427152
vt 0.706257 0.131847
vt 0.852625 0.821979
vt 0.747993 0.821979
vt 0.852625 0.273993
vt 0.429756 0.821132
vt 0.389715 0.781091
vt 0.389715 0.724465
vt 0.486383 0.684424
vt 0.526424 0.781091
vt 0.684056 0.737965
vt 0.810889 0.131847
vt 0.147007 0.577728
vt 0.147007 0.634355
vt 0.106966 0.674396
vt 0.010299 0.634355
vt 0.050340 0.537687
vt 0.713108 0.830310
vt 0.715743 0.936582
vt 0.704653 0.737965
vt 0.940860 0.252854
vt 0.927131 0.239126
vt 0.927131 0.219711
vt 0.960275 0.205982
vt 0.974003 0.239126
vt 0.555476 0.817605
vt 0.973834 0.821979
vt 0.954419 0.821979
vt 0.940691 0.808250
vt 0.954419 0.775107
vt 0.987562 0.788836
vt 0.747993 0.537687
vt 0.831486 0.131847
vt 0.852625 0.558284
vt 0.167604 0.577728
vt 0.207645 0.537687
vt 0.264272 0.537687
vt 0.304313 0.634355
vt 0.207645 0.674396
vt 0.494347 0.841729
vt 0.486383 0.663826
vt 0.429756 0.663826
vt 0.389715 0.623785
vt 0.429756 0.527118
vt 0.526424 0.567159
vt 0.724198 0.915985
vt 0.980475 0.576721
vt 0.547021 0.725260
vt 0.322246 0.787989
vt 0.335975 0.774260
vt 0.355390 0.774260
vt 0.369118 0.807404
vt 0.335975 0.821132
vt 0.988931 0.556124
vt 0.906365 0.775107
vt 0.920094 0.788836
vt 0.920094 0.808250
vt 0.886950 0.821979
vt 0.873222 0.788836
vt 0.912316 0.520250
vt 0.579423 0.880111
vt 0.912316 0.641257
vt 0.647583 0.880111
vt 0.706257 0.152444
vt 0.816694 0.152444
vt 0.913236 0.951499
vt 0.865748 0.901853
vt 0.889492 0.842576
vt 0.973509 0.930412
s 0
usemtl Camera_blue_gray
f 2/1/1 3/2/1 1/3/1
f 4/4/2 7/5/2 3/6/2
f 8/7/3 5/8/3 7/9/3
f 6/10/4 1/11/4 5/12/4
f 7/13/5 1/14/5 3/15/5
f 4/16/6 6/17/6 8/18/6
f 50/89/15 51/90/15 49/91/15
f 51/92/16 54/93/16 53/94/16
f 54/93/17 55/95/17 53/94/17
f 56/96/18 57/97/18 55/98/18
f 58/99/19 59/100/19 57/97/19
f 60/101/20 61/102/20 59/103/20
f 62/104/3 58/105/3 54/106/3
f 62/107/21 63/108/21 61/102/21
f 63/109/22 50/89/22 49/91/22
f 55/110/1 59/111/1 63/112/1
f 82/139/15 83/140/15 81/141/15
f 84/142/16 85/143/16 83/144/16
f 86/145/17 87/146/17 85/143/17
f 88/147/18 89/148/18 87/149/18
f 90/150/19 91/151/19 89/148/19
f 92/152/20 93/153/20 91/154/20
f 94/155/3 90/156/3 86/157/3
f 94/158/21 95/159/21 93/153/21
f 96/160/22 81/141/22 95/161/22
f 87/162/1 91/163/1 95/164/1
f 2/1/1 4/212/1 3/2/1
f 4/4/2 8/213/2 7/5/2
f 8/7/3 6/214/3 5/8/3
f 6/10/4 2/215/4 1/11/4
f 7/13/5 5/216/5 1/14/5
f 4/16/6 2/217/6 6/17/6
f 50/89/15 52/252/15 51/90/15
f 51/92/16 52/253/16 54/93/16
f 54/93/17 56/254/17 55/95/17
f 56/96/18 58/99/18 57/97/18
f 58/99/19 60/255/19 59/100/19
f 60/101/20 62/107/20 61/102/20
f 54/106/3 52/256/3 50/257/3
f 50/257/3 64/258/3 62/104/3
f 62/104/3 60/259/3 58/105/3
f 58/105/3 56/260/3 54/106/3
f 54/106/3 50/257/3 62/104/3
f 62/107/21 64/261/21 63/108/21
f 63/109/22 64/262/22 50/89/22
f 63/112/1 49/263/1 51/264/1
f 51/264/1 53/265/1 55/110/1
f 55/110/1 57/266/1 59/111/1
f 59/111/1 61/267/1 63/112/1
f 63/112/1 51/264/1 55/110/1
f 82/139/15 84/282/15 83/140/15
f 84/142/16 86/145/16 85/143/16
f 86/145/17 88/283/17 87/146/17
f 88/147/18 90/150/18 89/148/18
f 90/150/19 92/284/19 91/151/19
f 92/152/20 94/158/20 93/153/20
f 86/157/3 84/285/3 82/286/3
f 82/286/3 96/287/3 94/155/3
f 94/155/3 92/288/3 90/156/3
f 90/156/3 88/289/3 86/157/3
f 86/157/3 82/286/3 94/155/3
f 94/158/21 96/290/21 95/159/21
f 96/160/22 82/139/22 81/141/22
f 95/164/1 81/291/1 83/292/1
f 83/292/1 85/293/1 87/162/1
f 87/162/1 89/294/1 91/163/1
f 91/163/1 93/295/1 95/164/1
f 95/164/1 83/292/1 87/162/1
usemtl Dark_trim
f 10/19/1 11/20/1 9/21/1
f 12/22/2 15/23/2 11/24/2
f 16/25/3 13/26/3 15/27/3
f 14/28/4 9/29/4 13/30/4
f 15/31/5 9/32/5 11/33/5
f 12/34/6 14/35/6 16/36/6
f 18/37/7 19/38/7 17/39/7
f 20/40/8 21/41/8 19/42/8
f 21/41/9 24/43/9 23/44/9
f 24/45/10 25/46/10 23/47/10
f 26/48/11 27/49/11 25/46/11
f 28/50/12 29/51/12 27/52/12
f 30/53/4 26/54/4 22/55/4
f 30/56/13 31/57/13 29/51/13
f 32/58/14 17/39/14 31/59/14
f 23/60/2 27/61/2 31/62/2
f 66/113/15 67/114/15 65/115/15
f 68/116/16 69/117/16 67/118/16
f 70/119/17 71/120/17 69/117/17
f 72/121/18 73/122/18 71/123/18
f 74/124/19 75/125/19 73/122/19
f 76/126/20 77/127/20 75/128/20
f 78/129/3 74/130/3 70/131/3
f 78/132/21 79/133/21 77/127/21
f 80/134/22 65/115/22 79/135/22
f 71/136/1 75/137/1 79/138/1
f 98/165/15 99/166/15 97/167/15
f 100/168/16 101/169/16 99/170/16
f 102/171/17 103/172/17 101/169/17
f 104/173/18 105/174/18 103/175/18
f 106/176/19 107/177/19 105/174/19
f 108/178/20 109/179/20 107/180/20
f 110/181/3 106/182/3 102/183/3
f 110/184/21 111/185/21 109/179/21
f 112/186/22 97/167/22 111/187/22
f 103/188/1 107/189/1 111/190/1
f 114/191/1 115/192/1 113/193/1
f 116/194/2 119/195/2 115/196/2
f 120/197/3 117/198/3 119/199/3
f 118/200/4 113/201/4 117/202/4
f 119/203/5 113/204/5 115/205/5
f 116/206/6 118/207/6 120/208/6
f 10/19/1 12/218/1 11/20/1
f 12/22/2 16/219/2 15/23/2
f 16/25/3 14/220/3 13/26/3
f 14/28/4 10/221/4 9/29/4
f 15/31/5 13/222/5 9/32/5
f 12/34/6 10/223/6 14/35/6
f 18/37/7 20/224/7 19/38/7
f 20/40/8 22/225/8 21/41/8
f 21/41/9 22/225/9 24/43/9
f 24/45/10 26/48/10 25/46/10
f 26/48/11 28/226/11 27/49/11
f 28/50/12 30/56/12 29/51/12
f 22/55/4 20/227/4 18/228/4
f 18/228/4 32/229/4 30/53/4
f 30/53/4 28/230/4 26/54/4
f 26/54/4 24/231/4 22/55/4
f 22/55/4 18/228/4 30/53/4
f 30/56/13 32/232/13 31/57/13
f 32/58/14 18/37/14 17/39/14
f 31/62/2 17/233/2 19/234/2
f 19/234/2 21/235/2 23/60/2
f 23/60/2 25/236/2 27/61/2
f 27/61/2 29/237/2 31/62/2
f 31/62/2 19/234/2 23/60/2
f 66/113/15 68/268/15 67/114/15
f 68/116/16 70/119/16 69/117/16
f 70/119/17 72/269/17 71/120/17
f 72/121/18 74/124/18 73/122/18
f 74/124/19 76/270/19 75/125/19
f 76/126/20 78/132/20 77/127/20
f 70/131/3 68/271/3 66/272/3
f 66/272/3 80/273/3 78/129/3
f 78/129/3 76/274/3 74/130/3
f 74/130/3 72/275/3 70/131/3
f 70/131/3 66/272/3 78/129/3
f 78/132/21 80/276/21 79/133/21
f 80/134/22 66/113/22 65/115/22
f 79/138/1 65/277/1 67/278/1
f 67/278/1 69/279/1 71/136/1
f 71/136/1 73/280/1 75/137/1
f 75/137/1 77/281/1 79/138/1
f 79/138/1 67/278/1 71/136/1
f 98/165/15 100/296/15 99/166/15
f 100/168/16 102/171/16 101/169/16
f 102/171/17 104/297/17 103/172/17
f 104/173/18 106/176/18 105/174/18
f 106/176/19 108/298/19 107/177/19
f 108/178/20 110/184/20 109/179/20
f 102/183/3 100/299/3 98/300/3
f 98/300/3 112/301/3 110/181/3
f 110/181/3 108/302/3 106/182/3
f 106/182/3 104/303/3 102/183/3
f 102/183/3 98/300/3 110/181/3
f 110/184/21 112/304/21 111/185/21
f 112/186/22 98/165/22 97/167/22
f 111/190/1 97/305/1 99/306/1
f 99/306/1 101/307/1 103/188/1
f 103/188/1 105/308/1 107/189/1
f 107/189/1 109/309/1 111/190/1
f 111/190/1 99/306/1 103/188/1
f 114/191/1 116/310/1 115/192/1
f 116/194/2 120/311/2 119/195/2
f 120/197/3 118/312/3 117/198/3
f 118/200/4 114/313/4 113/201/4
f 119/203/5 117/314/5 113/204/5
f 116/206/6 114/315/6 118/207/6
usemtl Lens_cyan
f 34/63/7 35/64/7 33/65/7
f 36/66/8 37/67/8 35/68/8
f 38/69/9 39/70/9 37/67/9
f 40/71/10 41/72/10 39/73/10
f 42/74/11 43/75/11 41/72/11
f 44/76/12 45/77/12 43/78/12
f 46/79/4 42/80/4 38/81/4
f 46/82/13 47/83/13 45/77/13
f 48/84/14 33/65/14 47/85/14
f 39/86/2 43/87/2 47/88/2
f 34/63/7 36/238/7 35/64/7
f 36/66/8 38/69/8 37/67/8
f 38/69/9 40/239/9 39/70/9
f 40/71/10 42/74/10 41/72/10
f 42/74/11 44/240/11 43/75/11
f 44/76/12 46/82/12 45/77/12
f 38/81/4 36/241/4 34/242/4
f 34/242/4 48/243/4 46/79/4
f 46/79/4 44/244/4 42/80/4
f 42/80/4 40/245/4 38/81/4
f 38/81/4 34/242/4 46/79/4
f 46/82/13 48/246/13 47/83/13
f 48/84/14 34/63/14 33/65/14
f 47/88/2 33/247/2 35/248/2
f 35/248/2 37/249/2 39/86/2
f 39/86/2 41/250/2 43/87/2
f 43/87/2 45/251/2 47/88/2
f 47/88/2 35/248/2 39/86/2
usemtl Direction_mark
f 123/209/5 125/210/5 127/211/5
f 127/211/5 121/316/5 122/317/5
f 123/209/5 124/318/5 125/210/5
f 127/211/5 122/317/5 123/209/5
f 125/210/5 126/319/5 127/211/5
