{
	"asset":{
		"generator":"Khronos glTF Blender I/O v5.1.20",
		"version":"2.0"
	},
	"scene":0,
	"scenes":[
		{
			"name":"Scene",
			"nodes":[
				0
			]
		}
	],
	"nodes":[
		{
			"mesh":0,
			"name":"Camera_Position_Marker"
		}
	],
	"materials":[
		{
			"doubleSided":true,
			"name":"Camera blue gray",
			"pbrMetallicRoughness":{
				"baseColorTexture":{
					"index":0
				},
				"metallicFactor":0,
				"roughnessFactor":0.6000000238418579
			}
		},
		{
			"doubleSided":true,
			"name":"Dark trim",
			"pbrMetallicRoughness":{
				"baseColorFactor":[
					0.03500000014901161,
					0.052000001072883606,
					0.07500000298023224,
					1
				],
				"metallicFactor":0,
				"roughnessFactor":0.6000000238418579
			}
		},
		{
			"doubleSided":true,
			"name":"Lens cyan",
			"pbrMetallicRoughness":{
				"baseColorFactor":[
					0.10000000149011612,
					0.6499999761581421,
					0.8299999833106995,
					1
				],
				"metallicFactor":0,
				"roughnessFactor":0.6000000238418579
			}
		},
		{
			"doubleSided":true,
			"name":"Direction mark",
			"pbrMetallicRoughness":{
				"baseColorFactor":[
					0.800000011920929,
					0.8999999761581421,
					0.949999988079071,
					1
				],
				"metallicFactor":0,
				"roughnessFactor":0.6000000238418579
			}
		}
	],
	"meshes":[
		{
			"name":"Cube",
			"primitives":[
				{
					"attributes":{
						"POSITION":0,
						"NORMAL":1,
						"TEXCOORD_0":2
					},
					"indices":3,
					"material":0
				},
				{
					"attributes":{
						"POSITION":4,
						"NORMAL":5,
						"TEXCOORD_0":6
					},
					"indices":7,
					"material":1
				},
				{
					"attributes":{
						"POSITION":8,
						"NORMAL":9,
						"TEXCOORD_0":10
					},
					"indices":11,
					"material":2
				},
				{
					"attributes":{
						"POSITION":12,
						"NORMAL":13,
						"TEXCOORD_0":14
					},
					"indices":15,
					"material":3
				}
			]
		}
	],
	"textures":[
		{
			"sampler":0,
			"source":0
		}
	],
	"images":[
		{
			"mimeType":"image/png",
			"name":"cameraTex",
			"uri":"cameraTex.png"
		}
	],
	"accessors":[
		{
			"bufferView":0,
			"componentType":5126,
			"count":120,
			"max":[
				0.2199999988079071,
				0.39499998092651367,
				-0.17000000178813934
			],
			"min":[
				-0.2199999988079071,
				-0.1599999964237213,
				-0.690000057220459
			],
			"type":"VEC3"
		},
		{
			"bufferView":1,
			"componentType":5126,
			"count":120,
			"type":"VEC3"
		},
		{
			"bufferView":2,
			"componentType":5126,
			"count":120,
			"type":"VEC2"
		},
		{
			"bufferView":3,
			"componentType":5123,
			"count":204,
			"type":"SCALAR"
		},
		{
			"bufferView":4,
			"componentType":5126,
			"count":192,
			"max":[
				0.20000000298023224,
				0.30300000309944153,
				0
			],
			"min":[
				-0.20000000298023224,
				-0.25,
				-0.6825000047683716
			],
			"type":"VEC3"
		},
		{
			"bufferView":5,
			"componentType":5126,
			"count":192,
			"type":"VEC3"
		},
		{
			"bufferView":6,
			"componentType":5126,
			"count":192,
			"type":"VEC2"
		},
		{
			"bufferView":7,
			"componentType":5123,
			"count":324,
			"type":"SCALAR"
		},
		{
			"bufferView":8,
			"componentType":5126,
			"count":48,
			"max":[
				0.10499999672174454,
				0.10499999672174454,
				0
			],
			"min":[
				-0.10499999672174454,
				-0.10499999672174454,
				-0.0040000081062316895
			],
			"type":"VEC3"
		},
		{
			"bufferView":9,
			"componentType":5126,
			"count":48,
			"type":"VEC3"
		},
		{
			"bufferView":10,
			"componentType":5126,
			"count":48,
			"type":"VEC2"
		},
		{
			"bufferView":11,
			"componentType":5123,
			"count":84,
			"type":"SCALAR"
		},
		{
			"bufferView":12,
			"componentType":5126,
			"count":7,
			"max":[
				0.11500000208616257,
				0.16200000047683716,
				-0.27000001072883606
			],
			"min":[
				-0.11500000208616257,
				0.16200000047683716,
				-0.49000000953674316
			],
			"type":"VEC3"
		},
		{
			"bufferView":13,
			"componentType":5126,
			"count":7,
			"type":"VEC3"
		},
		{
			"bufferView":14,
			"componentType":5126,
			"count":7,
			"type":"VEC2"
		},
		{
			"bufferView":15,
			"componentType":5123,
			"count":15,
			"type":"SCALAR"
		}
	],
	"bufferViews":[
		{
			"buffer":0,
			"byteLength":1440,
			"byteOffset":0,
			"target":34962
		},
		{
			"buffer":0,
			"byteLength":1440,
			"byteOffset":1440,
			"target":34962
		},
		{
			"buffer":0,
			"byteLength":960,
			"byteOffset":2880,
			"target":34962
		},
		{
			"buffer":0,
			"byteLength":408,
			"byteOffset":3840,
			"target":34963
		},
		{
			"buffer":0,
			"byteLength":2304,
			"byteOffset":4248,
			"target":34962
		},
		{
			"buffer":0,
			"byteLength":2304,
			"byteOffset":6552,
			"target":34962
		},
		{
			"buffer":0,
			"byteLength":1536,
			"byteOffset":8856,
			"target":34962
		},
		{
			"buffer":0,
			"byteLength":648,
			"byteOffset":10392,
			"target":34963
		},
		{
			"buffer":0,
			"byteLength":576,
			"byteOffset":11040,
			"target":34962
		},
		{
			"buffer":0,
			"byteLength":576,
			"byteOffset":11616,
			"target":34962
		},
		{
			"buffer":0,
			"byteLength":384,
			"byteOffset":12192,
			"target":34962
		},
		{
			"buffer":0,
			"byteLength":168,
			"byteOffset":12576,
			"target":34963
		},
		{
			"buffer":0,
			"byteLength":84,
			"byteOffset":12744,
			"target":34962
		},
		{
			"buffer":0,
			"byteLength":84,
			"byteOffset":12828,
			"target":34962
		},
		{
			"buffer":0,
			"byteLength":56,
			"byteOffset":12912,
			"target":34962
		},
		{
			"buffer":0,
			"byteLength":30,
			"byteOffset":12968,
			"target":34963
		}
	],
	"samplers":[
		{
			"magFilter":9729,
			"minFilter":9987
		}
	],
	"buffers":[
		{
			"byteLength":13000,
			"uri":"camera.bin"
		}
	]
}
