{
	"asset":{
		"generator":"Khronos glTF Blender I/O v5.1.20",
		"version":"2.0"
	},
	"extensionsUsed":[
		"KHR_materials_unlit"
	],
	"scene":0,
	"scenes":[
		{
			"name":"Scene",
			"nodes":[
				0,
				1,
				2,
				3,
				4,
				5,
				6,
				7,
				8,
				9,
				10,
				11,
				12,
				13,
				14,
				15,
				16,
				17,
				18,
				19,
				20,
				21,
				22,
				23,
				24,
				25,
				26,
				27,
				28,
				29,
				30,
				31,
				32
			]
		}
	],
	"nodes":[
		{
			"mesh":0,
			"name":"\u5186\u67f1"
		},
		{
			"mesh":1,
			"name":"\u5186\u67f1.001"
		},
		{
			"mesh":2,
			"name":"\u5186\u67f1.002"
		},
		{
			"mesh":3,
			"name":"\u5186\u67f1.003"
		},
		{
			"mesh":4,
			"name":"\u5186\u67f1.004"
		},
		{
			"mesh":5,
			"name":"\u5186\u67f1.005"
		},
		{
			"mesh":6,
			"name":"\u5186\u67f1.008"
		},
		{
			"mesh":7,
			"name":"\u5186\u67f1.009"
		},
		{
			"mesh":8,
			"name":"\u7acb\u65b9\u4f53.001"
		},
		{
			"mesh":9,
			"name":"\u7acb\u65b9\u4f53"
		},
		{
			"mesh":10,
			"name":"\u7acb\u65b9\u4f53.002"
		},
		{
			"mesh":11,
			"name":"\u5186\u67f1.011"
		},
		{
			"mesh":12,
			"name":"\u5e73\u9762"
		},
		{
			"mesh":13,
			"name":"\u5e73\u9762.001"
		},
		{
			"mesh":14,
			"name":"\u5e73\u9762.002"
		},
		{
			"mesh":15,
			"name":"\u5186\u67f1.010"
		},
		{
			"mesh":16,
			"name":"\u5186\u67f1.012"
		},
		{
			"mesh":17,
			"name":"\u5186\u67f1.013"
		},
		{
			"mesh":18,
			"name":"\u5186\u67f1.014"
		},
		{
			"mesh":19,
			"name":"\u7acb\u65b9\u4f53.003"
		},
		{
			"name":"\u7acb\u65b9\u4f53.004"
		},
		{
			"name":"\u7acb\u65b9\u4f53.005"
		},
		{
			"mesh":20,
			"name":"\u7403"
		},
		{
			"mesh":21,
			"name":"\u7403.001",
			"translation":[
				0.0098656564950943,
				0,
				0
			]
		},
		{
			"mesh":22,
			"name":"\u5186\u67f1.016"
		},
		{
			"mesh":23,
			"name":"\u7acb\u65b9\u4f53.008"
		},
		{
			"mesh":24,
			"name":"\u7acb\u65b9\u4f53.009"
		},
		{
			"mesh":25,
			"name":"\u5186\u67f1.019",
			"scale":[
				1,
				1,
				1.105954885482788
			],
			"translation":[
				0,
				0.06902223080396652,
				0
			]
		},
		{
			"mesh":26,
			"name":"\u5186\u67f1.020"
		},
		{
			"mesh":27,
			"name":"\u5186\u67f1.021"
		},
		{
			"mesh":28,
			"name":"\u5186\u67f1.022"
		},
		{
			"mesh":29,
			"name":"\u5186\u67f1.023"
		},
		{
			"mesh":30,
			"name":"\u5186\u67f1.024",
			"rotation":[
				1,
				0,
				0,
				0
			],
			"scale":[
				-1,
				-1,
				-1.105954885482788
			],
			"translation":[
				0,
				0.06902223080396652,
				0
			]
		}
	],
	"materials":[
		{
			"doubleSided":true,
			"name":"\u30de\u30c6\u30ea\u30a2\u30eb.002",
			"normalTexture":{
				"index":0
			},
			"pbrMetallicRoughness":{
				"metallicFactor":0,
				"metallicRoughnessTexture":{
					"index":1
				}
			}
		},
		{
			"doubleSided":true,
			"extensions":{
				"KHR_materials_unlit":{}
			},
			"name":"dekanu_hear",
			"pbrMetallicRoughness":{
				"baseColorTexture":{
					"index":2
				},
				"metallicFactor":0,
				"roughnessFactor":0.9
			}
		},
		{
			"doubleSided":true,
			"extensions":{
				"KHR_materials_unlit":{}
			},
			"name":"dekanu.001",
			"pbrMetallicRoughness":{
				"baseColorTexture":{
					"index":3
				},
				"metallicFactor":0,
				"roughnessFactor":0.9
			}
		},
		{
			"emissiveFactor":[
				0.27294921875,
				0.17822265625,
				0.1837158203125
			],
			"name":"\u30de\u30c6\u30ea\u30a2\u30eb.006",
			"pbrMetallicRoughness":{
				"baseColorFactor":[
					0,
					0,
					0,
					1
				]
			}
		}
	],
	"meshes":[
		{
			"name":"\u5186\u67f1",
			"primitives":[
				{
					"attributes":{
						"POSITION":0,
						"NORMAL":1,
						"TEXCOORD_0":2
					},
					"indices":3,
					"material":0
				}
			]
		},
		{
			"name":"\u5186\u67f1.002",
			"primitives":[
				{
					"attributes":{
						"POSITION":4,
						"NORMAL":5,
						"TEXCOORD_0":6
					},
					"indices":7,
					"material":0
				}
			]
		},
		{
			"name":"\u5186\u67f1.003",
			"primitives":[
				{
					"attributes":{
						"POSITION":8,
						"NORMAL":9,
						"TEXCOORD_0":10
					},
					"indices":11,
					"material":0
				}
			]
		},
		{
			"name":"\u5186\u67f1.001",
			"primitives":[
				{
					"attributes":{
						"POSITION":12,
						"NORMAL":13,
						"TEXCOORD_0":14
					},
					"indices":15,
					"material":0
				}
			]
		},
		{
			"name":"\u5186\u67f1.004",
			"primitives":[
				{
					"attributes":{
						"POSITION":16,
						"NORMAL":17,
						"TEXCOORD_0":18
					},
					"indices":19,
					"material":0
				}
			]
		},
		{
			"name":"\u5186\u67f1.005",
			"primitives":[
				{
					"attributes":{
						"POSITION":20,
						"NORMAL":21,
						"TEXCOORD_0":22
					},
					"indices":23,
					"material":0
				}
			]
		},
		{
			"name":"\u5186\u67f1.008",
			"primitives":[
				{
					"attributes":{
						"POSITION":24,
						"NORMAL":25,
						"TEXCOORD_0":26
					},
					"indices":27,
					"material":0
				}
			]
		},
		{
			"name":"\u5186\u67f1.009",
			"primitives":[
				{
					"attributes":{
						"POSITION":28,
						"NORMAL":29,
						"TEXCOORD_0":30
					},
					"indices":31,
					"material":0
				}
			]
		},
		{
			"name":"\u7acb\u65b9\u4f53.001",
			"primitives":[
				{
					"attributes":{
						"POSITION":32,
						"NORMAL":33,
						"TEXCOORD_0":34
					},
					"indices":35,
					"material":0
				}
			]
		},
		{
			"name":"\u7acb\u65b9\u4f53.002",
			"primitives":[
				{
					"attributes":{
						"POSITION":36,
						"NORMAL":37,
						"TEXCOORD_0":38
					},
					"indices":39,
					"material":0
				}
			]
		},
		{
			"name":"\u7acb\u65b9\u4f53.004",
			"primitives":[
				{
					"attributes":{
						"POSITION":40,
						"NORMAL":41,
						"TEXCOORD_0":42
					},
					"indices":43,
					"material":0
				}
			]
		},
		{
			"name":"\u5186\u67f1.011",
			"primitives":[
				{
					"attributes":{
						"POSITION":44,
						"NORMAL":45,
						"TEXCOORD_0":46
					},
					"indices":47,
					"material":0
				}
			]
		},
		{
			"name":"\u5e73\u9762",
			"primitives":[
				{
					"attributes":{
						"POSITION":48,
						"NORMAL":49,
						"TEXCOORD_0":50
					},
					"indices":51,
					"material":0
				}
			]
		},
		{
			"name":"\u5e73\u9762.001",
			"primitives":[
				{
					"attributes":{
						"POSITION":52,
						"NORMAL":53,
						"TEXCOORD_0":54
					},
					"indices":55,
					"material":0
				}
			]
		},
		{
			"name":"\u5e73\u9762.002",
			"primitives":[
				{
					"attributes":{
						"POSITION":56,
						"NORMAL":57,
						"TEXCOORD_0":58
					},
					"indices":59,
					"material":0
				}
			]
		},
		{
			"name":"\u5186\u67f1.012",
			"primitives":[
				{
					"attributes":{
						"POSITION":60,
						"NORMAL":61,
						"TEXCOORD_0":62
					},
					"indices":63,
					"material":0
				}
			]
		},
		{
			"name":"\u5186\u67f1.014",
			"primitives":[
				{
					"attributes":{
						"POSITION":64,
						"NORMAL":65,
						"TEXCOORD_0":66
					},
					"indices":67,
					"material":0
				}
			]
		},
		{
			"name":"\u5186\u67f1.015",
			"primitives":[
				{
					"attributes":{
						"POSITION":68,
						"NORMAL":69,
						"TEXCOORD_0":70
					},
					"indices":71,
					"material":0
				}
			]
		},
		{
			"name":"\u5186\u67f1.016",
			"primitives":[
				{
					"attributes":{
						"POSITION":72,
						"NORMAL":73,
						"TEXCOORD_0":74
					},
					"indices":75,
					"material":0
				}
			]
		},
		{
			"name":"\u7acb\u65b9\u4f53",
			"primitives":[
				{
					"attributes":{
						"POSITION":76,
						"NORMAL":77,
						"TEXCOORD_0":78
					},
					"indices":79,
					"material":0
				}
			]
		},
		{
			"name":"\u7403.002",
			"primitives":[
				{
					"attributes":{
						"POSITION":80,
						"NORMAL":81,
						"TEXCOORD_0":82
					},
					"indices":83,
					"material":1
				}
			]
		},
		{
			"name":"\u7403.003",
			"primitives":[
				{
					"attributes":{
						"POSITION":84,
						"NORMAL":85,
						"TEXCOORD_0":86
					},
					"indices":87,
					"material":2
				}
			]
		},
		{
			"name":"\u5186\u67f1.017",
			"primitives":[
				{
					"attributes":{
						"POSITION":88,
						"NORMAL":89,
						"TEXCOORD_0":90
					},
					"indices":91,
					"material":2
				}
			]
		},
		{
			"name":"\u7acb\u65b9\u4f53.003",
			"primitives":[
				{
					"attributes":{
						"POSITION":92,
						"NORMAL":93,
						"TEXCOORD_0":94
					},
					"indices":95,
					"material":2
				}
			]
		},
		{
			"name":"\u7acb\u65b9\u4f53.007",
			"primitives":[
				{
					"attributes":{
						"POSITION":96,
						"NORMAL":97,
						"TEXCOORD_0":98
					},
					"indices":99,
					"material":2
				}
			]
		},
		{
			"name":"\u5186\u67f1.010",
			"primitives":[
				{
					"attributes":{
						"POSITION":100,
						"NORMAL":101,
						"TEXCOORD_0":102
					},
					"indices":103,
					"material":1
				},
				{
					"attributes":{
						"POSITION":104,
						"NORMAL":105,
						"TEXCOORD_0":106
					},
					"indices":107,
					"material":3
				}
			]
		},
		{
			"name":"\u5186\u67f1.019",
			"primitives":[
				{
					"attributes":{
						"POSITION":108,
						"NORMAL":109,
						"TEXCOORD_0":110
					},
					"indices":111,
					"material":1
				}
			]
		},
		{
			"name":"\u5186\u67f1.020",
			"primitives":[
				{
					"attributes":{
						"POSITION":112,
						"NORMAL":113,
						"TEXCOORD_0":114
					},
					"indices":115,
					"material":1
				}
			]
		},
		{
			"name":"\u5186\u67f1.024",
			"primitives":[
				{
					"attributes":{
						"POSITION":116,
						"NORMAL":117,
						"TEXCOORD_0":118
					},
					"indices":119,
					"material":1
				}
			]
		},
		{
			"name":"\u5186\u67f1.025",
			"primitives":[
				{
					"attributes":{
						"POSITION":120,
						"NORMAL":121,
						"TEXCOORD_0":122
					},
					"indices":123,
					"material":1
				}
			]
		},
		{
			"name":"\u5186\u67f1.021",
			"primitives":[
				{
					"attributes":{
						"POSITION":124,
						"NORMAL":125,
						"TEXCOORD_0":126
					},
					"indices":103,
					"material":1
				},
				{
					"attributes":{
						"POSITION":127,
						"NORMAL":128,
						"TEXCOORD_0":129
					},
					"indices":107,
					"material":3
				}
			]
		}
	],
	"textures":[
		{
			"sampler":0,
			"source":0
		},
		{
			"sampler":0,
			"source":1
		},
		{
			"sampler":0,
			"source":2
		},
		{
			"sampler":0,
			"source":2
		}
	],
	"images":[
		{
			"mimeType":"image/png",
			"name":"material.002_Normal",
			"uri":"material.002_Normal.png"
		},
		{
			"mimeType":"image/png",
			"name":"material.002_Roughness",
			"uri":"material.002_Roughness.png"
		},
		{
			"mimeType":"image/png",
			"name":"dekanu_BaseColor",
			"uri":"dekanu_BaseColor.png"
		}
	],
	"accessors":[
		{
			"bufferView":0,
			"componentType":5126,
			"count":130,
			"max":[
				-7.306927680969238,
				2.15921688079834,
				-7.834930419921875
			],
			"min":[
				-8.486254692077637,
				-2.15921688079834,
				-12.153364181518555
			],
			"type":"VEC3"
		},
		{
			"bufferView":1,
			"componentType":5126,
			"count":130,
			"type":"VEC3"
		},
		{
			"bufferView":2,
			"componentType":5126,
			"count":130,
			"type":"VEC2"
		},
		{
			"bufferView":3,
			"componentType":5123,
			"count":372,
			"type":"SCALAR"
		},
		{
			"bufferView":4,
			"componentType":5126,
			"count":312,
			"max":[
				-6.951951026916504,
				1.9996658563613892,
				-7.589169502258301
			],
			"min":[
				-8.697345733642578,
				-2.409837245941162,
				-10.315366744995117
			],
			"type":"VEC3"
		},
		{
			"bufferView":5,
			"componentType":5126,
			"count":312,
			"type":"VEC3"
		},
		{
			"bufferView":6,
			"componentType":5126,
			"count":312,
			"type":"VEC2"
		},
		{
			"bufferView":7,
			"componentType":5123,
			"count":1218,
			"type":"SCALAR"
		},
		{
			"bufferView":8,
			"componentType":5126,
			"count":66,
			"max":[
				-7.4170918464660645,
				2.9192562103271484,
				-9.604466438293457
			],
			"min":[
				-7.841934680938721,
				2.048410177230835,
				-9.79733657836914
			],
			"type":"VEC3"
		},
		{
			"bufferView":9,
			"componentType":5126,
			"count":66,
			"type":"VEC3"
		},
		{
			"bufferView":10,
			"componentType":5126,
			"count":66,
			"type":"VEC2"
		},
		{
			"bufferView":11,
			"componentType":5123,
			"count":192,
			"type":"SCALAR"
		},
		{
			"bufferView":12,
			"componentType":5126,
			"count":130,
			"max":[
				-7.1192522048950195,
				3.0919275283813477,
				-9.373979568481445
			],
			"min":[
				-7.835355281829834,
				2.7444283962249756,
				-10.092618942260742
			],
			"type":"VEC3"
		},
		{
			"bufferView":13,
			"componentType":5126,
			"count":130,
			"type":"VEC3"
		},
		{
			"bufferView":14,
			"componentType":5126,
			"count":130,
			"type":"VEC2"
		},
		{
			"bufferView":15,
			"componentType":5123,
			"count":372,
			"type":"SCALAR"
		},
		{
			"bufferView":16,
			"componentType":5126,
			"count":631,
			"max":[
				-8.840843200683594,
				1.4091148376464844,
				-8.554540634155273
			],
			"min":[
				-11.271881103515625,
				-1.387722134590149,
				-11.390650749206543
			],
			"type":"VEC3"
		},
		{
			"bufferView":17,
			"componentType":5126,
			"count":631,
			"type":"VEC3"
		},
		{
			"bufferView":18,
			"componentType":5126,
			"count":631,
			"type":"VEC2"
		},
		{
			"bufferView":19,
			"componentType":5123,
			"count":2568,
			"type":"SCALAR"
		},
		{
			"bufferView":20,
			"componentType":5126,
			"count":479,
			"max":[
				-9.039036750793457,
				0.9521239399909973,
				-9.111226081848145
			],
			"min":[
				-10.996811866760254,
				-0.8469276428222656,
				-10.910277366638184
			],
			"type":"VEC3"
		},
		{
			"bufferView":21,
			"componentType":5126,
			"count":479,
			"type":"VEC3"
		},
		{
			"bufferView":22,
			"componentType":5126,
			"count":479,
			"type":"VEC2"
		},
		{
			"bufferView":23,
			"componentType":5123,
			"count":1848,
			"type":"SCALAR"
		},
		{
			"bufferView":24,
			"componentType":5126,
			"count":327,
			"max":[
				-11.342318534851074,
				0.9278226494789124,
				-9.179917335510254
			],
			"min":[
				-12.365409851074219,
				-0.8075069189071655,
				-10.915246963500977
			],
			"type":"VEC3"
		},
		{
			"bufferView":25,
			"componentType":5126,
			"count":327,
			"type":"VEC3"
		},
		{
			"bufferView":26,
			"componentType":5126,
			"count":327,
			"type":"VEC2"
		},
		{
			"bufferView":27,
			"componentType":5123,
			"count":1146,
			"type":"SCALAR"
		},
		{
			"bufferView":28,
			"componentType":5126,
			"count":641,
			"max":[
				-9.762876510620117,
				-1.1218645572662354,
				-9.635669708251953
			],
			"min":[
				-10.615837097167969,
				-8.556756019592285,
				-10.239705085754395
			],
			"type":"VEC3"
		},
		{
			"bufferView":29,
			"componentType":5126,
			"count":641,
			"type":"VEC3"
		},
		{
			"bufferView":30,
			"componentType":5126,
			"count":641,
			"type":"VEC2"
		},
		{
			"bufferView":31,
			"componentType":5123,
			"count":2778,
			"type":"SCALAR"
		},
		{
			"bufferView":32,
			"componentType":5126,
			"count":100,
			"max":[
				-10.302446365356445,
				-1.328851342201233,
				-9.978530883789062
			],
			"min":[
				-11.310829162597656,
				-2.413727045059204,
				-10.03614330291748
			],
			"type":"VEC3"
		},
		{
			"bufferView":33,
			"componentType":5126,
			"count":100,
			"type":"VEC3"
		},
		{
			"bufferView":34,
			"componentType":5126,
			"count":100,
			"type":"VEC2"
		},
		{
			"bufferView":35,
			"componentType":5123,
			"count":288,
			"type":"SCALAR"
		},
		{
			"bufferView":36,
			"componentType":5126,
			"count":98,
			"max":[
				-9.008565902709961,
				3.2920382022857666,
				-9.93860149383545
			],
			"min":[
				-11.60226821899414,
				1.1915130615234375,
				-10.04969310760498
			],
			"type":"VEC3"
		},
		{
			"bufferView":37,
			"componentType":5126,
			"count":98,
			"type":"VEC3"
		},
		{
			"bufferView":38,
			"componentType":5126,
			"count":98,
			"type":"VEC2"
		},
		{
			"bufferView":39,
			"componentType":5123,
			"count":240,
			"type":"SCALAR"
		},
		{
			"bufferView":40,
			"componentType":5126,
			"count":48,
			"max":[
				-9.02833366394043,
				3.554202079772949,
				-9.951895713806152
			],
			"min":[
				-11.641349792480469,
				2.2758078575134277,
				-10.036596298217773
			],
			"type":"VEC3"
		},
		{
			"bufferView":41,
			"componentType":5126,
			"count":48,
			"type":"VEC3"
		},
		{
			"bufferView":42,
			"componentType":5126,
			"count":48,
			"type":"VEC2"
		},
		{
			"bufferView":43,
			"componentType":5123,
			"count":48,
			"type":"SCALAR"
		},
		{
			"bufferView":44,
			"componentType":5126,
			"count":172,
			"max":[
				-7.11959981918335,
				2.5369513034820557,
				-9.44217586517334
			],
			"min":[
				-8.70145034790039,
				-2.409398317337036,
				-12.479445457458496
			],
			"type":"VEC3"
		},
		{
			"bufferView":45,
			"componentType":5126,
			"count":172,
			"type":"VEC3"
		},
		{
			"bufferView":46,
			"componentType":5126,
			"count":172,
			"type":"VEC2"
		},
		{
			"bufferView":47,
			"componentType":5123,
			"count":786,
			"type":"SCALAR"
		},
		{
			"bufferView":48,
			"componentType":5126,
			"count":183,
			"max":[
				-7.143365859985352,
				2.130640983581543,
				-8.173995971679688
			],
			"min":[
				-7.353216648101807,
				-1.7970949411392212,
				-11.545029640197754
			],
			"type":"VEC3"
		},
		{
			"bufferView":49,
			"componentType":5126,
			"count":183,
			"type":"VEC3"
		},
		{
			"bufferView":50,
			"componentType":5126,
			"count":183,
			"type":"VEC2"
		},
		{
			"bufferView":51,
			"componentType":5123,
			"count":960,
			"type":"SCALAR"
		},
		{
			"bufferView":52,
			"componentType":5126,
			"count":183,
			"max":[
				-7.21139669418335,
				2.1123409271240234,
				-10.291167259216309
			],
			"min":[
				-7.3299241065979,
				-1.4096711874008179,
				-12.166172981262207
			],
			"type":"VEC3"
		},
		{
			"bufferView":53,
			"componentType":5126,
			"count":183,
			"type":"VEC3"
		},
		{
			"bufferView":54,
			"componentType":5126,
			"count":183,
			"type":"VEC2"
		},
		{
			"bufferView":55,
			"componentType":5123,
			"count":954,
			"type":"SCALAR"
		},
		{
			"bufferView":56,
			"componentType":5126,
			"count":95,
			"max":[
				-7.275575160980225,
				0.060758113861083984,
				-9.024052619934082
			],
			"min":[
				-7.290884971618652,
				-2.284135580062866,
				-12.150888442993164
			],
			"type":"VEC3"
		},
		{
			"bufferView":57,
			"componentType":5126,
			"count":95,
			"type":"VEC3"
		},
		{
			"bufferView":58,
			"componentType":5126,
			"count":95,
			"type":"VEC2"
		},
		{
			"bufferView":59,
			"componentType":5123,
			"count":432,
			"type":"SCALAR"
		},
		{
			"bufferView":60,
			"componentType":5126,
			"count":428,
			"max":[
				-11.347624778747559,
				0.9911534190177917,
				-9.107168197631836
			],
			"min":[
				-12.2261962890625,
				-0.8469300270080566,
				-11.010530471801758
			],
			"type":"VEC3"
		},
		{
			"bufferView":61,
			"componentType":5126,
			"count":428,
			"type":"VEC3"
		},
		{
			"bufferView":62,
			"componentType":5126,
			"count":428,
			"type":"VEC2"
		},
		{
			"bufferView":63,
			"componentType":5123,
			"count":1608,
			"type":"SCALAR"
		},
		{
			"bufferView":64,
			"componentType":5126,
			"count":44,
			"max":[
				-8.469633102416992,
				1.1212321519851685,
				-8.939336776733398
			],
			"min":[
				-9.114286422729492,
				-1.0085517168045044,
				-11.123891830444336
			],
			"type":"VEC3"
		},
		{
			"bufferView":65,
			"componentType":5126,
			"count":44,
			"type":"VEC3"
		},
		{
			"bufferView":66,
			"componentType":5126,
			"count":44,
			"type":"VEC2"
		},
		{
			"bufferView":67,
			"componentType":5123,
			"count":120,
			"type":"SCALAR"
		},
		{
			"bufferView":68,
			"componentType":5126,
			"count":44,
			"max":[
				-10.977415084838867,
				0.728588879108429,
				-9.342077255249023
			],
			"min":[
				-11.384373664855957,
				-0.6159084439277649,
				-10.721151351928711
			],
			"type":"VEC3"
		},
		{
			"bufferView":69,
			"componentType":5126,
			"count":44,
			"type":"VEC3"
		},
		{
			"bufferView":70,
			"componentType":5126,
			"count":44,
			"type":"VEC2"
		},
		{
			"bufferView":71,
			"componentType":5123,
			"count":120,
			"type":"SCALAR"
		},
		{
			"bufferView":72,
			"componentType":5126,
			"count":187,
			"max":[
				-9.661641120910645,
				0.5240479707717896,
				-9.693804740905762
			],
			"min":[
				-10.361712455749512,
				-0.6239622831344604,
				-10.411880493164062
			],
			"type":"VEC3"
		},
		{
			"bufferView":73,
			"componentType":5126,
			"count":187,
			"type":"VEC3"
		},
		{
			"bufferView":74,
			"componentType":5126,
			"count":187,
			"type":"VEC2"
		},
		{
			"bufferView":75,
			"componentType":5123,
			"count":840,
			"type":"SCALAR"
		},
		{
			"bufferView":76,
			"componentType":5126,
			"count":17,
			"max":[
				-9.908180236816406,
				0.18279819190502167,
				-9.709460258483887
			],
			"min":[
				-10.113327980041504,
				0.03659411519765854,
				-9.773835182189941
			],
			"type":"VEC3"
		},
		{
			"bufferView":77,
			"componentType":5126,
			"count":17,
			"type":"VEC3"
		},
		{
			"bufferView":78,
			"componentType":5126,
			"count":17,
			"type":"VEC2"
		},
		{
			"bufferView":79,
			"componentType":5123,
			"count":72,
			"type":"SCALAR"
		},
		{
			"bufferView":80,
			"componentType":5126,
			"count":2998,
			"max":[
				2.156982421875,
				0.7649975419044495,
				0.6981879472732544
			],
			"min":[
				-2.1308298110961914,
				-1.516010046005249,
				-1.7863072156906128
			],
			"type":"VEC3"
		},
		{
			"bufferView":81,
			"componentType":5126,
			"count":2998,
			"type":"VEC3"
		},
		{
			"bufferView":82,
			"componentType":5126,
			"count":2998,
			"type":"VEC2"
		},
		{
			"bufferView":83,
			"componentType":5123,
			"count":13908,
			"type":"SCALAR"
		},
		{
			"bufferView":84,
			"componentType":5126,
			"count":1050,
			"max":[
				0.6631187200546265,
				0.4654940664768219,
				0.5956709384918213
			],
			"min":[
				-0.6631187200546265,
				-0.5324810147285461,
				-0.3517657518386841
			],
			"type":"VEC3"
		},
		{
			"bufferView":85,
			"componentType":5126,
			"count":1050,
			"type":"VEC3"
		},
		{
			"bufferView":86,
			"componentType":5126,
			"count":1050,
			"type":"VEC2"
		},
		{
			"bufferView":87,
			"componentType":5123,
			"count":6162,
			"type":"SCALAR"
		},
		{
			"bufferView":88,
			"componentType":5126,
			"count":134,
			"max":[
				0.4296371340751648,
				-0.4637533724308014,
				0.42774394154548645
			],
			"min":[
				-0.43795883655548096,
				-1.2247588634490967,
				-0.3296542167663574
			],
			"type":"VEC3"
		},
		{
			"bufferView":89,
			"componentType":5126,
			"count":134,
			"type":"VEC3"
		},
		{
			"bufferView":90,
			"componentType":5126,
			"count":134,
			"type":"VEC2"
		},
		{
			"bufferView":91,
			"componentType":5123,
			"count":564,
			"type":"SCALAR"
		},
		{
			"bufferView":92,
			"componentType":5126,
			"count":165,
			"max":[
				0.5791342258453369,
				-1.0968607664108276,
				0.36810925602912903
			],
			"min":[
				-0.5791342258453369,
				-1.7502245903015137,
				-0.2459045946598053
			],
			"type":"VEC3"
		},
		{
			"bufferView":93,
			"componentType":5126,
			"count":165,
			"type":"VEC3"
		},
		{
			"bufferView":94,
			"componentType":5126,
			"count":165,
			"type":"VEC2"
		},
		{
			"bufferView":95,
			"componentType":5123,
			"count":624,
			"type":"SCALAR"
		},
		{
			"bufferView":96,
			"componentType":5126,
			"count":57,
			"max":[
				0.3445558547973633,
				-0.33477848768234253,
				0.4064617156982422
			],
			"min":[
				-0.38877010345458984,
				-0.44550180435180664,
				-0.03214383125305176
			],
			"type":"VEC3"
		},
		{
			"bufferView":97,
			"componentType":5126,
			"count":57,
			"type":"VEC3"
		},
		{
			"bufferView":98,
			"componentType":5126,
			"count":57,
			"type":"VEC2"
		},
		{
			"bufferView":99,
			"componentType":5123,
			"count":288,
			"type":"SCALAR"
		},
		{
			"bufferView":100,
			"componentType":5126,
			"count":1274,
			"max":[
				-0.20030416548252106,
				-0.46805694699287415,
				0.38928261399269104
			],
			"min":[
				-1.408650279045105,
				-0.8783707618713379,
				-0.2193741798400879
			],
			"type":"VEC3"
		},
		{
			"bufferView":101,
			"componentType":5126,
			"count":1274,
			"type":"VEC3"
		},
		{
			"bufferView":102,
			"componentType":5126,
			"count":1274,
			"type":"VEC2"
		},
		{
			"bufferView":103,
			"componentType":5123,
			"count":5616,
			"type":"SCALAR"
		},
		{
			"bufferView":104,
			"componentType":5126,
			"count":1341,
			"max":[
				-0.19806012511253357,
				-0.458125501871109,
				0.39921876788139343
			],
			"min":[
				-1.41864812374115,
				-0.8883696794509888,
				-0.2292228639125824
			],
			"type":"VEC3"
		},
		{
			"bufferView":105,
			"componentType":5126,
			"count":1341,
			"type":"VEC3"
		},
		{
			"bufferView":106,
			"componentType":5126,
			"count":1341,
			"type":"VEC2"
		},
		{
			"bufferView":107,
			"componentType":5123,
			"count":5832,
			"type":"SCALAR"
		},
		{
			"bufferView":108,
			"componentType":5126,
			"count":347,
			"max":[
				0.641725480556488,
				1.52685546875,
				0.2958677411079407
			],
			"min":[
				-0.018825173377990723,
				0.5385658740997314,
				-0.31006303429603577
			],
			"type":"VEC3"
		},
		{
			"bufferView":109,
			"componentType":5126,
			"count":347,
			"type":"VEC3"
		},
		{
			"bufferView":110,
			"componentType":5126,
			"count":347,
			"type":"VEC2"
		},
		{
			"bufferView":111,
			"componentType":5123,
			"count":1626,
			"type":"SCALAR"
		},
		{
			"bufferView":112,
			"componentType":5126,
			"count":761,
			"max":[
				0.7545635104179382,
				0.8920538425445557,
				-0.004923388361930847
			],
			"min":[
				0.3771854639053345,
				0.5646135807037354,
				-0.3013796806335449
			],
			"type":"VEC3"
		},
		{
			"bufferView":113,
			"componentType":5126,
			"count":761,
			"type":"VEC3"
		},
		{
			"bufferView":114,
			"componentType":5126,
			"count":761,
			"type":"VEC2"
		},
		{
			"bufferView":115,
			"componentType":5123,
			"count":3444,
			"type":"SCALAR"
		},
		{
			"bufferView":116,
			"componentType":5126,
			"count":347,
			"max":[
				0.018825173377990723,
				1.52685546875,
				0.2958677411079407
			],
			"min":[
				-0.641725480556488,
				0.5385658740997314,
				-0.31006303429603577
			],
			"type":"VEC3"
		},
		{
			"bufferView":117,
			"componentType":5126,
			"count":347,
			"type":"VEC3"
		},
		{
			"bufferView":118,
			"componentType":5126,
			"count":347,
			"type":"VEC2"
		},
		{
			"bufferView":119,
			"componentType":5123,
			"count":1626,
			"type":"SCALAR"
		},
		{
			"bufferView":120,
			"componentType":5126,
			"count":347,
			"max":[
				-0.3771854639053345,
				0.8920538425445557,
				-0.004923388361930847
			],
			"min":[
				-0.7545635104179382,
				0.5646135807037354,
				-0.3013796806335449
			],
			"type":"VEC3"
		},
		{
			"bufferView":121,
			"componentType":5126,
			"count":347,
			"type":"VEC3"
		},
		{
			"bufferView":122,
			"componentType":5126,
			"count":347,
			"type":"VEC2"
		},
		{
			"bufferView":123,
			"componentType":5123,
			"count":1626,
			"type":"SCALAR"
		},
		{
			"bufferView":124,
			"componentType":5126,
			"count":1274,
			"max":[
				-0.20030416548252106,
				-0.46805694699287415,
				0.38928261399269104
			],
			"min":[
				-1.408650279045105,
				-0.8783707618713379,
				-0.2193741798400879
			],
			"type":"VEC3"
		},
		{
			"bufferView":125,
			"componentType":5126,
			"count":1274,
			"type":"VEC3"
		},
		{
			"bufferView":126,
			"componentType":5126,
			"count":1274,
			"type":"VEC2"
		},
		{
			"bufferView":127,
			"componentType":5126,
			"count":1341,
			"max":[
				-0.19806012511253357,
				-0.458125501871109,
				0.39921876788139343
			],
			"min":[
				-1.41864812374115,
				-0.8883696794509888,
				-0.2292228639125824
			],
			"type":"VEC3"
		},
		{
			"bufferView":128,
			"componentType":5126,
			"count":1341,
			"type":"VEC3"
		},
		{
			"bufferView":129,
			"componentType":5126,
			"count":1341,
			"type":"VEC2"
		}
	],
	"bufferViews":[
		{
			"buffer":0,
			"byteLength":1560,
			"byteOffset":0,
			"target":34962
		},
		{
			"buffer":0,
			"byteLength":1560,
			"byteOffset":1560,
			"target":34962
		},
		{
			"buffer":0,
			"byteLength":1040,
			"byteOffset":3120,
			"target":34962
		},
		{
			"buffer":0,
			"byteLength":744,
			"byteOffset":4160,
			"target":34963
		},
		{
			"buffer":0,
			"byteLength":3744,
			"byteOffset":4904,
			"target":34962
		},
		{
			"buffer":0,
			"byteLength":3744,
			"byteOffset":8648,
			"target":34962
		},
		{
			"buffer":0,
			"byteLength":2496,
			"byteOffset":12392,
			"target":34962
		},
		{
			"buffer":0,
			"byteLength":2436,
			"byteOffset":14888,
			"target":34963
		},
		{
			"buffer":0,
			"byteLength":792,
			"byteOffset":17324,
			"target":34962
		},
		{
			"buffer":0,
			"byteLength":792,
			"byteOffset":18116,
			"target":34962
		},
		{
			"buffer":0,
			"byteLength":528,
			"byteOffset":18908,
			"target":34962
		},
		{
			"buffer":0,
			"byteLength":384,
			"byteOffset":19436,
			"target":34963
		},
		{
			"buffer":0,
			"byteLength":1560,
			"byteOffset":19820,
			"target":34962
		},
		{
			"buffer":0,
			"byteLength":1560,
			"byteOffset":21380,
			"target":34962
		},
		{
			"buffer":0,
			"byteLength":1040,
			"byteOffset":22940,
			"target":34962
		},
		{
			"buffer":0,
			"byteLength":744,
			"byteOffset":23980,
			"target":34963
		},
		{
			"buffer":0,
			"byteLength":7572,
			"byteOffset":24724,
			"target":34962
		},
		{
			"buffer":0,
			"byteLength":7572,
			"byteOffset":32296,
			"target":34962
		},
		{
			"buffer":0,
			"byteLength":5048,
			"byteOffset":39868,
			"target":34962
		},
		{
			"buffer":0,
			"byteLength":5136,
			"byteOffset":44916,
			"target":34963
		},
		{
			"buffer":0,
			"byteLength":5748,
			"byteOffset":50052,
			"target":34962
		},
		{
			"buffer":0,
			"byteLength":5748,
			"byteOffset":55800,
			"target":34962
		},
		{
			"buffer":0,
			"byteLength":3832,
			"byteOffset":61548,
			"target":34962
		},
		{
			"buffer":0,
			"byteLength":3696,
			"byteOffset":65380,
			"target":34963
		},
		{
			"buffer":0,
			"byteLength":3924,
			"byteOffset":69076,
			"target":34962
		},
		{
			"buffer":0,
			"byteLength":3924,
			"byteOffset":73000,
			"target":34962
		},
		{
			"buffer":0,
			"byteLength":2616,
			"byteOffset":76924,
			"target":34962
		},
		{
			"buffer":0,
			"byteLength":2292,
			"byteOffset":79540,
			"target":34963
		},
		{
			"buffer":0,
			"byteLength":7692,
			"byteOffset":81832,
			"target":34962
		},
		{
			"buffer":0,
			"byteLength":7692,
			"byteOffset":89524,
			"target":34962
		},
		{
			"buffer":0,
			"byteLength":5128,
			"byteOffset":97216,
			"target":34962
		},
		{
			"buffer":0,
			"byteLength":5556,
			"byteOffset":102344,
			"target":34963
		},
		{
			"buffer":0,
			"byteLength":1200,
			"byteOffset":107900,
			"target":34962
		},
		{
			"buffer":0,
			"byteLength":1200,
			"byteOffset":109100,
			"target":34962
		},
		{
			"buffer":0,
			"byteLength":800,
			"byteOffset":110300,
			"target":34962
		},
		{
			"buffer":0,
			"byteLength":576,
			"byteOffset":111100,
			"target":34963
		},
		{
			"buffer":0,
			"byteLength":1176,
			"byteOffset":111676,
			"target":34962
		},
		{
			"buffer":0,
			"byteLength":1176,
			"byteOffset":112852,
			"target":34962
		},
		{
			"buffer":0,
			"byteLength":784,
			"byteOffset":114028,
			"target":34962
		},
		{
			"buffer":0,
			"byteLength":480,
			"byteOffset":114812,
			"target":34963
		},
		{
			"buffer":0,
			"byteLength":576,
			"byteOffset":115292,
			"target":34962
		},
		{
			"buffer":0,
			"byteLength":576,
			"byteOffset":115868,
			"target":34962
		},
		{
			"buffer":0,
			"byteLength":384,
			"byteOffset":116444,
			"target":34962
		},
		{
			"buffer":0,
			"byteLength":96,
			"byteOffset":116828,
			"target":34963
		},
		{
			"buffer":0,
			"byteLength":2064,
			"byteOffset":116924,
			"target":34962
		},
		{
			"buffer":0,
			"byteLength":2064,
			"byteOffset":118988,
			"target":34962
		},
		{
			"buffer":0,
			"byteLength":1376,
			"byteOffset":121052,
			"target":34962
		},
		{
			"buffer":0,
			"byteLength":1572,
			"byteOffset":122428,
			"target":34963
		},
		{
			"buffer":0,
			"byteLength":2196,
			"byteOffset":124000,
			"target":34962
		},
		{
			"buffer":0,
			"byteLength":2196,
			"byteOffset":126196,
			"target":34962
		},
		{
			"buffer":0,
			"byteLength":1464,
			"byteOffset":128392,
			"target":34962
		},
		{
			"buffer":0,
			"byteLength":1920,
			"byteOffset":129856,
			"target":34963
		},
		{
			"buffer":0,
			"byteLength":2196,
			"byteOffset":131776,
			"target":34962
		},
		{
			"buffer":0,
			"byteLength":2196,
			"byteOffset":133972,
			"target":34962
		},
		{
			"buffer":0,
			"byteLength":1464,
			"byteOffset":136168,
			"target":34962
		},
		{
			"buffer":0,
			"byteLength":1908,
			"byteOffset":137632,
			"target":34963
		},
		{
			"buffer":0,
			"byteLength":1140,
			"byteOffset":139540,
			"target":34962
		},
		{
			"buffer":0,
			"byteLength":1140,
			"byteOffset":140680,
			"target":34962
		},
		{
			"buffer":0,
			"byteLength":760,
			"byteOffset":141820,
			"target":34962
		},
		{
			"buffer":0,
			"byteLength":864,
			"byteOffset":142580,
			"target":34963
		},
		{
			"buffer":0,
			"byteLength":5136,
			"byteOffset":143444,
			"target":34962
		},
		{
			"buffer":0,
			"byteLength":5136,
			"byteOffset":148580,
			"target":34962
		},
		{
			"buffer":0,
			"byteLength":3424,
			"byteOffset":153716,
			"target":34962
		},
		{
			"buffer":0,
			"byteLength":3216,
			"byteOffset":157140,
			"target":34963
		},
		{
			"buffer":0,
			"byteLength":528,
			"byteOffset":160356,
			"target":34962
		},
		{
			"buffer":0,
			"byteLength":528,
			"byteOffset":160884,
			"target":34962
		},
		{
			"buffer":0,
			"byteLength":352,
			"byteOffset":161412,
			"target":34962
		},
		{
			"buffer":0,
			"byteLength":240,
			"byteOffset":161764,
			"target":34963
		},
		{
			"buffer":0,
			"byteLength":528,
			"byteOffset":162004,
			"target":34962
		},
		{
			"buffer":0,
			"byteLength":528,
			"byteOffset":162532,
			"target":34962
		},
		{
			"buffer":0,
			"byteLength":352,
			"byteOffset":163060,
			"target":34962
		},
		{
			"buffer":0,
			"byteLength":240,
			"byteOffset":163412,
			"target":34963
		},
		{
			"buffer":0,
			"byteLength":2244,
			"byteOffset":163652,
			"target":34962
		},
		{
			"buffer":0,
			"byteLength":2244,
			"byteOffset":165896,
			"target":34962
		},
		{
			"buffer":0,
			"byteLength":1496,
			"byteOffset":168140,
			"target":34962
		},
		{
			"buffer":0,
			"byteLength":1680,
			"byteOffset":169636,
			"target":34963
		},
		{
			"buffer":0,
			"byteLength":204,
			"byteOffset":171316,
			"target":34962
		},
		{
			"buffer":0,
			"byteLength":204,
			"byteOffset":171520,
			"target":34962
		},
		{
			"buffer":0,
			"byteLength":136,
			"byteOffset":171724,
			"target":34962
		},
		{
			"buffer":0,
			"byteLength":144,
			"byteOffset":171860,
			"target":34963
		},
		{
			"buffer":0,
			"byteLength":35976,
			"byteOffset":172004,
			"target":34962
		},
		{
			"buffer":0,
			"byteLength":35976,
			"byteOffset":207980,
			"target":34962
		},
		{
			"buffer":0,
			"byteLength":23984,
			"byteOffset":243956,
			"target":34962
		},
		{
			"buffer":0,
			"byteLength":27816,
			"byteOffset":267940,
			"target":34963
		},
		{
			"buffer":0,
			"byteLength":12600,
			"byteOffset":295756,
			"target":34962
		},
		{
			"buffer":0,
			"byteLength":12600,
			"byteOffset":308356,
			"target":34962
		},
		{
			"buffer":0,
			"byteLength":8400,
			"byteOffset":320956,
			"target":34962
		},
		{
			"buffer":0,
			"byteLength":12324,
			"byteOffset":329356,
			"target":34963
		},
		{
			"buffer":0,
			"byteLength":1608,
			"byteOffset":341680,
			"target":34962
		},
		{
			"buffer":0,
			"byteLength":1608,
			"byteOffset":343288,
			"target":34962
		},
		{
			"buffer":0,
			"byteLength":1072,
			"byteOffset":344896,
			"target":34962
		},
		{
			"buffer":0,
			"byteLength":1128,
			"byteOffset":345968,
			"target":34963
		},
		{
			"buffer":0,
			"byteLength":1980,
			"byteOffset":347096,
			"target":34962
		},
		{
			"buffer":0,
			"byteLength":1980,
			"byteOffset":349076,
			"target":34962
		},
		{
			"buffer":0,
			"byteLength":1320,
			"byteOffset":351056,
			"target":34962
		},
		{
			"buffer":0,
			"byteLength":1248,
			"byteOffset":352376,
			"target":34963
		},
		{
			"buffer":0,
			"byteLength":684,
			"byteOffset":353624,
			"target":34962
		},
		{
			"buffer":0,
			"byteLength":684,
			"byteOffset":354308,
			"target":34962
		},
		{
			"buffer":0,
			"byteLength":456,
			"byteOffset":354992,
			"target":34962
		},
		{
			"buffer":0,
			"byteLength":576,
			"byteOffset":355448,
			"target":34963
		},
		{
			"buffer":0,
			"byteLength":15288,
			"byteOffset":356024,
			"target":34962
		},
		{
			"buffer":0,
			"byteLength":15288,
			"byteOffset":371312,
			"target":34962
		},
		{
			"buffer":0,
			"byteLength":10192,
			"byteOffset":386600,
			"target":34962
		},
		{
			"buffer":0,
			"byteLength":11232,
			"byteOffset":396792,
			"target":34963
		},
		{
			"buffer":0,
			"byteLength":16092,
			"byteOffset":408024,
			"target":34962
		},
		{
			"buffer":0,
			"byteLength":16092,
			"byteOffset":424116,
			"target":34962
		},
		{
			"buffer":0,
			"byteLength":10728,
			"byteOffset":440208,
			"target":34962
		},
		{
			"buffer":0,
			"byteLength":11664,
			"byteOffset":450936,
			"target":34963
		},
		{
			"buffer":0,
			"byteLength":4164,
			"byteOffset":462600,
			"target":34962
		},
		{
			"buffer":0,
			"byteLength":4164,
			"byteOffset":466764,
			"target":34962
		},
		{
			"buffer":0,
			"byteLength":2776,
			"byteOffset":470928,
			"target":34962
		},
		{
			"buffer":0,
			"byteLength":3252,
			"byteOffset":473704,
			"target":34963
		},
		{
			"buffer":0,
			"byteLength":9132,
			"byteOffset":476956,
			"target":34962
		},
		{
			"buffer":0,
			"byteLength":9132,
			"byteOffset":486088,
			"target":34962
		},
		{
			"buffer":0,
			"byteLength":6088,
			"byteOffset":495220,
			"target":34962
		},
		{
			"buffer":0,
			"byteLength":6888,
			"byteOffset":501308,
			"target":34963
		},
		{
			"buffer":0,
			"byteLength":4164,
			"byteOffset":508196,
			"target":34962
		},
		{
			"buffer":0,
			"byteLength":4164,
			"byteOffset":512360,
			"target":34962
		},
		{
			"buffer":0,
			"byteLength":2776,
			"byteOffset":516524,
			"target":34962
		},
		{
			"buffer":0,
			"byteLength":3252,
			"byteOffset":519300,
			"target":34963
		},
		{
			"buffer":0,
			"byteLength":4164,
			"byteOffset":522552,
			"target":34962
		},
		{
			"buffer":0,
			"byteLength":4164,
			"byteOffset":526716,
			"target":34962
		},
		{
			"buffer":0,
			"byteLength":2776,
			"byteOffset":530880,
			"target":34962
		},
		{
			"buffer":0,
			"byteLength":3252,
			"byteOffset":533656,
			"target":34963
		},
		{
			"buffer":0,
			"byteLength":15288,
			"byteOffset":536908,
			"target":34962
		},
		{
			"buffer":0,
			"byteLength":15288,
			"byteOffset":552196,
			"target":34962
		},
		{
			"buffer":0,
			"byteLength":10192,
			"byteOffset":567484,
			"target":34962
		},
		{
			"buffer":0,
			"byteLength":16092,
			"byteOffset":577676,
			"target":34962
		},
		{
			"buffer":0,
			"byteLength":16092,
			"byteOffset":593768,
			"target":34962
		},
		{
			"buffer":0,
			"byteLength":10728,
			"byteOffset":609860,
			"target":34962
		}
	],
	"samplers":[
		{
			"magFilter":9729,
			"minFilter":9987
		}
	],
	"buffers":[
		{
			"byteLength":620588,
			"uri":"dekanu.bin"
		}
	]
}
