# Blender 5.1.2
# www.blender.org
mtllib low.mtl
o テキスト
v 0.141609 -0.367407 0.100000
v 0.150370 -0.383509 0.100000
v 0.159188 -0.400125 0.100000
v 0.167963 -0.417074 0.100000
v 0.176600 -0.434176 0.100000
v 0.185000 -0.451250 0.100000
v 0.193067 -0.468116 0.100000
v 0.200704 -0.484593 0.100000
v 0.207813 -0.500500 0.100000
v 0.214296 -0.515657 0.100000
v 0.220058 -0.529884 0.100000
v 0.225000 -0.543000 0.100000
v 0.166000 -0.564000 0.100000
v 0.161767 -0.550844 0.100000
v 0.156634 -0.536500 0.100000
v 0.150703 -0.521156 0.100000
v 0.144074 -0.505000 0.100000
v 0.136848 -0.488219 0.100000
v 0.129125 -0.471000 0.100000
v 0.121006 -0.453531 0.100000
v 0.112593 -0.436000 0.100000
v 0.103984 -0.418594 0.100000
v 0.095282 -0.401500 0.100000
v 0.086587 -0.384906 0.100000
v 0.078000 -0.369000 0.100000
v 0.133000 -0.352000 0.100000
v -0.170874 0.296982 0.100000
v -0.177991 0.278940 0.100000
v -0.185344 0.260891 0.100000
v -0.192926 0.242852 0.100000
v -0.200730 0.224841 0.100000
v -0.208750 0.206875 0.100000
v -0.216978 0.188972 0.100000
v -0.225407 0.171148 0.100000
v -0.234031 0.153422 0.100000
v -0.242843 0.135810 0.100000
v -0.251834 0.118330 0.100000
v -0.261000 0.101000 0.100000
v -0.261000 -0.578000 0.100000
v -0.332000 -0.578000 0.100000
v -0.332000 -0.016000 0.100000
v -0.340291 -0.028395 0.100000
v -0.348662 -0.040574 0.100000
v -0.357109 -0.052531 0.100000
v -0.365630 -0.064259 0.100000
v -0.374219 -0.075751 0.100000
v -0.382875 -0.087000 0.100000
v -0.391593 -0.097999 0.100000
v -0.400370 -0.108741 0.100000
v -0.409203 -0.119219 0.100000
v -0.418088 -0.129426 0.100000
v -0.427021 -0.139355 0.100000
v -0.436000 -0.149000 0.100000
v -0.438030 -0.144068 0.100000
v -0.440569 -0.138375 0.100000
v -0.443547 -0.132078 0.100000
v -0.446889 -0.125333 0.100000
v -0.450523 -0.118297 0.100000
v -0.454375 -0.111125 0.100000
v -0.458373 -0.103974 0.100000
v -0.462444 -0.097000 0.100000
v -0.466516 -0.090359 0.100000
v -0.470514 -0.084208 0.100000
v -0.474366 -0.078703 0.100000
v -0.478000 -0.074000 0.100000
v -0.453892 -0.047905 0.100000
v -0.430139 -0.019741 0.100000
v -0.406844 0.010312 0.100000
v -0.384111 0.042074 0.100000
v -0.362045 0.075363 0.100000
v -0.340750 0.110000 0.100000
v -0.320330 0.145803 0.100000
v -0.300889 0.182593 0.100000
v -0.282531 0.220188 0.100000
v -0.265361 0.258407 0.100000
v -0.249483 0.297072 0.100000
v -0.235000 0.336000 0.100000
v -0.164000 0.315000 0.100000
v -0.160622 -0.519055 0.100000
v -0.156060 -0.516690 0.100000
v -0.151422 -0.513859 0.100000
v -0.146815 -0.510518 0.100000
v -0.142347 -0.506622 0.100000
v -0.138125 -0.502125 0.100000
v -0.134257 -0.496982 0.100000
v -0.130852 -0.491148 0.100000
v -0.128016 -0.484578 0.100000
v -0.125856 -0.477227 0.100000
v -0.124482 -0.469049 0.100000
v -0.124000 -0.460000 0.100000
v -0.123000 0.231000 0.100000
v -0.124000 0.232000 0.100000
v -0.081332 0.238535 0.100000
v -0.038074 0.245616 0.100000
v 0.005406 0.253203 0.100000
v 0.048741 0.261259 0.100000
v 0.091561 0.269746 0.100000
v 0.133500 0.278625 0.100000
v 0.174189 0.287858 0.100000
v 0.213259 0.297407 0.100000
v 0.250344 0.307234 0.100000
v 0.285074 0.317301 0.100000
v 0.317082 0.327569 0.100000
v 0.346000 0.338000 0.100000
v 0.410000 0.278000 0.100000
v 0.396295 0.273292 0.100000
v 0.382195 0.268667 0.100000
v 0.367719 0.264125 0.100000
v 0.352889 0.259667 0.100000
v 0.337726 0.255292 0.100000
v 0.322250 0.251000 0.100000
v 0.306483 0.246792 0.100000
v 0.290444 0.242667 0.100000
v 0.274156 0.238625 0.100000
v 0.257639 0.234667 0.100000
v 0.240913 0.230792 0.100000
v 0.224000 0.227000 0.100000
v 0.224812 0.203105 0.100000
v 0.225745 0.179426 0.100000
v 0.226797 0.155969 0.100000
v 0.227963 0.132741 0.100000
v 0.229240 0.109749 0.100000
v 0.230625 0.087000 0.100000
v 0.232114 0.064501 0.100000
v 0.233704 0.042259 0.100000
v 0.235391 0.020281 0.100000
v 0.237171 -0.001426 0.100000
v 0.239042 -0.022855 0.100000
v 0.241000 -0.044000 0.100000
v 0.451000 -0.044000 0.100000
v 0.451000 -0.115000 0.100000
v 0.249000 -0.115000 0.100000
v 0.255641 -0.167539 0.100000
v 0.263046 -0.216977 0.100000
v 0.271188 -0.263047 0.100000
v 0.280037 -0.305481 0.100000
v 0.289567 -0.344013 0.100000
v 0.299750 -0.378375 0.100000
v 0.310558 -0.408299 0.100000
v 0.321963 -0.433518 0.100000
v 0.333938 -0.453766 0.100000
v 0.346454 -0.468773 0.100000
v 0.359484 -0.478274 0.100000
v 0.373000 -0.482000 0.100000
v 0.377625 -0.481153 0.100000
v 0.382000 -0.478139 0.100000
v 0.386125 -0.473000 0.100000
v 0.390000 -0.465778 0.100000
v 0.393625 -0.456514 0.100000
v 0.397000 -0.445250 0.100000
v 0.400125 -0.432028 0.100000
v 0.403000 -0.416889 0.100000
v 0.405625 -0.399875 0.100000
v 0.408000 -0.381028 0.100000
v 0.410125 -0.360389 0.100000
v 0.412000 -0.338000 0.100000
v 0.415565 -0.341574 0.100000
v 0.419685 -0.345259 0.100000
v 0.424250 -0.349000 0.100000
v 0.429148 -0.352741 0.100000
v 0.434269 -0.356426 0.100000
v 0.439500 -0.360000 0.100000
v 0.444732 -0.363407 0.100000
v 0.449852 -0.366593 0.100000
v 0.454750 -0.369500 0.100000
v 0.459315 -0.372074 0.100000
v 0.463435 -0.374259 0.100000
v 0.467000 -0.376000 0.100000
v 0.461924 -0.411786 0.100000
v 0.456222 -0.443292 0.100000
v 0.449938 -0.470734 0.100000
v 0.443111 -0.494333 0.100000
v 0.435785 -0.514307 0.100000
v 0.428000 -0.530875 0.100000
v 0.419799 -0.544255 0.100000
v 0.411222 -0.554667 0.100000
v 0.402313 -0.562328 0.100000
v 0.393111 -0.567458 0.100000
v 0.383660 -0.570276 0.100000
v 0.374000 -0.571000 0.100000
v 0.347780 -0.566764 0.100000
v 0.323569 -0.555278 0.100000
v 0.301297 -0.536875 0.100000
v 0.280889 -0.511889 0.100000
v 0.262273 -0.480653 0.100000
v 0.245375 -0.443500 0.100000
v 0.230123 -0.400764 0.100000
v 0.216445 -0.352778 0.100000
v 0.204266 -0.299875 0.100000
v 0.193514 -0.242389 0.100000
v 0.184116 -0.180653 0.100000
v 0.176000 -0.115000 0.100000
v -0.053000 -0.115000 0.100000
v -0.053000 -0.482000 0.100000
v 0.088000 -0.446000 0.100000
v 0.087791 -0.450944 0.100000
v 0.087662 -0.456222 0.100000
v 0.087609 -0.461750 0.100000
v 0.087630 -0.467444 0.100000
v 0.087719 -0.473222 0.100000
v 0.087875 -0.479000 0.100000
v 0.088093 -0.484694 0.100000
v 0.088370 -0.490222 0.100000
v 0.088703 -0.495500 0.100000
v 0.089088 -0.500444 0.100000
v 0.089521 -0.504972 0.100000
v 0.090000 -0.509000 0.100000
v 0.047416 -0.521399 0.100000
v 0.010824 -0.532194 0.100000
v -0.020281 -0.541531 0.100000
v -0.046407 -0.549556 0.100000
v -0.068061 -0.556413 0.100000
v -0.085750 -0.562250 0.100000
v -0.099980 -0.567212 0.100000
v -0.111259 -0.571444 0.100000
v -0.120094 -0.575094 0.100000
v -0.126991 -0.578306 0.100000
v -0.132457 -0.581226 0.100000
v -0.137000 -0.584000 0.100000
v -0.138181 -0.579266 0.100000
v -0.139699 -0.574125 0.100000
v -0.141516 -0.568672 0.100000
v -0.143593 -0.563000 0.100000
v -0.145892 -0.557203 0.100000
v -0.148375 -0.551375 0.100000
v -0.151004 -0.545609 0.100000
v -0.153741 -0.540000 0.100000
v -0.156547 -0.534641 0.100000
v -0.159384 -0.529625 0.100000
v -0.162215 -0.525047 0.100000
v -0.165000 -0.521000 0.100000
v 0.135961 0.208542 0.100000
v 0.118852 0.205167 0.100000
v 0.101688 0.201875 0.100000
v 0.084482 0.198667 0.100000
v 0.067248 0.195542 0.100000
v 0.050000 0.192500 0.100000
v 0.032752 0.189542 0.100000
v 0.015519 0.186667 0.100000
v -0.001687 0.183875 0.100000
v -0.018852 0.181167 0.100000
v -0.035961 0.178542 0.100000
v -0.053000 0.176000 0.100000
v -0.053000 -0.044000 0.100000
v 0.169000 -0.044000 0.100000
v 0.167291 -0.023876 0.100000
v 0.165662 -0.003509 0.100000
v 0.164109 0.017094 0.100000
v 0.162630 0.037926 0.100000
v 0.161219 0.058980 0.100000
v 0.159875 0.080250 0.100000
v 0.158593 0.101728 0.100000
v 0.157370 0.123407 0.100000
v 0.156203 0.145281 0.100000
v 0.155088 0.167343 0.100000
v 0.154021 0.189585 0.100000
v 0.153000 0.212000 0.100000
v 0.141609 -0.367407 -0.100000
v 0.150370 -0.383509 -0.100000
v 0.159188 -0.400125 -0.100000
v 0.167963 -0.417074 -0.100000
v 0.176600 -0.434176 -0.100000
v 0.185000 -0.451250 -0.100000
v 0.193067 -0.468116 -0.100000
v 0.200704 -0.484593 -0.100000
v 0.207813 -0.500500 -0.100000
v 0.214296 -0.515657 -0.100000
v 0.220058 -0.529884 -0.100000
v 0.225000 -0.543000 -0.100000
v 0.166000 -0.564000 -0.100000
v 0.161767 -0.550844 -0.100000
v 0.156634 -0.536500 -0.100000
v 0.150703 -0.521156 -0.100000
v 0.144074 -0.505000 -0.100000
v 0.136848 -0.488219 -0.100000
v 0.129125 -0.471000 -0.100000
v 0.121006 -0.453531 -0.100000
v 0.112593 -0.436000 -0.100000
v 0.103984 -0.418594 -0.100000
v 0.095282 -0.401500 -0.100000
v 0.086587 -0.384906 -0.100000
v 0.078000 -0.369000 -0.100000
v 0.133000 -0.352000 -0.100000
v -0.170874 0.296982 -0.100000
v -0.177991 0.278940 -0.100000
v -0.185344 0.260891 -0.100000
v -0.192926 0.242852 -0.100000
v -0.200730 0.224841 -0.100000
v -0.208750 0.206875 -0.100000
v -0.216978 0.188972 -0.100000
v -0.225407 0.171148 -0.100000
v -0.234031 0.153422 -0.100000
v -0.242843 0.135810 -0.100000
v -0.251834 0.118330 -0.100000
v -0.261000 0.101000 -0.100000
v -0.261000 -0.578000 -0.100000
v -0.332000 -0.578000 -0.100000
v -0.332000 -0.016000 -0.100000
v -0.340291 -0.028395 -0.100000
v -0.348662 -0.040574 -0.100000
v -0.357109 -0.052531 -0.100000
v -0.365630 -0.064259 -0.100000
v -0.374219 -0.075751 -0.100000
v -0.382875 -0.087000 -0.100000
v -0.391593 -0.097999 -0.100000
v -0.400370 -0.108741 -0.100000
v -0.409203 -0.119219 -0.100000
v -0.418088 -0.129426 -0.100000
v -0.427021 -0.139355 -0.100000
v -0.436000 -0.149000 -0.100000
v -0.438030 -0.144068 -0.100000
v -0.440569 -0.138375 -0.100000
v -0.443547 -0.132078 -0.100000
v -0.446889 -0.125333 -0.100000
v -0.450523 -0.118297 -0.100000
v -0.454375 -0.111125 -0.100000
v -0.458373 -0.103974 -0.100000
v -0.462444 -0.097000 -0.100000
v -0.466516 -0.090359 -0.100000
v -0.470514 -0.084208 -0.100000
v -0.474366 -0.078703 -0.100000
v -0.478000 -0.074000 -0.100000
v -0.453892 -0.047905 -0.100000
v -0.430139 -0.019741 -0.100000
v -0.406844 0.010312 -0.100000
v -0.384111 0.042074 -0.100000
v -0.362045 0.075363 -0.100000
v -0.340750 0.110000 -0.100000
v -0.320330 0.145803 -0.100000
v -0.300889 0.182593 -0.100000
v -0.282531 0.220188 -0.100000
v -0.265361 0.258407 -0.100000
v -0.249483 0.297072 -0.100000
v -0.235000 0.336000 -0.100000
v -0.164000 0.315000 -0.100000
v -0.160622 -0.519055 -0.100000
v -0.156060 -0.516690 -0.100000
v -0.151422 -0.513859 -0.100000
v -0.146815 -0.510518 -0.100000
v -0.142347 -0.506622 -0.100000
v -0.138125 -0.502125 -0.100000
v -0.134258 -0.496982 -0.100000
v -0.130852 -0.491148 -0.100000
v -0.128016 -0.484578 -0.100000
v -0.125856 -0.477227 -0.100000
v -0.124482 -0.469049 -0.100000
v -0.124000 -0.460000 -0.100000
v -0.123000 0.231000 -0.100000
v -0.124000 0.232000 -0.100000
v -0.081332 0.238535 -0.100000
v -0.038074 0.245616 -0.100000
v 0.005406 0.253203 -0.100000
v 0.048741 0.261259 -0.100000
v 0.091561 0.269746 -0.100000
v 0.133500 0.278625 -0.100000
v 0.174189 0.287858 -0.100000
v 0.213259 0.297407 -0.100000
v 0.250344 0.307234 -0.100000
v 0.285074 0.317301 -0.100000
v 0.317082 0.327569 -0.100000
v 0.346000 0.338000 -0.100000
v 0.410000 0.278000 -0.100000
v 0.396295 0.273292 -0.100000
v 0.382195 0.268667 -0.100000
v 0.367719 0.264125 -0.100000
v 0.352889 0.259667 -0.100000
v 0.337726 0.255292 -0.100000
v 0.322250 0.251000 -0.100000
v 0.306483 0.246792 -0.100000
v 0.290444 0.242667 -0.100000
v 0.274156 0.238625 -0.100000
v 0.257639 0.234667 -0.100000
v 0.240913 0.230792 -0.100000
v 0.224000 0.227000 -0.100000
v 0.224812 0.203105 -0.100000
v 0.225745 0.179426 -0.100000
v 0.226797 0.155969 -0.100000
v 0.227963 0.132741 -0.100000
v 0.229240 0.109749 -0.100000
v 0.230625 0.087000 -0.100000
v 0.232114 0.064501 -0.100000
v 0.233704 0.042259 -0.100000
v 0.235391 0.020281 -0.100000
v 0.237171 -0.001426 -0.100000
v 0.239042 -0.022855 -0.100000
v 0.241000 -0.044000 -0.100000
v 0.451000 -0.044000 -0.100000
v 0.451000 -0.115000 -0.100000
v 0.249000 -0.115000 -0.100000
v 0.255641 -0.167539 -0.100000
v 0.263046 -0.216977 -0.100000
v 0.271188 -0.263047 -0.100000
v 0.280037 -0.305481 -0.100000
v 0.289567 -0.344013 -0.100000
v 0.299750 -0.378375 -0.100000
v 0.310558 -0.408299 -0.100000
v 0.321963 -0.433518 -0.100000
v 0.333938 -0.453766 -0.100000
v 0.346454 -0.468773 -0.100000
v 0.359484 -0.478274 -0.100000
v 0.373000 -0.482000 -0.100000
v 0.377625 -0.481153 -0.100000
v 0.382000 -0.478139 -0.100000
v 0.386125 -0.473000 -0.100000
v 0.390000 -0.465778 -0.100000
v 0.393625 -0.456514 -0.100000
v 0.397000 -0.445250 -0.100000
v 0.400125 -0.432028 -0.100000
v 0.403000 -0.416889 -0.100000
v 0.405625 -0.399875 -0.100000
v 0.408000 -0.381028 -0.100000
v 0.410125 -0.360389 -0.100000
v 0.412000 -0.338000 -0.100000
v 0.415565 -0.341574 -0.100000
v 0.419685 -0.345259 -0.100000
v 0.424250 -0.349000 -0.100000
v 0.429148 -0.352741 -0.100000
v 0.434269 -0.356426 -0.100000
v 0.439500 -0.360000 -0.100000
v 0.444732 -0.363407 -0.100000
v 0.449852 -0.366593 -0.100000
v 0.454750 -0.369500 -0.100000
v 0.459315 -0.372074 -0.100000
v 0.463435 -0.374259 -0.100000
v 0.467000 -0.376000 -0.100000
v 0.461924 -0.411786 -0.100000
v 0.456222 -0.443292 -0.100000
v 0.449938 -0.470734 -0.100000
v 0.443111 -0.494333 -0.100000
v 0.435785 -0.514307 -0.100000
v 0.428000 -0.530875 -0.100000
v 0.419799 -0.544255 -0.100000
v 0.411222 -0.554667 -0.100000
v 0.402313 -0.562328 -0.100000
v 0.393111 -0.567458 -0.100000
v 0.383660 -0.570276 -0.100000
v 0.374000 -0.571000 -0.100000
v 0.347780 -0.566764 -0.100000
v 0.323569 -0.555278 -0.100000
v 0.301297 -0.536875 -0.100000
v 0.280889 -0.511889 -0.100000
v 0.262273 -0.480653 -0.100000
v 0.245375 -0.443500 -0.100000
v 0.230123 -0.400764 -0.100000
v 0.216444 -0.352778 -0.100000
v 0.204266 -0.299875 -0.100000
v 0.193514 -0.242389 -0.100000
v 0.184116 -0.180653 -0.100000
v 0.176000 -0.115000 -0.100000
v -0.053000 -0.115000 -0.100000
v -0.053000 -0.482000 -0.100000
v 0.088000 -0.446000 -0.100000
v 0.087791 -0.450944 -0.100000
v 0.087662 -0.456222 -0.100000
v 0.087609 -0.461750 -0.100000
v 0.087630 -0.467444 -0.100000
v 0.087719 -0.473222 -0.100000
v 0.087875 -0.479000 -0.100000
v 0.088093 -0.484694 -0.100000
v 0.088370 -0.490222 -0.100000
v 0.088703 -0.495500 -0.100000
v 0.089088 -0.500444 -0.100000
v 0.089521 -0.504972 -0.100000
v 0.090000 -0.509000 -0.100000
v 0.047416 -0.521399 -0.100000
v 0.010824 -0.532194 -0.100000
v -0.020281 -0.541531 -0.100000
v -0.046407 -0.549556 -0.100000
v -0.068061 -0.556413 -0.100000
v -0.085750 -0.562250 -0.100000
v -0.099980 -0.567212 -0.100000
v -0.111259 -0.571444 -0.100000
v -0.120094 -0.575094 -0.100000
v -0.126991 -0.578306 -0.100000
v -0.132457 -0.581226 -0.100000
v -0.137000 -0.584000 -0.100000
v -0.138181 -0.579266 -0.100000
v -0.139699 -0.574125 -0.100000
v -0.141516 -0.568672 -0.100000
v -0.143593 -0.563000 -0.100000
v -0.145892 -0.557203 -0.100000
v -0.148375 -0.551375 -0.100000
v -0.151004 -0.545609 -0.100000
v -0.153741 -0.540000 -0.100000
v -0.156547 -0.534641 -0.100000
v -0.159384 -0.529625 -0.100000
v -0.162215 -0.525047 -0.100000
v -0.165000 -0.521000 -0.100000
v 0.135961 0.208542 -0.100000
v 0.118852 0.205167 -0.100000
v 0.101688 0.201875 -0.100000
v 0.084482 0.198667 -0.100000
v 0.067248 0.195542 -0.100000
v 0.050000 0.192500 -0.100000
v 0.032752 0.189542 -0.100000
v 0.015519 0.186667 -0.100000
v -0.001687 0.183875 -0.100000
v -0.018852 0.181167 -0.100000
v -0.035961 0.178542 -0.100000
v -0.053000 0.176000 -0.100000
v -0.053000 -0.044000 -0.100000
v 0.169000 -0.044000 -0.100000
v 0.167291 -0.023876 -0.100000
v 0.165662 -0.003509 -0.100000
v 0.164109 0.017094 -0.100000
v 0.162630 0.037926 -0.100000
v 0.161219 0.058980 -0.100000
v 0.159875 0.080250 -0.100000
v 0.158593 0.101728 -0.100000
v 0.157370 0.123407 -0.100000
v 0.156203 0.145281 -0.100000
v 0.155088 0.167343 -0.100000
v 0.154021 0.189585 -0.100000
v 0.153000 0.212000 -0.100000
v 0.141609 -0.367407 -0.100000
v 0.141609 -0.367407 0.100000
v 0.150370 -0.383509 -0.100000
v 0.150370 -0.383509 0.100000
v 0.159188 -0.400125 -0.100000
v 0.159188 -0.400125 0.100000
v 0.167963 -0.417074 -0.100000
v 0.167963 -0.417074 0.100000
v 0.176600 -0.434176 -0.100000
v 0.176600 -0.434176 0.100000
v 0.185000 -0.451250 -0.100000
v 0.185000 -0.451250 0.100000
v 0.193067 -0.468116 -0.100000
v 0.193067 -0.468116 0.100000
v 0.200704 -0.484593 -0.100000
v 0.200704 -0.484593 0.100000
v 0.207813 -0.500500 -0.100000
v 0.207813 -0.500500 0.100000
v 0.214296 -0.515657 -0.100000
v 0.214296 -0.515657 0.100000
v 0.220058 -0.529884 -0.100000
v 0.220058 -0.529884 0.100000
v 0.225000 -0.543000 -0.100000
v 0.225000 -0.543000 0.100000
v 0.166000 -0.564000 -0.100000
v 0.166000 -0.564000 0.100000
v 0.161767 -0.550844 -0.100000
v 0.161767 -0.550844 0.100000
v 0.156634 -0.536500 -0.100000
v 0.156634 -0.536500 0.100000
v 0.150703 -0.521156 -0.100000
v 0.150703 -0.521156 0.100000
v 0.144074 -0.505000 -0.100000
v 0.144074 -0.505000 0.100000
v 0.136848 -0.488219 -0.100000
v 0.136848 -0.488219 0.100000
v 0.129125 -0.471000 -0.100000
v 0.129125 -0.471000 0.100000
v 0.121006 -0.453531 -0.100000
v 0.121006 -0.453531 0.100000
v 0.112593 -0.436000 -0.100000
v 0.112593 -0.436000 0.100000
v 0.103984 -0.418594 -0.100000
v 0.103984 -0.418594 0.100000
v 0.095282 -0.401500 -0.100000
v 0.095282 -0.401500 0.100000
v 0.086587 -0.384906 -0.100000
v 0.086587 -0.384906 0.100000
v 0.078000 -0.369000 -0.100000
v 0.078000 -0.369000 0.100000
v 0.133000 -0.352000 -0.100000
v 0.133000 -0.352000 0.100000
v -0.170874 0.296982 -0.100000
v -0.170874 0.296982 0.100000
v -0.177991 0.278940 -0.100000
v -0.177991 0.278940 0.100000
v -0.185344 0.260891 -0.100000
v -0.185344 0.260891 0.100000
v -0.192926 0.242852 -0.100000
v -0.192926 0.242852 0.100000
v -0.200730 0.224841 -0.100000
v -0.200730 0.224841 0.100000
v -0.208750 0.206875 -0.100000
v -0.208750 0.206875 0.100000
v -0.216978 0.188972 -0.100000
v -0.216978 0.188972 0.100000
v -0.225407 0.171148 -0.100000
v -0.225407 0.171148 0.100000
v -0.234031 0.153422 -0.100000
v -0.234031 0.153422 0.100000
v -0.242843 0.135810 -0.100000
v -0.242843 0.135810 0.100000
v -0.251834 0.118330 -0.100000
v -0.251834 0.118330 0.100000
v -0.261000 0.101000 -0.100000
v -0.261000 0.101000 0.100000
v -0.261000 -0.578000 -0.100000
v -0.261000 -0.578000 0.100000
v -0.332000 -0.578000 -0.100000
v -0.332000 -0.578000 0.100000
v -0.332000 -0.016000 -0.100000
v -0.332000 -0.016000 0.100000
v -0.340291 -0.028395 -0.100000
v -0.340291 -0.028395 0.100000
v -0.348662 -0.040574 -0.100000
v -0.348662 -0.040574 0.100000
v -0.357109 -0.052531 -0.100000
v -0.357109 -0.052531 0.100000
v -0.365630 -0.064259 -0.100000
v -0.365630 -0.064259 0.100000
v -0.374219 -0.075751 -0.100000
v -0.374219 -0.075751 0.100000
v -0.382875 -0.087000 -0.100000
v -0.382875 -0.087000 0.100000
v -0.391593 -0.097999 -0.100000
v -0.391593 -0.097999 0.100000
v -0.400370 -0.108741 -0.100000
v -0.400370 -0.108741 0.100000
v -0.409203 -0.119219 -0.100000
v -0.409203 -0.119219 0.100000
v -0.418088 -0.129426 -0.100000
v -0.418088 -0.129426 0.100000
v -0.427021 -0.139355 -0.100000
v -0.427021 -0.139355 0.100000
v -0.436000 -0.149000 -0.100000
v -0.436000 -0.149000 0.100000
v -0.438030 -0.144068 -0.100000
v -0.438030 -0.144068 0.100000
v -0.440569 -0.138375 -0.100000
v -0.440569 -0.138375 0.100000
v -0.443547 -0.132078 -0.100000
v -0.443547 -0.132078 0.100000
v -0.446889 -0.125333 -0.100000
v -0.446889 -0.125333 0.100000
v -0.450523 -0.118297 -0.100000
v -0.450523 -0.118297 0.100000
v -0.454375 -0.111125 -0.100000
v -0.454375 -0.111125 0.100000
v -0.458373 -0.103974 -0.100000
v -0.458373 -0.103974 0.100000
v -0.462444 -0.097000 -0.100000
v -0.462444 -0.097000 0.100000
v -0.466516 -0.090359 -0.100000
v -0.466516 -0.090359 0.100000
v -0.470514 -0.084208 -0.100000
v -0.470514 -0.084208 0.100000
v -0.474366 -0.078703 -0.100000
v -0.474366 -0.078703 0.100000
v -0.478000 -0.074000 -0.100000
v -0.478000 -0.074000 0.100000
v -0.453892 -0.047905 -0.100000
v -0.453892 -0.047905 0.100000
v -0.430139 -0.019741 -0.100000
v -0.430139 -0.019741 0.100000
v -0.406844 0.010312 -0.100000
v -0.406844 0.010312 0.100000
v -0.384111 0.042074 -0.100000
v -0.384111 0.042074 0.100000
v -0.362045 0.075363 -0.100000
v -0.362045 0.075363 0.100000
v -0.340750 0.110000 -0.100000
v -0.340750 0.110000 0.100000
v -0.320330 0.145803 -0.100000
v -0.320330 0.145803 0.100000
v -0.300889 0.182593 -0.100000
v -0.300889 0.182593 0.100000
v -0.282531 0.220188 -0.100000
v -0.282531 0.220188 0.100000
v -0.265361 0.258407 -0.100000
v -0.265361 0.258407 0.100000
v -0.249483 0.297072 -0.100000
v -0.249483 0.297072 0.100000
v -0.235000 0.336000 -0.100000
v -0.235000 0.336000 0.100000
v -0.164000 0.315000 -0.100000
v -0.164000 0.315000 0.100000
v -0.160622 -0.519055 -0.100000
v -0.160622 -0.519055 0.100000
v -0.156060 -0.516690 -0.100000
v -0.156060 -0.516690 0.100000
v -0.151422 -0.513859 -0.100000
v -0.151422 -0.513859 0.100000
v -0.146815 -0.510518 -0.100000
v -0.146815 -0.510518 0.100000
v -0.142347 -0.506622 -0.100000
v -0.142347 -0.506622 0.100000
v -0.138125 -0.502125 -0.100000
v -0.138125 -0.502125 0.100000
v -0.134258 -0.496982 -0.100000
v -0.134257 -0.496982 0.100000
v -0.130852 -0.491148 -0.100000
v -0.130852 -0.491148 0.100000
v -0.128016 -0.484578 -0.100000
v -0.128016 -0.484578 0.100000
v -0.125856 -0.477227 -0.100000
v -0.125856 -0.477227 0.100000
v -0.124482 -0.469049 -0.100000
v -0.124482 -0.469049 0.100000
v -0.124000 -0.460000 -0.100000
v -0.124000 -0.460000 0.100000
v -0.123000 0.231000 -0.100000
v -0.123000 0.231000 0.100000
v -0.124000 0.232000 -0.100000
v -0.124000 0.232000 0.100000
v -0.081332 0.238535 -0.100000
v -0.081332 0.238535 0.100000
v -0.038074 0.245616 -0.100000
v -0.038074 0.245616 0.100000
v 0.005406 0.253203 -0.100000
v 0.005406 0.253203 0.100000
v 0.048741 0.261259 -0.100000
v 0.048741 0.261259 0.100000
v 0.091561 0.269746 -0.100000
v 0.091561 0.269746 0.100000
v 0.133500 0.278625 -0.100000
v 0.133500 0.278625 0.100000
v 0.174189 0.287858 -0.100000
v 0.174189 0.287858 0.100000
v 0.213259 0.297407 -0.100000
v 0.213259 0.297407 0.100000
v 0.250344 0.307234 -0.100000
v 0.250344 0.307234 0.100000
v 0.285074 0.317301 -0.100000
v 0.285074 0.317301 0.100000
v 0.317082 0.327569 -0.100000
v 0.317082 0.327569 0.100000
v 0.346000 0.338000 -0.100000
v 0.346000 0.338000 0.100000
v 0.410000 0.278000 -0.100000
v 0.410000 0.278000 0.100000
v 0.396295 0.273292 -0.100000
v 0.396295 0.273292 0.100000
v 0.382195 0.268667 -0.100000
v 0.382195 0.268667 0.100000
v 0.367719 0.264125 -0.100000
v 0.367719 0.264125 0.100000
v 0.352889 0.259667 -0.100000
v 0.352889 0.259667 0.100000
v 0.337726 0.255292 -0.100000
v 0.337726 0.255292 0.100000
v 0.322250 0.251000 -0.100000
v 0.322250 0.251000 0.100000
v 0.306483 0.246792 -0.100000
v 0.306483 0.246792 0.100000
v 0.290444 0.242667 -0.100000
v 0.290444 0.242667 0.100000
v 0.274156 0.238625 -0.100000
v 0.274156 0.238625 0.100000
v 0.257639 0.234667 -0.100000
v 0.257639 0.234667 0.100000
v 0.240913 0.230792 -0.100000
v 0.240913 0.230792 0.100000
v 0.224000 0.227000 -0.100000
v 0.224000 0.227000 0.100000
v 0.224812 0.203105 -0.100000
v 0.224812 0.203105 0.100000
v 0.225745 0.179426 -0.100000
v 0.225745 0.179426 0.100000
v 0.226797 0.155969 -0.100000
v 0.226797 0.155969 0.100000
v 0.227963 0.132741 -0.100000
v 0.227963 0.132741 0.100000
v 0.229240 0.109749 -0.100000
v 0.229240 0.109749 0.100000
v 0.230625 0.087000 -0.100000
v 0.230625 0.087000 0.100000
v 0.232114 0.064501 -0.100000
v 0.232114 0.064501 0.100000
v 0.233704 0.042259 -0.100000
v 0.233704 0.042259 0.100000
v 0.235391 0.020281 -0.100000
v 0.235391 0.020281 0.100000
v 0.237171 -0.001426 -0.100000
v 0.237171 -0.001426 0.100000
v 0.239042 -0.022855 -0.100000
v 0.239042 -0.022855 0.100000
v 0.241000 -0.044000 -0.100000
v 0.241000 -0.044000 0.100000
v 0.451000 -0.044000 -0.100000
v 0.451000 -0.044000 0.100000
v 0.451000 -0.115000 -0.100000
v 0.451000 -0.115000 0.100000
v 0.249000 -0.115000 -0.100000
v 0.249000 -0.115000 0.100000
v 0.255641 -0.167539 -0.100000
v 0.255641 -0.167539 0.100000
v 0.263046 -0.216977 -0.100000
v 0.263046 -0.216977 0.100000
v 0.271188 -0.263047 -0.100000
v 0.271188 -0.263047 0.100000
v 0.280037 -0.305481 -0.100000
v 0.280037 -0.305481 0.100000
v 0.289567 -0.344013 -0.100000
v 0.289567 -0.344013 0.100000
v 0.299750 -0.378375 -0.100000
v 0.299750 -0.378375 0.100000
v 0.310558 -0.408299 -0.100000
v 0.310558 -0.408299 0.100000
v 0.321963 -0.433518 -0.100000
v 0.321963 -0.433518 0.100000
v 0.333938 -0.453766 -0.100000
v 0.333938 -0.453766 0.100000
v 0.346454 -0.468773 -0.100000
v 0.346454 -0.468773 0.100000
v 0.359484 -0.478274 -0.100000
v 0.359484 -0.478274 0.100000
v 0.373000 -0.482000 -0.100000
v 0.373000 -0.482000 0.100000
v 0.377625 -0.481153 -0.100000
v 0.377625 -0.481153 0.100000
v 0.382000 -0.478139 -0.100000
v 0.382000 -0.478139 0.100000
v 0.386125 -0.473000 -0.100000
v 0.386125 -0.473000 0.100000
v 0.390000 -0.465778 -0.100000
v 0.390000 -0.465778 0.100000
v 0.393625 -0.456514 -0.100000
v 0.393625 -0.456514 0.100000
v 0.397000 -0.445250 -0.100000
v 0.397000 -0.445250 0.100000
v 0.400125 -0.432028 -0.100000
v 0.400125 -0.432028 0.100000
v 0.403000 -0.416889 -0.100000
v 0.403000 -0.416889 0.100000
v 0.405625 -0.399875 -0.100000
v 0.405625 -0.399875 0.100000
v 0.408000 -0.381028 -0.100000
v 0.408000 -0.381028 0.100000
v 0.410125 -0.360389 -0.100000
v 0.410125 -0.360389 0.100000
v 0.412000 -0.338000 -0.100000
v 0.412000 -0.338000 0.100000
v 0.415565 -0.341574 -0.100000
v 0.415565 -0.341574 0.100000
v 0.419685 -0.345259 -0.100000
v 0.419685 -0.345259 0.100000
v 0.424250 -0.349000 -0.100000
v 0.424250 -0.349000 0.100000
v 0.429148 -0.352741 -0.100000
v 0.429148 -0.352741 0.100000
v 0.434269 -0.356426 -0.100000
v 0.434269 -0.356426 0.100000
v 0.439500 -0.360000 -0.100000
v 0.439500 -0.360000 0.100000
v 0.444732 -0.363407 -0.100000
v 0.444732 -0.363407 0.100000
v 0.449852 -0.366593 -0.100000
v 0.449852 -0.366593 0.100000
v 0.454750 -0.369500 -0.100000
v 0.454750 -0.369500 0.100000
v 0.459315 -0.372074 -0.100000
v 0.459315 -0.372074 0.100000
v 0.463435 -0.374259 -0.100000
v 0.463435 -0.374259 0.100000
v 0.467000 -0.376000 -0.100000
v 0.467000 -0.376000 0.100000
v 0.461924 -0.411786 -0.100000
v 0.461924 -0.411786 0.100000
v 0.456222 -0.443292 -0.100000
v 0.456222 -0.443292 0.100000
v 0.449938 -0.470734 -0.100000
v 0.449938 -0.470734 0.100000
v 0.443111 -0.494333 -0.100000
v 0.443111 -0.494333 0.100000
v 0.435785 -0.514307 -0.100000
v 0.435785 -0.514307 0.100000
v 0.428000 -0.530875 -0.100000
v 0.428000 -0.530875 0.100000
v 0.419799 -0.544255 -0.100000
v 0.419799 -0.544255 0.100000
v 0.411222 -0.554667 -0.100000
v 0.411222 -0.554667 0.100000
v 0.402313 -0.562328 -0.100000
v 0.402313 -0.562328 0.100000
v 0.393111 -0.567458 -0.100000
v 0.393111 -0.567458 0.100000
v 0.383660 -0.570276 -0.100000
v 0.383660 -0.570276 0.100000
v 0.374000 -0.571000 -0.100000
v 0.374000 -0.571000 0.100000
v 0.347780 -0.566764 -0.100000
v 0.347780 -0.566764 0.100000
v 0.323569 -0.555278 -0.100000
v 0.323569 -0.555278 0.100000
v 0.301297 -0.536875 -0.100000
v 0.301297 -0.536875 0.100000
v 0.280889 -0.511889 -0.100000
v 0.280889 -0.511889 0.100000
v 0.262273 -0.480653 -0.100000
v 0.262273 -0.480653 0.100000
v 0.245375 -0.443500 -0.100000
v 0.245375 -0.443500 0.100000
v 0.230123 -0.400764 -0.100000
v 0.230123 -0.400764 0.100000
v 0.216444 -0.352778 -0.100000
v 0.216445 -0.352778 0.100000
v 0.204266 -0.299875 -0.100000
v 0.204266 -0.299875 0.100000
v 0.193514 -0.242389 -0.100000
v 0.193514 -0.242389 0.100000
v 0.184116 -0.180653 -0.100000
v 0.184116 -0.180653 0.100000
v 0.176000 -0.115000 -0.100000
v 0.176000 -0.115000 0.100000
v -0.053000 -0.115000 -0.100000
v -0.053000 -0.115000 0.100000
v -0.053000 -0.482000 -0.100000
v -0.053000 -0.482000 0.100000
v 0.088000 -0.446000 -0.100000
v 0.088000 -0.446000 0.100000
v 0.087791 -0.450944 -0.100000
v 0.087791 -0.450944 0.100000
v 0.087662 -0.456222 -0.100000
v 0.087662 -0.456222 0.100000
v 0.087609 -0.461750 -0.100000
v 0.087609 -0.461750 0.100000
v 0.087630 -0.467444 -0.100000
v 0.087630 -0.467444 0.100000
v 0.087719 -0.473222 -0.100000
v 0.087719 -0.473222 0.100000
v 0.087875 -0.479000 -0.100000
v 0.087875 -0.479000 0.100000
v 0.088093 -0.484694 -0.100000
v 0.088093 -0.484694 0.100000
v 0.088370 -0.490222 -0.100000
v 0.088370 -0.490222 0.100000
v 0.088703 -0.495500 -0.100000
v 0.088703 -0.495500 0.100000
v 0.089088 -0.500444 -0.100000
v 0.089088 -0.500444 0.100000
v 0.089521 -0.504972 -0.100000
v 0.089521 -0.504972 0.100000
v 0.090000 -0.509000 -0.100000
v 0.090000 -0.509000 0.100000
v 0.047416 -0.521399 -0.100000
v 0.047416 -0.521399 0.100000
v 0.010824 -0.532194 -0.100000
v 0.010824 -0.532194 0.100000
v -0.020281 -0.541531 -0.100000
v -0.020281 -0.541531 0.100000
v -0.046407 -0.549556 -0.100000
v -0.046407 -0.549556 0.100000
v -0.068061 -0.556413 -0.100000
v -0.068061 -0.556413 0.100000
v -0.085750 -0.562250 -0.100000
v -0.085750 -0.562250 0.100000
v -0.099980 -0.567212 -0.100000
v -0.099980 -0.567212 0.100000
v -0.111259 -0.571444 -0.100000
v -0.111259 -0.571444 0.100000
v -0.120094 -0.575094 -0.100000
v -0.120094 -0.575094 0.100000
v -0.126991 -0.578306 -0.100000
v -0.126991 -0.578306 0.100000
v -0.132457 -0.581226 -0.100000
v -0.132457 -0.581226 0.100000
v -0.137000 -0.584000 -0.100000
v -0.137000 -0.584000 0.100000
v -0.138181 -0.579266 -0.100000
v -0.138181 -0.579266 0.100000
v -0.139699 -0.574125 -0.100000
v -0.139699 -0.574125 0.100000
v -0.141516 -0.568672 -0.100000
v -0.141516 -0.568672 0.100000
v -0.143593 -0.563000 -0.100000
v -0.143593 -0.563000 0.100000
v -0.145892 -0.557203 -0.100000
v -0.145892 -0.557203 0.100000
v -0.148375 -0.551375 -0.100000
v -0.148375 -0.551375 0.100000
v -0.151004 -0.545609 -0.100000
v -0.151004 -0.545609 0.100000
v -0.153741 -0.540000 -0.100000
v -0.153741 -0.540000 0.100000
v -0.156547 -0.534641 -0.100000
v -0.156547 -0.534641 0.100000
v -0.159384 -0.529625 -0.100000
v -0.159384 -0.529625 0.100000
v -0.162215 -0.525047 -0.100000
v -0.162215 -0.525047 0.100000
v -0.165000 -0.521000 -0.100000
v -0.165000 -0.521000 0.100000
v 0.135961 0.208542 -0.100000
v 0.135961 0.208542 0.100000
v 0.118852 0.205167 -0.100000
v 0.118852 0.205167 0.100000
v 0.101688 0.201875 -0.100000
v 0.101688 0.201875 0.100000
v 0.084482 0.198667 -0.100000
v 0.084482 0.198667 0.100000
v 0.067248 0.195542 -0.100000
v 0.067248 0.195542 0.100000
v 0.050000 0.192500 -0.100000
v 0.050000 0.192500 0.100000
v 0.032752 0.189542 -0.100000
v 0.032752 0.189542 0.100000
v 0.015519 0.186667 -0.100000
v 0.015519 0.186667 0.100000
v -0.001687 0.183875 -0.100000
v -0.001687 0.183875 0.100000
v -0.018852 0.181167 -0.100000
v -0.018852 0.181167 0.100000
v -0.035961 0.178542 -0.100000
v -0.035961 0.178542 0.100000
v -0.053000 0.176000 -0.100000
v -0.053000 0.176000 0.100000
v -0.053000 -0.044000 -0.100000
v -0.053000 -0.044000 0.100000
v 0.169000 -0.044000 -0.100000
v 0.169000 -0.044000 0.100000
v 0.167291 -0.023876 -0.100000
v 0.167291 -0.023876 0.100000
v 0.165662 -0.003509 -0.100000
v 0.165662 -0.003509 0.100000
v 0.164109 0.017094 -0.100000
v 0.164109 0.017094 0.100000
v 0.162630 0.037926 -0.100000
v 0.162630 0.037926 0.100000
v 0.161219 0.058980 -0.100000
v 0.161219 0.058980 0.100000
v 0.159875 0.080250 -0.100000
v 0.159875 0.080250 0.100000
v 0.158593 0.101728 -0.100000
v 0.158593 0.101728 0.100000
v 0.157370 0.123407 -0.100000
v 0.157370 0.123407 0.100000
v 0.156203 0.145281 -0.100000
v 0.156203 0.145281 0.100000
v 0.155088 0.167343 -0.100000
v 0.155088 0.167343 0.100000
v 0.154021 0.189585 -0.100000
v 0.154021 0.189585 0.100000
v 0.153000 0.212000 -0.100000
v 0.153000 0.212000 0.100000
vn -0.0000 -0.0000 1.0000
vn -0.0000 -0.0000 -1.0000
vn 0.8809 0.4734 -0.0000
vn 0.8757 0.4829 -0.0000
vn 0.8857 0.4643 -0.0000
vn 0.8903 0.4553 -0.0000
vn 0.8950 0.4461 -0.0000
vn 0.8997 0.4365 -0.0000
vn 0.9047 0.4260 -0.0000
vn 0.9102 0.4143 -0.0000
vn 0.9162 0.4007 -0.0000
vn 0.9232 0.3843 -0.0000
vn 0.9314 0.3640 -0.0000
vn 0.9072 -0.4207 -0.0000
vn -0.4429 -0.8966 -0.0000
vn -0.9469 -0.3216 -0.0000
vn -0.9372 -0.3488 -0.0000
vn -0.9290 -0.3701 -0.0000
vn -0.9218 -0.3876 -0.0000
vn -0.9155 -0.4024 -0.0000
vn -0.9097 -0.4154 -0.0000
vn -0.9042 -0.4271 -0.0000
vn -0.8990 -0.4380 -0.0000
vn -0.8938 -0.4485 -0.0000
vn -0.8885 -0.4589 -0.0000
vn -0.8829 -0.4696 -0.0000
vn -0.9257 0.3783 -0.0000
vn 0.3716 0.9284 -0.0000
vn 0.9282 -0.3721 -0.0000
vn 0.9323 -0.3617 -0.0000
vn 0.9240 -0.3824 -0.0000
vn 0.9197 -0.3925 -0.0000
vn 0.9154 -0.4026 -0.0000
vn 0.9109 -0.4126 -0.0000
vn 0.9063 -0.4226 -0.0000
vn 0.9016 -0.4325 -0.0000
vn 0.8968 -0.4425 -0.0000
vn 0.8918 -0.4524 -0.0000
vn 0.8866 -0.4625 -0.0000
vn 0.9706 -0.2408 -0.0000
vn 0.7071 -0.7071 -0.0000
vn 0.9706 -0.2409 -0.0000
vn -0.7071 -0.7071 -0.0000
vn -0.2904 -0.9569 -0.0000
vn 0.8277 -0.5612 -0.0000
vn -0.2905 -0.9569 -0.0000
vn 0.8204 -0.5717 -0.0000
vn 0.8129 -0.5824 -0.0000
vn 0.8050 -0.5932 -0.0000
vn 0.7968 -0.6043 -0.0000
vn 0.7881 -0.6155 -0.0000
vn 0.7790 -0.6270 -0.0000
vn 0.7695 -0.6387 -0.0000
vn 0.7595 -0.6506 -0.0000
vn 0.7489 -0.6627 -0.0000
vn 0.7377 -0.6751 -0.0000
vn -0.1787 -0.9839 -0.0000
vn -0.9191 -0.3940 -0.0000
vn -0.9087 -0.4175 -0.0000
vn -0.9001 -0.4357 -0.0000
vn -0.8923 -0.4514 -0.0000
vn -0.8848 -0.4660 -0.0000
vn -0.8769 -0.4806 -0.0000
vn -0.8683 -0.4961 -0.0000
vn -0.8581 -0.5134 -0.0000
vn -0.8456 -0.5339 -0.0000
vn -0.8290 -0.5592 -0.0000
vn -0.8056 -0.5925 -0.0000
vn -0.8290 -0.5593 -0.0000
vn -0.9990 0.0440 -0.0000
vn -0.8055 -0.5925 -0.0000
vn -0.7497 0.6618 -0.0000
vn -0.7776 0.6288 -0.0000
vn -0.8019 0.5974 -0.0000
vn -0.8235 0.5673 -0.0000
vn -0.8428 0.5382 -0.0000
vn -0.8604 0.5097 -0.0000
vn -0.8765 0.4814 -0.0000
vn -0.8915 0.4531 -0.0000
vn -0.9055 0.4243 -0.0000
vn -0.9187 0.3949 -0.0000
vn -0.9313 0.3643 -0.0000
vn -0.4471 0.8945 -0.0000
vn 0.8963 0.4434 -0.0000
vn -0.4909 0.8712 -0.0000
vn -0.4333 0.9012 -0.0000
vn -0.5544 0.8322 -0.0000
vn -0.6228 0.7824 -0.0000
vn -0.6940 0.7200 -0.0000
vn -0.7653 0.6437 -0.0000
vn -0.6940 0.7199 -0.0000
vn -0.8328 0.5535 -0.0000
vn -0.8925 0.4511 -0.0000
vn -0.9405 0.3397 -0.0000
vn -0.9745 0.2242 -0.0000
vn -0.9940 0.1096 -0.0000
vn -0.9996 0.0273 -0.0000
vn -0.9242 -0.3820 -0.0000
vn -0.9503 0.3114 -0.0000
vn -0.1565 0.9877 -0.0000
vn -0.1667 0.9860 -0.0000
vn -0.1773 0.9841 -0.0000
vn -0.1886 0.9821 -0.0000
vn -0.2008 0.9796 -0.0000
vn -0.2142 0.9768 -0.0000
vn -0.2294 0.9733 -0.0000
vn -0.2468 0.9691 -0.0000
vn -0.2673 0.9636 -0.0000
vn -0.2920 0.9564 -0.0000
vn -0.3224 0.9466 -0.0000
vn 0.2021 0.9794 -0.0000
vn 0.9778 -0.2096 -0.0000
vn 0.3183 -0.9480 -0.0000
vn 0.3055 -0.9522 -0.0000
vn 0.2936 -0.9559 -0.0000
vn 0.2826 -0.9592 -0.0000
vn 0.2722 -0.9622 -0.0000
vn 0.2626 -0.9649 -0.0000
vn 0.2535 -0.9673 -0.0000
vn 0.2450 -0.9695 -0.0000
vn 0.2369 -0.9715 -0.0000
vn 0.2294 -0.9733 -0.0000
vn 0.2222 -0.9750 -0.0000
vn 0.7911 -0.6117 -0.0000
vn 0.9993 0.0367 -0.0000
vn 0.7911 -0.6116 -0.0000
vn 0.9991 0.0421 -0.0000
vn 0.9989 0.0475 -0.0000
vn 0.9986 0.0528 -0.0000
vn 0.9983 0.0581 -0.0000
vn 0.9980 0.0634 -0.0000
vn 0.9976 0.0687 -0.0000
vn 0.9973 0.0739 -0.0000
vn 0.9969 0.0791 -0.0000
vn 0.9964 0.0844 -0.0000
vn 0.9960 0.0896 -0.0000
vn 0.6737 0.7390 -0.0000
vn 0.7071 0.7071 -0.0000
vn 0.7501 -0.6613 -0.0000
vn 0.9906 0.1368 -0.0000
vn 0.9869 0.1611 -0.0000
vn 0.9820 0.1891 -0.0000
vn 0.9750 0.2222 -0.0000
vn 0.9650 0.2622 -0.0000
vn 0.9501 0.3120 -0.0000
vn 0.9266 0.3762 -0.0000
vn 0.8873 0.4612 -0.0000
vn 0.8170 0.5766 -0.0000
vn 0.6837 0.7298 -0.0000
vn 0.4345 0.9007 -0.0000
vn 0.0439 0.9990 -0.0000
vn -0.3822 0.9241 -0.0000
vn -0.6808 0.7325 -0.0000
vn -0.8340 0.5517 -0.0000
vn -0.9078 0.4193 -0.0000
vn -0.9454 0.3260 -0.0000
vn -0.9660 0.2586 -0.0000
vn -0.9781 0.2083 -0.0000
vn -0.9855 0.1696 -0.0000
vn -0.9903 0.1388 -0.0000
vn -0.9935 0.1137 -0.0000
vn -0.9957 0.0929 -0.0000
vn -0.3432 0.9393 -0.0000
vn 0.6876 0.7261 -0.0000
vn -0.3431 0.9393 -0.0000
vn 0.6504 0.7596 -0.0000
vn 0.6205 0.7842 -0.0000
vn 0.5956 0.8033 -0.0000
vn 0.5742 0.8187 -0.0000
vn 0.5550 0.8319 -0.0000
vn 0.5370 0.8436 -0.0000
vn 0.5193 0.8546 -0.0000
vn 0.5008 0.8655 -0.0000
vn 0.4799 0.8773 -0.0000
vn 0.4537 0.8911 -0.0000
vn 0.8834 0.4687 -0.0000
vn 0.9872 -0.1593 -0.0000
vn 0.9797 -0.2007 -0.0000
vn 0.9681 -0.2507 -0.0000
vn 0.9503 -0.3113 -0.0000
vn 0.9228 -0.3852 -0.0000
vn 0.8802 -0.4747 -0.0000
vn 0.8142 -0.5806 -0.0000
vn 0.7145 -0.6996 -0.0000
vn 0.5724 -0.8200 -0.0000
vn 0.3887 -0.9214 -0.0000
vn 0.1813 -0.9834 -0.0000
vn -0.0427 -0.9991 -0.0000
vn -0.2970 -0.9549 -0.0000
vn -0.5369 -0.8436 -0.0000
vn -0.7091 -0.7051 -0.0000
vn -0.8190 -0.5738 -0.0000
vn -0.8860 -0.4637 -0.0000
vn -0.9269 -0.3754 -0.0000
vn -0.9523 -0.3053 -0.0000
vn -0.9684 -0.2493 -0.0000
vn -0.9789 -0.2041 -0.0000
vn -0.9859 -0.1672 -0.0000
vn -0.9906 -0.1366 -0.0000
vn -0.6623 -0.7492 -0.0000
vn 0.6134 0.7897 -0.0000
vn 0.6300 0.7766 -0.0000
vn 0.6134 0.7898 -0.0000
vn 0.9994 -0.0333 -0.0000
vn 0.9999 -0.0170 -0.0000
vn 1.0000 -0.0030 -0.0000
vn 1.0000 0.0095 -0.0000
vn 0.9998 0.0212 -0.0000
vn 0.9995 0.0326 -0.0000
vn 0.9990 0.0442 -0.0000
vn 0.9984 0.0565 -0.0000
vn 0.9975 0.0703 -0.0000
vn 0.9963 0.0865 -0.0000
vn 0.9943 0.1067 -0.0000
vn 0.8339 -0.5519 -0.0000
vn 0.9943 0.1066 -0.0000
vn 0.2813 -0.9596 -0.0000
vn 0.2852 -0.9585 -0.0000
vn 0.2905 -0.9569 -0.0000
vn 0.2978 -0.9546 -0.0000
vn 0.3076 -0.9515 -0.0000
vn 0.3213 -0.9470 -0.0000
vn 0.3403 -0.9403 -0.0000
vn 0.3666 -0.9304 -0.0000
vn 0.4021 -0.9156 -0.0000
vn 0.4468 -0.8946 -0.0000
vn 0.4964 -0.8681 -0.0000
vn -0.3793 -0.9253 -0.0000
vn -0.9649 -0.2627 -0.0000
vn -0.9540 -0.2997 -0.0000
vn -0.9440 -0.3300 -0.0000
vn -0.9344 -0.3563 -0.0000
vn -0.9248 -0.3804 -0.0000
vn -0.9150 -0.4035 -0.0000
vn -0.9044 -0.4267 -0.0000
vn -0.8924 -0.4512 -0.0000
vn -0.8783 -0.4782 -0.0000
vn -0.8606 -0.5092 -0.0000
vn -0.8374 -0.5466 -0.0000
vn -0.9624 0.2715 -0.0000
vn 0.1909 -0.9816 -0.0000
vn 0.1962 -0.9806 -0.0000
vn 0.1858 -0.9826 -0.0000
vn 0.1809 -0.9835 -0.0000
vn 0.1760 -0.9844 -0.0000
vn 0.1714 -0.9852 -0.0000
vn 0.1668 -0.9860 -0.0000
vn 0.1624 -0.9867 -0.0000
vn 0.1580 -0.9874 -0.0000
vn 0.1538 -0.9881 -0.0000
vn 0.1496 -0.9887 -0.0000
vn 0.7575 -0.6529 -0.0000
vn 0.7575 -0.6528 -0.0000
vn -0.7364 0.6766 -0.0000
vn -0.9966 -0.0822 -0.0000
vn -0.7364 0.6765 -0.0000
vn -0.9970 -0.0774 -0.0000
vn -0.9973 -0.0730 -0.0000
vn -0.9976 -0.0688 -0.0000
vn -0.9979 -0.0650 -0.0000
vn -0.9981 -0.0613 -0.0000
vn -0.9983 -0.0579 -0.0000
vn -0.9985 -0.0548 -0.0000
vn -0.9987 -0.0519 -0.0000
vn -0.9988 -0.0492 -0.0000
vn -0.9989 -0.0467 -0.0000
vn -0.6151 -0.7884 -0.0000
vn -0.6151 -0.7885 -0.0000
vt 0.234375 0.000000
vt 0.253906 0.000000
vt 0.238281 0.000000
vt 0.242188 0.000000
vt 0.246094 0.000000
vt 0.250000 0.000000
vt 0.207031 0.000000
vt 0.203125 0.000000
vt 0.199219 0.000000
vt 0.210938 0.000000
vt 0.214844 0.000000
vt 0.167969 0.000000
vt 0.164062 0.000000
vt 0.261719 0.000000
vt 0.160156 0.000000
vt 0.156250 0.000000
vt 0.265625 0.000000
vt 0.269531 0.000000
vt 0.195312 0.000000
vt 0.218750 0.000000
vt 0.222656 0.000000
vt 0.191406 0.000000
vt 0.226562 0.000000
vt 0.187500 0.000000
vt 0.230469 0.000000
vt 0.183594 0.000000
vt 0.179688 0.000000
vt 0.257812 0.000000
vt 0.175781 0.000000
vt 0.171875 0.000000
vt 0.144531 0.000000
vt 0.140625 0.000000
vt 0.277344 0.000000
vt 0.136719 0.000000
vt 0.281250 0.000000
vt 0.132812 0.000000
vt 0.128906 0.000000
vt 0.285156 0.000000
vt 0.125000 0.000000
vt 0.121094 0.000000
vt 0.289062 0.000000
vt 0.117188 0.000000
vt 0.113281 0.000000
vt 0.292969 0.000000
vt 0.894531 0.000000
vt 0.304688 0.000000
vt 0.898438 0.000000
vt 0.882812 0.000000
vt 0.312500 0.000000
vt 0.886719 0.000000
vt 0.878906 0.000000
vt 0.316406 0.000000
vt 0.890625 0.000000
vt 0.308594 0.000000
vt 0.109375 0.000000
vt 0.105469 0.000000
vt 0.101562 0.000000
vt 0.296875 0.000000
vt 0.300781 0.000000
vt 0.273438 0.000000
vt 0.855469 0.000000
vt 0.851562 0.000000
vt 0.847656 0.000000
vt 0.859375 0.000000
vt 0.843750 0.000000
vt 0.863281 0.000000
vt 0.363281 0.000000
vt 0.941406 0.000000
vt 0.937500 0.000000
vt 0.945312 0.000000
vt 0.753906 0.000000
vt 0.824219 0.000000
vt 0.820312 0.000000
vt 0.816406 0.000000
vt 0.359375 0.000000
vt 0.351562 0.000000
vt 0.839844 0.000000
vt 0.867188 0.000000
vt 0.835938 0.000000
vt 0.324219 0.000000
vt 0.320312 0.000000
vt 0.832031 0.000000
vt 0.828125 0.000000
vt 0.328125 0.000000
vt 0.332031 0.000000
vt 0.335938 0.000000
vt 0.339844 0.000000
vt 0.343750 0.000000
vt 0.347656 0.000000
vt 0.355469 0.000000
vt 0.367188 0.000000
vt 0.933594 0.000000
vt 0.929688 0.000000
vt 0.921875 0.000000
vt 0.371094 0.000000
vt 0.925781 0.000000
vt 0.777344 0.000000
vt 0.773438 0.000000
vt 0.808594 0.000000
vt 0.769531 0.000000
vt 0.765625 0.000000
vt 0.917969 0.000000
vt 0.914062 0.000000
vt 0.375000 0.000000
vt 0.910156 0.000000
vt 0.906250 0.000000
vt 0.804688 0.000000
vt 0.800781 0.000000
vt 0.796875 0.000000
vt 0.792969 0.000000
vt 0.789062 0.000000
vt 0.785156 0.000000
vt 0.781250 0.000000
vt 0.812500 0.000000
vt 0.761719 0.000000
vt 0.757812 0.000000
vt 0.871094 0.000000
vt 0.875000 0.000000
vt 0.378906 0.000000
vt 0.902344 0.000000
vt 1.000000 0.000000
vt 0.070312 0.000000
vt 0.066406 0.000000
vt 0.019531 0.000000
vt 0.015625 0.000000
vt 0.382812 0.000000
vt 0.445312 0.000000
vt 0.390625 0.000000
vt 0.449219 0.000000
vt 0.386719 0.000000
vt 0.453125 0.000000
vt 0.050781 0.000000
vt 0.046875 0.000000
vt 0.042969 0.000000
vt 0.039062 0.000000
vt 0.035156 0.000000
vt 0.054688 0.000000
vt 0.031250 0.000000
vt 0.058594 0.000000
vt 0.027344 0.000000
vt 0.062500 0.000000
vt 0.023438 0.000000
vt 0.738281 0.000000
vt 0.519531 0.000000
vt 0.742188 0.000000
vt 0.515625 0.000000
vt 0.511719 0.000000
vt 0.746094 0.000000
vt 0.500000 0.000000
vt 0.953125 0.000000
vt 0.496094 0.000000
vt 0.957031 0.000000
vt 0.492188 0.000000
vt 0.960938 0.000000
vt 0.488281 0.000000
vt 0.964844 0.000000
vt 0.484375 0.000000
vt 0.968750 0.000000
vt 0.972656 0.000000
vt 0.480469 0.000000
vt 0.976562 0.000000
vt 0.476562 0.000000
vt 0.980469 0.000000
vt 0.472656 0.000000
vt 0.984375 0.000000
vt 0.468750 0.000000
vt 0.988281 0.000000
vt 0.464844 0.000000
vt 0.992188 0.000000
vt 0.460938 0.000000
vt 0.996094 0.000000
vt 0.457031 0.000000
vt 0.394531 0.000000
vt 0.437500 0.000000
vt 0.433594 0.000000
vt 0.429688 0.000000
vt 0.398438 0.000000
vt 0.558594 0.000000
vt 0.554688 0.000000
vt 0.703125 0.000000
vt 0.421875 0.000000
vt 0.417969 0.000000
vt 0.402344 0.000000
vt 0.699219 0.000000
vt 0.695312 0.000000
vt 0.691406 0.000000
vt 0.414062 0.000000
vt 0.707031 0.000000
vt 0.710938 0.000000
vt 0.550781 0.000000
vt 0.714844 0.000000
vt 0.546875 0.000000
vt 0.425781 0.000000
vt 0.617188 0.000000
vt 0.613281 0.000000
vt 0.601562 0.000000
vt 0.609375 0.000000
vt 0.605469 0.000000
vt 0.648438 0.000000
vt 0.656250 0.000000
vt 0.652344 0.000000
vt 0.644531 0.000000
vt 0.640625 0.000000
vt 0.636719 0.000000
vt 0.582031 0.000000
vt 0.578125 0.000000
vt 0.664062 0.000000
vt 0.660156 0.000000
vt 0.585938 0.000000
vt 0.589844 0.000000
vt 0.593750 0.000000
vt 0.597656 0.000000
vt 0.632812 0.000000
vt 0.628906 0.000000
vt 0.625000 0.000000
vt 0.621094 0.000000
vt 0.687500 0.000000
vt 0.683594 0.000000
vt 0.562500 0.000000
vt 0.679688 0.000000
vt 0.675781 0.000000
vt 0.566406 0.000000
vt 0.671875 0.000000
vt 0.570312 0.000000
vt 0.667969 0.000000
vt 0.574219 0.000000
vt 0.410156 0.000000
vt 0.406250 0.000000
vt 0.718750 0.000000
vt 0.542969 0.000000
vt 0.722656 0.000000
vt 0.539062 0.000000
vt 0.726562 0.000000
vt 0.535156 0.000000
vt 0.531250 0.000000
vt 0.730469 0.000000
vt 0.527344 0.000000
vt 0.734375 0.000000
vt 0.523438 0.000000
vt 0.507812 0.000000
vt 0.503906 0.000000
vt 0.441406 0.000000
vt 0.074219 0.000000
vt 0.011719 0.000000
vt 0.078125 0.000000
vt 0.007812 0.000000
vt 0.082031 0.000000
vt 0.003906 0.000000
vt 0.085938 0.000000
vt 0.000000 0.000000
vt 0.089844 0.000000
vt 0.097656 0.000000
vt 0.093750 0.000000
vt 0.750000 0.000000
vt 0.949219 0.000000
vt 0.152344 0.000000
vt 0.148438 0.000000
vt 0.038462 1.000000
vt 0.000000 1.000000
vt 0.076923 1.000000
vt 0.038462 0.000000
vt 0.115385 1.000000
vt 0.076923 0.000000
vt 0.153846 1.000000
vt 0.115385 0.000000
vt 0.192308 1.000000
vt 0.153846 0.000000
vt 0.230769 1.000000
vt 0.192308 0.000000
vt 0.269231 1.000000
vt 0.230769 0.000000
vt 0.307692 1.000000
vt 0.269231 0.000000
vt 0.346154 1.000000
vt 0.307692 0.000000
vt 0.384615 1.000000
vt 0.346154 0.000000
vt 0.423077 1.000000
vt 0.384615 0.000000
vt 0.461538 1.000000
vt 0.423077 0.000000
vt 0.500000 1.000000
vt 0.461538 0.000000
vt 0.538462 1.000000
vt 0.576923 1.000000
vt 0.538462 0.000000
vt 0.615385 1.000000
vt 0.576923 0.000000
vt 0.653846 1.000000
vt 0.615385 0.000000
vt 0.692308 1.000000
vt 0.653846 0.000000
vt 0.730769 1.000000
vt 0.692308 0.000000
vt 0.769231 1.000000
vt 0.730769 0.000000
vt 0.807692 1.000000
vt 0.769231 0.000000
vt 0.846154 1.000000
vt 0.807692 0.000000
vt 0.884615 1.000000
vt 0.846154 0.000000
vt 0.923077 1.000000
vt 0.884615 0.000000
vt 0.961538 1.000000
vt 0.923077 0.000000
vt 1.000000 1.000000
vt 0.961538 0.000000
vt 0.019231 1.000000
vt 0.019231 0.000000
vt 0.057692 1.000000
vt 0.057692 0.000000
vt 0.096154 1.000000
vt 0.096154 0.000000
vt 0.134615 1.000000
vt 0.134615 0.000000
vt 0.173077 1.000000
vt 0.173077 0.000000
vt 0.211538 1.000000
vt 0.211538 0.000000
vt 0.250000 1.000000
vt 0.288462 1.000000
vt 0.288462 0.000000
vt 0.326923 1.000000
vt 0.326923 0.000000
vt 0.365385 1.000000
vt 0.365385 0.000000
vt 0.403846 1.000000
vt 0.403846 0.000000
vt 0.442308 1.000000
vt 0.442308 0.000000
vt 0.480769 1.000000
vt 0.480769 0.000000
vt 0.519231 1.000000
vt 0.519231 0.000000
vt 0.557692 1.000000
vt 0.557692 0.000000
vt 0.596154 1.000000
vt 0.596154 0.000000
vt 0.634615 1.000000
vt 0.634615 0.000000
vt 0.673077 1.000000
vt 0.673077 0.000000
vt 0.711538 1.000000
vt 0.711538 0.000000
vt 0.750000 1.000000
vt 0.788462 1.000000
vt 0.788462 0.000000
vt 0.826923 1.000000
vt 0.826923 0.000000
vt 0.865385 1.000000
vt 0.865385 0.000000
vt 0.903846 1.000000
vt 0.903846 0.000000
vt 0.942308 1.000000
vt 0.942308 0.000000
vt 0.980769 1.000000
vt 0.980769 0.000000
vt 0.006536 1.000000
vt 0.013072 1.000000
vt 0.006536 0.000000
vt 0.019608 1.000000
vt 0.013072 0.000000
vt 0.026144 1.000000
vt 0.019608 0.000000
vt 0.032680 1.000000
vt 0.026144 0.000000
vt 0.039216 1.000000
vt 0.032680 0.000000
vt 0.045752 1.000000
vt 0.039216 0.000000
vt 0.052288 1.000000
vt 0.045752 0.000000
vt 0.058824 1.000000
vt 0.052288 0.000000
vt 0.065359 1.000000
vt 0.058824 0.000000
vt 0.071895 1.000000
vt 0.065359 0.000000
vt 0.078431 1.000000
vt 0.071895 0.000000
vt 0.084967 1.000000
vt 0.078431 0.000000
vt 0.091503 1.000000
vt 0.084967 0.000000
vt 0.098039 1.000000
vt 0.091503 0.000000
vt 0.104575 1.000000
vt 0.098039 0.000000
vt 0.111111 1.000000
vt 0.104575 0.000000
vt 0.117647 1.000000
vt 0.111111 0.000000
vt 0.124183 1.000000
vt 0.117647 0.000000
vt 0.130719 1.000000
vt 0.124183 0.000000
vt 0.137255 1.000000
vt 0.130719 0.000000
vt 0.143791 1.000000
vt 0.137255 0.000000
vt 0.150327 1.000000
vt 0.143791 0.000000
vt 0.156863 1.000000
vt 0.150327 0.000000
vt 0.163399 1.000000
vt 0.156863 0.000000
vt 0.169935 1.000000
vt 0.163399 0.000000
vt 0.176471 1.000000
vt 0.169935 0.000000
vt 0.183007 1.000000
vt 0.176471 0.000000
vt 0.189542 1.000000
vt 0.183007 0.000000
vt 0.196078 1.000000
vt 0.189542 0.000000
vt 0.202614 1.000000
vt 0.196078 0.000000
vt 0.209150 1.000000
vt 0.202614 0.000000
vt 0.215686 1.000000
vt 0.209150 0.000000
vt 0.222222 1.000000
vt 0.215686 0.000000
vt 0.228758 1.000000
vt 0.222222 0.000000
vt 0.235294 1.000000
vt 0.228758 0.000000
vt 0.241830 1.000000
vt 0.235294 0.000000
vt 0.248366 1.000000
vt 0.241830 0.000000
vt 0.254902 1.000000
vt 0.248366 0.000000
vt 0.261438 1.000000
vt 0.254902 0.000000
vt 0.267974 1.000000
vt 0.261438 0.000000
vt 0.274510 1.000000
vt 0.267974 0.000000
vt 0.281046 1.000000
vt 0.274510 0.000000
vt 0.287582 1.000000
vt 0.281046 0.000000
vt 0.294118 1.000000
vt 0.287582 0.000000
vt 0.300654 1.000000
vt 0.294118 0.000000
vt 0.307190 1.000000
vt 0.300654 0.000000
vt 0.313726 1.000000
vt 0.307190 0.000000
vt 0.320261 1.000000
vt 0.313726 0.000000
vt 0.326797 1.000000
vt 0.320261 0.000000
vt 0.333333 1.000000
vt 0.326797 0.000000
vt 0.339869 1.000000
vt 0.333333 0.000000
vt 0.346405 1.000000
vt 0.339869 0.000000
vt 0.352941 1.000000
vt 0.346405 0.000000
vt 0.359477 1.000000
vt 0.352941 0.000000
vt 0.366013 1.000000
vt 0.359477 0.000000
vt 0.372549 1.000000
vt 0.366013 0.000000
vt 0.379085 1.000000
vt 0.372549 0.000000
vt 0.385621 1.000000
vt 0.379085 0.000000
vt 0.392157 1.000000
vt 0.385621 0.000000
vt 0.398693 1.000000
vt 0.392157 0.000000
vt 0.405229 1.000000
vt 0.398693 0.000000
vt 0.411765 1.000000
vt 0.405229 0.000000
vt 0.418301 1.000000
vt 0.411765 0.000000
vt 0.424837 1.000000
vt 0.418301 0.000000
vt 0.431373 1.000000
vt 0.424837 0.000000
vt 0.437909 1.000000
vt 0.431373 0.000000
vt 0.444444 1.000000
vt 0.437909 0.000000
vt 0.450980 1.000000
vt 0.444444 0.000000
vt 0.457516 1.000000
vt 0.450980 0.000000
vt 0.464052 1.000000
vt 0.457516 0.000000
vt 0.470588 1.000000
vt 0.464052 0.000000
vt 0.477124 1.000000
vt 0.470588 0.000000
vt 0.483660 1.000000
vt 0.477124 0.000000
vt 0.490196 1.000000
vt 0.483660 0.000000
vt 0.496732 1.000000
vt 0.490196 0.000000
vt 0.503268 1.000000
vt 0.496732 0.000000
vt 0.509804 1.000000
vt 0.503268 0.000000
vt 0.516340 1.000000
vt 0.509804 0.000000
vt 0.522876 1.000000
vt 0.516340 0.000000
vt 0.529412 1.000000
vt 0.522876 0.000000
vt 0.535948 1.000000
vt 0.529412 0.000000
vt 0.542484 1.000000
vt 0.535948 0.000000
vt 0.549020 1.000000
vt 0.542484 0.000000
vt 0.555556 1.000000
vt 0.549020 0.000000
vt 0.562092 1.000000
vt 0.555556 0.000000
vt 0.568627 1.000000
vt 0.562092 0.000000
vt 0.575163 1.000000
vt 0.568627 0.000000
vt 0.581699 1.000000
vt 0.575163 0.000000
vt 0.588235 1.000000
vt 0.581699 0.000000
vt 0.594771 1.000000
vt 0.588235 0.000000
vt 0.601307 1.000000
vt 0.594771 0.000000
vt 0.607843 1.000000
vt 0.601307 0.000000
vt 0.614379 1.000000
vt 0.607843 0.000000
vt 0.620915 1.000000
vt 0.614379 0.000000
vt 0.627451 1.000000
vt 0.620915 0.000000
vt 0.633987 1.000000
vt 0.627451 0.000000
vt 0.640523 1.000000
vt 0.633987 0.000000
vt 0.647059 1.000000
vt 0.640523 0.000000
vt 0.653595 1.000000
vt 0.647059 0.000000
vt 0.660131 1.000000
vt 0.653595 0.000000
vt 0.666667 1.000000
vt 0.660131 0.000000
vt 0.673203 1.000000
vt 0.666667 0.000000
vt 0.679739 1.000000
vt 0.673203 0.000000
vt 0.686275 1.000000
vt 0.679739 0.000000
vt 0.692810 1.000000
vt 0.686275 0.000000
vt 0.699346 1.000000
vt 0.692810 0.000000
vt 0.705882 1.000000
vt 0.699346 0.000000
vt 0.712418 1.000000
vt 0.705882 0.000000
vt 0.718954 1.000000
vt 0.712418 0.000000
vt 0.725490 1.000000
vt 0.718954 0.000000
vt 0.732026 1.000000
vt 0.725490 0.000000
vt 0.738562 1.000000
vt 0.732026 0.000000
vt 0.745098 1.000000
vt 0.738562 0.000000
vt 0.751634 1.000000
vt 0.745098 0.000000
vt 0.758170 1.000000
vt 0.751634 0.000000
vt 0.764706 1.000000
vt 0.758170 0.000000
vt 0.771242 1.000000
vt 0.764706 0.000000
vt 0.777778 1.000000
vt 0.771242 0.000000
vt 0.784314 1.000000
vt 0.777778 0.000000
vt 0.790850 1.000000
vt 0.784314 0.000000
vt 0.797386 1.000000
vt 0.790850 0.000000
vt 0.803922 1.000000
vt 0.797386 0.000000
vt 0.810458 1.000000
vt 0.803922 0.000000
vt 0.816993 1.000000
vt 0.810458 0.000000
vt 0.823529 1.000000
vt 0.816993 0.000000
vt 0.830065 1.000000
vt 0.823529 0.000000
vt 0.836601 1.000000
vt 0.830065 0.000000
vt 0.843137 1.000000
vt 0.836601 0.000000
vt 0.849673 1.000000
vt 0.843137 0.000000
vt 0.856209 1.000000
vt 0.849673 0.000000
vt 0.862745 1.000000
vt 0.856209 0.000000
vt 0.869281 1.000000
vt 0.862745 0.000000
vt 0.875817 1.000000
vt 0.869281 0.000000
vt 0.882353 1.000000
vt 0.875817 0.000000
vt 0.888889 1.000000
vt 0.882353 0.000000
vt 0.895425 1.000000
vt 0.888889 0.000000
vt 0.901961 1.000000
vt 0.895425 0.000000
vt 0.908497 1.000000
vt 0.901961 0.000000
vt 0.915033 1.000000
vt 0.908497 0.000000
vt 0.921569 1.000000
vt 0.915033 0.000000
vt 0.928105 1.000000
vt 0.921569 0.000000
vt 0.934641 1.000000
vt 0.928105 0.000000
vt 0.941176 1.000000
vt 0.934641 0.000000
vt 0.947712 1.000000
vt 0.941176 0.000000
vt 0.954248 1.000000
vt 0.947712 0.000000
vt 0.960784 1.000000
vt 0.954248 0.000000
vt 0.967320 1.000000
vt 0.960784 0.000000
vt 0.973856 1.000000
vt 0.967320 0.000000
vt 0.980392 1.000000
vt 0.973856 0.000000
vt 0.986928 1.000000
vt 0.980392 0.000000
vt 0.993464 1.000000
vt 0.986928 0.000000
vt 0.993464 0.000000
s 0
usemtl マテリアル
f 61/1/1 66/2/1 62/3/1
f 63/4/1 62/3/1 66/2/1
f 64/5/1 63/4/1 66/2/1
f 65/6/1 64/5/1 66/2/1
f 54/7/1 53/8/1 52/9/1
f 54/7/1 52/9/1 55/10/1
f 56/11/1 55/10/1 52/9/1
f 44/12/1 43/13/1 68/14/1
f 43/13/1 42/15/1 68/14/1
f 42/15/1 41/16/1 68/14/1
f 69/17/1 68/14/1 41/16/1
f 41/16/1 70/18/1 69/17/1
f 56/11/1 52/9/1 51/19/1
f 57/20/1 56/11/1 51/19/1
f 58/21/1 57/20/1 51/19/1
f 51/19/1 50/22/1 58/21/1
f 59/23/1 58/21/1 50/22/1
f 50/22/1 49/24/1 59/23/1
f 60/25/1 59/23/1 49/24/1
f 61/1/1 60/25/1 49/24/1
f 49/24/1 48/26/1 61/1/1
f 66/2/1 61/1/1 48/26/1
f 48/26/1 47/27/1 66/2/1
f 67/28/1 66/2/1 47/27/1
f 47/27/1 46/29/1 67/28/1
f 46/29/1 45/30/1 67/28/1
f 45/30/1 44/12/1 67/28/1
f 44/12/1 68/14/1 67/28/1
f 38/31/1 37/32/1 72/33/1
f 72/33/1 37/32/1 36/34/1
f 73/35/1 72/33/1 36/34/1
f 36/34/1 35/36/1 73/35/1
f 35/36/1 34/37/1 73/35/1
f 74/38/1 73/35/1 34/37/1
f 34/37/1 33/39/1 74/38/1
f 33/39/1 32/40/1 74/38/1
f 75/41/1 74/38/1 32/40/1
f 32/40/1 31/42/1 75/41/1
f 31/42/1 30/43/1 75/41/1
f 76/44/1 75/41/1 30/43/1
f 230/45/1 79/46/1 231/47/1
f 227/48/1 81/49/1 228/50/1
f 226/51/1 82/52/1 227/48/1
f 81/49/1 227/48/1 82/52/1
f 228/50/1 81/49/1 229/53/1
f 81/49/1 80/54/1 229/53/1
f 230/45/1 229/53/1 80/54/1
f 79/46/1 230/45/1 80/54/1
f 76/44/1 30/43/1 29/55/1
f 29/55/1 28/56/1 76/44/1
f 28/56/1 27/57/1 76/44/1
f 77/58/1 76/44/1 27/57/1
f 27/57/1 78/59/1 77/58/1
f 70/18/1 41/16/1 38/31/1
f 71/60/1 70/18/1 38/31/1
f 38/31/1 72/33/1 71/60/1
f 220/61/1 219/62/1 218/63/1
f 221/64/1 220/61/1 218/63/1
f 218/63/1 217/65/1 221/64/1
f 222/66/1 221/64/1 217/65/1
f 94/67/1 242/68/1 241/69/1
f 242/68/1 94/67/1 243/70/1
f 194/71/1 212/72/1 211/73/1
f 211/73/1 210/74/1 194/71/1
f 93/75/1 91/76/1 243/70/1
f 243/70/1 94/67/1 93/75/1
f 222/66/1 217/65/1 216/77/1
f 223/78/1 222/66/1 216/77/1
f 216/77/1 215/79/1 223/78/1
f 84/80/1 83/81/1 214/82/1
f 214/82/1 213/83/1 84/80/1
f 85/84/1 84/80/1 213/83/1
f 86/85/1 85/84/1 213/83/1
f 213/83/1 212/72/1 86/85/1
f 212/72/1 194/71/1 86/85/1
f 87/86/1 86/85/1 194/71/1
f 88/87/1 87/86/1 194/71/1
f 89/88/1 88/87/1 194/71/1
f 90/89/1 89/88/1 194/71/1
f 91/76/1 93/75/1 92/90/1
f 95/91/1 240/92/1 239/93/1
f 237/94/1 96/95/1 238/96/1
f 95/91/1 239/93/1 238/96/1
f 238/96/1 96/95/1 95/91/1
f 200/97/1 199/98/1 208/99/1
f 199/98/1 198/100/1 208/99/1
f 198/100/1 197/101/1 208/99/1
f 96/95/1 237/94/1 236/102/1
f 236/102/1 235/103/1 96/95/1
f 97/104/1 234/105/1 233/106/1
f 207/107/1 206/108/1 208/99/1
f 206/108/1 205/109/1 208/99/1
f 205/109/1 204/110/1 208/99/1
f 204/110/1 203/111/1 208/99/1
f 203/111/1 202/112/1 208/99/1
f 202/112/1 201/113/1 208/99/1
f 200/97/1 208/99/1 201/113/1
f 234/105/1 97/104/1 235/103/1
f 96/95/1 235/103/1 97/104/1
f 194/71/1 210/74/1 209/114/1
f 209/114/1 208/99/1 194/71/1
f 208/99/1 197/101/1 194/71/1
f 197/101/1 196/115/1 194/71/1
f 196/115/1 195/116/1 194/71/1
f 94/67/1 241/69/1 240/92/1
f 240/92/1 95/91/1 94/67/1
f 223/78/1 215/79/1 224/117/1
f 225/118/1 224/117/1 215/79/1
f 215/79/1 214/82/1 225/118/1
f 214/82/1 83/81/1 225/118/1
f 226/51/1 225/118/1 83/81/1
f 82/52/1 226/51/1 83/81/1
f 98/119/1 232/120/1 257/121/1
f 19/122/1 18/123/1 6/124/1
f 6/124/1 5/125/1 19/122/1
f 98/119/1 257/121/1 99/126/1
f 115/127/1 101/128/1 116/129/1
f 100/130/1 117/131/1 116/129/1
f 116/129/1 101/128/1 100/130/1
f 14/132/1 13/133/1 12/134/1
f 12/134/1 11/135/1 14/132/1
f 11/135/1 10/136/1 14/132/1
f 15/137/1 14/132/1 10/136/1
f 10/136/1 9/138/1 15/137/1
f 16/139/1 15/137/1 9/138/1
f 9/138/1 8/140/1 16/139/1
f 17/141/1 16/139/1 8/140/1
f 8/140/1 7/142/1 17/141/1
f 18/123/1 17/141/1 7/142/1
f 6/124/1 18/123/1 7/142/1
f 190/143/1 134/144/1 191/145/1
f 134/144/1 133/146/1 191/145/1
f 133/146/1 132/147/1 191/145/1
f 192/148/1 191/145/1 132/147/1
f 132/147/1 129/149/1 192/148/1
f 245/150/1 192/148/1 129/149/1
f 129/149/1 128/151/1 245/150/1
f 246/152/1 245/150/1 128/151/1
f 128/151/1 127/153/1 246/152/1
f 247/154/1 246/152/1 127/153/1
f 127/153/1 126/155/1 247/154/1
f 248/156/1 247/154/1 126/155/1
f 126/155/1 125/157/1 248/156/1
f 249/158/1 248/156/1 125/157/1
f 250/159/1 249/158/1 125/157/1
f 125/157/1 124/160/1 250/159/1
f 251/161/1 250/159/1 124/160/1
f 124/160/1 123/162/1 251/161/1
f 252/163/1 251/161/1 123/162/1
f 123/162/1 122/164/1 252/163/1
f 253/165/1 252/163/1 122/164/1
f 122/164/1 121/166/1 253/165/1
f 254/167/1 253/165/1 121/166/1
f 121/166/1 120/168/1 254/167/1
f 255/169/1 254/167/1 120/168/1
f 120/168/1 119/170/1 255/169/1
f 256/171/1 255/169/1 119/170/1
f 119/170/1 118/172/1 256/171/1
f 257/121/1 256/171/1 118/172/1
f 118/172/1 117/131/1 257/121/1
f 99/126/1 257/121/1 117/131/1
f 117/131/1 100/130/1 99/126/1
f 102/173/1 113/174/1 112/175/1
f 112/175/1 111/176/1 102/173/1
f 111/176/1 103/177/1 102/173/1
f 144/178/1 143/179/1 181/180/1
f 109/181/1 108/182/1 104/183/1
f 144/178/1 181/180/1 180/184/1
f 180/184/1 179/185/1 144/178/1
f 179/185/1 178/186/1 144/178/1
f 104/183/1 108/182/1 107/187/1
f 181/180/1 143/179/1 182/188/1
f 183/189/1 182/188/1 143/179/1
f 143/179/1 142/190/1 183/189/1
f 184/191/1 183/189/1 142/190/1
f 141/192/1 184/191/1 142/190/1
f 103/177/1 111/176/1 110/193/1
f 110/193/1 109/181/1 103/177/1
f 109/181/1 104/183/1 103/177/1
f 159/194/1 158/195/1 155/196/1
f 158/195/1 157/197/1 155/196/1
f 156/198/1 155/196/1 157/197/1
f 167/199/1 169/200/1 168/201/1
f 169/200/1 167/199/1 166/202/1
f 169/200/1 166/202/1 165/203/1
f 169/200/1 165/203/1 164/204/1
f 150/205/1 149/206/1 171/207/1
f 171/207/1 170/208/1 150/205/1
f 151/209/1 150/205/1 170/208/1
f 152/210/1 151/209/1 170/208/1
f 170/208/1 169/200/1 152/210/1
f 153/211/1 152/210/1 169/200/1
f 169/200/1 164/204/1 153/211/1
f 154/212/1 153/211/1 164/204/1
f 164/204/1 163/213/1 154/212/1
f 163/213/1 162/214/1 154/212/1
f 162/214/1 161/215/1 154/212/1
f 155/196/1 154/212/1 161/215/1
f 161/215/1 160/216/1 155/196/1
f 159/194/1 155/196/1 160/216/1
f 144/178/1 178/186/1 177/217/1
f 177/217/1 176/218/1 144/178/1
f 145/219/1 144/178/1 176/218/1
f 176/218/1 175/220/1 145/219/1
f 175/220/1 174/221/1 145/219/1
f 146/222/1 145/219/1 174/221/1
f 174/221/1 173/223/1 146/222/1
f 147/224/1 146/222/1 173/223/1
f 173/223/1 172/225/1 147/224/1
f 148/226/1 147/224/1 172/225/1
f 172/225/1 171/207/1 148/226/1
f 171/207/1 149/206/1 148/226/1
f 104/183/1 107/187/1 106/227/1
f 106/227/1 105/228/1 104/183/1
f 184/191/1 141/192/1 185/229/1
f 141/192/1 140/230/1 185/229/1
f 186/231/1 185/229/1 140/230/1
f 140/230/1 139/232/1 186/231/1
f 187/233/1 186/231/1 139/232/1
f 139/232/1 138/234/1 187/233/1
f 138/234/1 137/235/1 187/233/1
f 188/236/1 187/233/1 137/235/1
f 137/235/1 136/237/1 188/236/1
f 189/238/1 188/236/1 136/237/1
f 136/237/1 135/239/1 189/238/1
f 190/143/1 189/238/1 135/239/1
f 134/144/1 190/143/1 135/239/1
f 131/240/1 130/241/1 132/147/1
f 129/149/1 132/147/1 130/241/1
f 101/128/1 115/127/1 114/242/1
f 114/242/1 113/174/1 101/128/1
f 113/174/1 102/173/1 101/128/1
f 19/122/1 5/125/1 20/243/1
f 5/125/1 4/244/1 20/243/1
f 21/245/1 20/243/1 4/244/1
f 4/244/1 3/246/1 21/245/1
f 22/247/1 21/245/1 3/246/1
f 3/246/1 2/248/1 22/247/1
f 23/249/1 22/247/1 2/248/1
f 2/248/1 1/250/1 23/249/1
f 24/251/1 23/249/1 1/250/1
f 1/250/1 26/252/1 24/251/1
f 25/253/1 24/251/1 26/252/1
f 192/148/1 245/150/1 193/254/1
f 244/255/1 193/254/1 245/150/1
f 232/120/1 98/119/1 233/106/1
f 97/104/1 233/106/1 98/119/1
f 40/256/1 39/257/1 41/16/1
f 38/31/1 41/16/1 39/257/1
f 90/89/1 194/71/1 193/254/1
f 244/255/1 243/70/1 91/76/1
f 90/89/1 193/254/1 91/76/1
f 193/254/1 244/255/1 91/76/1
f 318/1/2 319/3/2 323/2/2
f 320/4/2 323/2/2 319/3/2
f 321/5/2 323/2/2 320/4/2
f 322/6/2 323/2/2 321/5/2
f 311/7/2 309/9/2 310/8/2
f 311/7/2 312/10/2 309/9/2
f 313/11/2 309/9/2 312/10/2
f 301/12/2 325/14/2 300/13/2
f 300/13/2 325/14/2 299/15/2
f 299/15/2 325/14/2 298/16/2
f 326/17/2 298/16/2 325/14/2
f 298/16/2 326/17/2 327/18/2
f 313/11/2 308/19/2 309/9/2
f 314/20/2 308/19/2 313/11/2
f 315/21/2 308/19/2 314/20/2
f 308/19/2 315/21/2 307/22/2
f 316/23/2 307/22/2 315/21/2
f 307/22/2 316/23/2 306/24/2
f 317/25/2 306/24/2 316/23/2
f 318/1/2 306/24/2 317/25/2
f 306/24/2 318/1/2 305/26/2
f 323/2/2 305/26/2 318/1/2
f 305/26/2 323/2/2 304/27/2
f 324/28/2 304/27/2 323/2/2
f 304/27/2 324/28/2 303/29/2
f 303/29/2 324/28/2 302/30/2
f 302/30/2 324/28/2 301/12/2
f 301/12/2 324/28/2 325/14/2
f 295/31/2 329/33/2 294/32/2
f 329/33/2 293/34/2 294/32/2
f 330/35/2 293/34/2 329/33/2
f 293/34/2 330/35/2 292/36/2
f 292/36/2 330/35/2 291/37/2
f 331/38/2 291/37/2 330/35/2
f 291/37/2 331/38/2 290/39/2
f 290/39/2 331/38/2 289/40/2
f 332/41/2 289/40/2 331/38/2
f 289/40/2 332/41/2 288/42/2
f 288/42/2 332/41/2 287/43/2
f 333/44/2 287/43/2 332/41/2
f 487/45/2 488/47/2 336/46/2
f 484/48/2 485/50/2 338/49/2
f 483/51/2 484/48/2 339/52/2
f 338/49/2 339/52/2 484/48/2
f 485/50/2 486/53/2 338/49/2
f 338/49/2 486/53/2 337/54/2
f 487/45/2 337/54/2 486/53/2
f 336/46/2 337/54/2 487/45/2
f 333/44/2 286/55/2 287/43/2
f 286/55/2 333/44/2 285/56/2
f 285/56/2 333/44/2 284/57/2
f 334/58/2 284/57/2 333/44/2
f 284/57/2 334/58/2 335/59/2
f 327/18/2 295/31/2 298/16/2
f 328/60/2 295/31/2 327/18/2
f 295/31/2 328/60/2 329/33/2
f 477/61/2 475/63/2 476/62/2
f 478/64/2 475/63/2 477/61/2
f 475/63/2 478/64/2 474/65/2
f 479/66/2 474/65/2 478/64/2
f 351/67/2 498/69/2 499/68/2
f 499/68/2 500/70/2 351/67/2
f 451/71/2 468/73/2 469/72/2
f 468/73/2 451/71/2 467/74/2
f 350/75/2 500/70/2 348/76/2
f 500/70/2 350/75/2 351/67/2
f 479/66/2 473/77/2 474/65/2
f 480/78/2 473/77/2 479/66/2
f 473/77/2 480/78/2 472/79/2
f 341/80/2 471/82/2 340/81/2
f 471/82/2 341/80/2 470/83/2
f 342/84/2 470/83/2 341/80/2
f 343/85/2 470/83/2 342/84/2
f 470/83/2 343/85/2 469/72/2
f 469/72/2 343/85/2 451/71/2
f 344/86/2 451/71/2 343/85/2
f 345/87/2 451/71/2 344/86/2
f 346/88/2 451/71/2 345/87/2
f 347/89/2 451/71/2 346/88/2
f 348/76/2 349/90/2 350/75/2
f 352/91/2 496/93/2 497/92/2
f 494/94/2 495/96/2 353/95/2
f 352/91/2 495/96/2 496/93/2
f 495/96/2 352/91/2 353/95/2
f 457/97/2 465/99/2 456/98/2
f 456/98/2 465/99/2 455/100/2
f 455/100/2 465/99/2 454/101/2
f 353/95/2 493/102/2 494/94/2
f 493/102/2 353/95/2 492/103/2
f 354/104/2 490/106/2 491/105/2
f 464/107/2 465/99/2 463/108/2
f 463/108/2 465/99/2 462/109/2
f 462/109/2 465/99/2 461/110/2
f 461/110/2 465/99/2 460/111/2
f 460/111/2 465/99/2 459/112/2
f 459/112/2 465/99/2 458/113/2
f 457/97/2 458/113/2 465/99/2
f 491/105/2 492/103/2 354/104/2
f 353/95/2 354/104/2 492/103/2
f 451/71/2 466/114/2 467/74/2
f 466/114/2 451/71/2 465/99/2
f 465/99/2 451/71/2 454/101/2
f 454/101/2 451/71/2 453/115/2
f 453/115/2 451/71/2 452/116/2
f 351/67/2 497/92/2 498/69/2
f 497/92/2 351/67/2 352/91/2
f 480/78/2 481/117/2 472/79/2
f 482/118/2 472/79/2 481/117/2
f 472/79/2 482/118/2 471/82/2
f 471/82/2 482/118/2 340/81/2
f 483/51/2 340/81/2 482/118/2
f 339/52/2 340/81/2 483/51/2
f 355/119/2 514/121/2 489/120/2
f 276/122/2 263/124/2 275/123/2
f 263/124/2 276/122/2 262/125/2
f 355/119/2 356/126/2 514/121/2
f 372/127/2 373/129/2 358/128/2
f 357/130/2 373/129/2 374/131/2
f 373/129/2 357/130/2 358/128/2
f 271/132/2 269/134/2 270/133/2
f 269/134/2 271/132/2 268/135/2
f 268/135/2 271/132/2 267/136/2
f 272/137/2 267/136/2 271/132/2
f 267/136/2 272/137/2 266/138/2
f 273/139/2 266/138/2 272/137/2
f 266/138/2 273/139/2 265/140/2
f 274/141/2 265/140/2 273/139/2
f 265/140/2 274/141/2 264/142/2
f 275/123/2 264/142/2 274/141/2
f 263/124/2 264/142/2 275/123/2
f 447/143/2 448/145/2 391/144/2
f 391/144/2 448/145/2 390/146/2
f 390/146/2 448/145/2 389/147/2
f 449/148/2 389/147/2 448/145/2
f 389/147/2 449/148/2 386/149/2
f 502/150/2 386/149/2 449/148/2
f 386/149/2 502/150/2 385/151/2
f 503/152/2 385/151/2 502/150/2
f 385/151/2 503/152/2 384/153/2
f 504/154/2 384/153/2 503/152/2
f 384/153/2 504/154/2 383/155/2
f 505/156/2 383/155/2 504/154/2
f 383/155/2 505/156/2 382/157/2
f 506/158/2 382/157/2 505/156/2
f 507/159/2 382/157/2 506/158/2
f 382/157/2 507/159/2 381/160/2
f 508/161/2 381/160/2 507/159/2
f 381/160/2 508/161/2 380/162/2
f 509/163/2 380/162/2 508/161/2
f 380/162/2 509/163/2 379/164/2
f 510/165/2 379/164/2 509/163/2
f 379/164/2 510/165/2 378/166/2
f 511/167/2 378/166/2 510/165/2
f 378/166/2 511/167/2 377/168/2
f 512/169/2 377/168/2 511/167/2
f 377/168/2 512/169/2 376/170/2
f 513/171/2 376/170/2 512/169/2
f 376/170/2 513/171/2 375/172/2
f 514/121/2 375/172/2 513/171/2
f 375/172/2 514/121/2 374/131/2
f 356/126/2 374/131/2 514/121/2
f 374/131/2 356/126/2 357/130/2
f 359/173/2 369/175/2 370/174/2
f 369/175/2 359/173/2 368/176/2
f 368/176/2 359/173/2 360/177/2
f 401/178/2 438/180/2 400/179/2
f 366/181/2 361/183/2 365/182/2
f 401/178/2 437/184/2 438/180/2
f 437/184/2 401/178/2 436/185/2
f 436/185/2 401/178/2 435/186/2
f 361/183/2 364/187/2 365/182/2
f 438/180/2 439/188/2 400/179/2
f 440/189/2 400/179/2 439/188/2
f 400/179/2 440/189/2 399/190/2
f 441/191/2 399/190/2 440/189/2
f 398/192/2 399/190/2 441/191/2
f 360/177/2 367/193/2 368/176/2
f 367/193/2 360/177/2 366/181/2
f 366/181/2 360/177/2 361/183/2
f 416/194/2 412/196/2 415/195/2
f 415/195/2 412/196/2 414/197/2
f 413/198/2 414/197/2 412/196/2
f 424/199/2 425/201/2 426/200/2
f 426/200/2 423/202/2 424/199/2
f 426/200/2 422/203/2 423/202/2
f 426/200/2 421/204/2 422/203/2
f 407/205/2 428/207/2 406/206/2
f 428/207/2 407/205/2 427/208/2
f 408/209/2 427/208/2 407/205/2
f 409/210/2 427/208/2 408/209/2
f 427/208/2 409/210/2 426/200/2
f 410/211/2 426/200/2 409/210/2
f 426/200/2 410/211/2 421/204/2
f 411/212/2 421/204/2 410/211/2
f 421/204/2 411/212/2 420/213/2
f 420/213/2 411/212/2 419/214/2
f 419/214/2 411/212/2 418/215/2
f 412/196/2 418/215/2 411/212/2
f 418/215/2 412/196/2 417/216/2
f 416/194/2 417/216/2 412/196/2
f 401/178/2 434/217/2 435/186/2
f 434/217/2 401/178/2 433/218/2
f 402/219/2 433/218/2 401/178/2
f 433/218/2 402/219/2 432/220/2
f 432/220/2 402/219/2 431/221/2
f 403/222/2 431/221/2 402/219/2
f 431/221/2 403/222/2 430/223/2
f 404/224/2 430/223/2 403/222/2
f 430/223/2 404/224/2 429/225/2
f 405/226/2 429/225/2 404/224/2
f 429/225/2 405/226/2 428/207/2
f 428/207/2 405/226/2 406/206/2
f 361/183/2 363/227/2 364/187/2
f 363/227/2 361/183/2 362/228/2
f 441/191/2 442/229/2 398/192/2
f 398/192/2 442/229/2 397/230/2
f 443/231/2 397/230/2 442/229/2
f 397/230/2 443/231/2 396/232/2
f 444/233/2 396/232/2 443/231/2
f 396/232/2 444/233/2 395/234/2
f 395/234/2 444/233/2 394/235/2
f 445/236/2 394/235/2 444/233/2
f 394/235/2 445/236/2 393/237/2
f 446/238/2 393/237/2 445/236/2
f 393/237/2 446/238/2 392/239/2
f 447/143/2 392/239/2 446/238/2
f 391/144/2 392/239/2 447/143/2
f 388/240/2 389/147/2 387/241/2
f 386/149/2 387/241/2 389/147/2
f 358/128/2 371/242/2 372/127/2
f 371/242/2 358/128/2 370/174/2
f 370/174/2 358/128/2 359/173/2
f 276/122/2 277/243/2 262/125/2
f 262/125/2 277/243/2 261/244/2
f 278/245/2 261/244/2 277/243/2
f 261/244/2 278/245/2 260/246/2
f 279/247/2 260/246/2 278/245/2
f 260/246/2 279/247/2 259/248/2
f 280/249/2 259/248/2 279/247/2
f 259/248/2 280/249/2 258/250/2
f 281/251/2 258/250/2 280/249/2
f 258/250/2 281/251/2 283/252/2
f 282/253/2 283/252/2 281/251/2
f 449/148/2 450/254/2 502/150/2
f 501/255/2 502/150/2 450/254/2
f 489/120/2 490/106/2 355/119/2
f 354/104/2 355/119/2 490/106/2
f 297/256/2 298/16/2 296/257/2
f 295/31/2 296/257/2 298/16/2
f 347/89/2 450/254/2 451/71/2
f 501/255/2 348/76/2 500/70/2
f 347/89/2 348/76/2 450/254/2
f 450/254/2 348/76/2 501/255/2
s 1
f 518/258/3 515/250/4 516/259/4
f 520/260/5 517/261/3 518/258/3
f 522/262/6 519/263/5 520/260/5
f 524/264/7 521/265/6 522/262/6
f 526/266/8 523/267/7 524/264/7
f 528/268/9 525/269/8 526/266/8
f 530/270/10 527/271/9 528/268/9
f 532/272/11 529/273/10 530/270/10
f 534/274/12 531/275/11 532/272/11
f 536/276/13 533/277/12 534/274/12
f 538/278/14 535/279/13 536/276/13
f 540/280/15 537/281/14 538/278/14
f 542/282/16 539/283/15 540/280/15
f 544/284/17 541/149/16 542/282/16
f 546/285/18 543/286/17 544/284/17
f 548/287/19 545/288/18 546/285/18
f 550/289/20 547/290/19 548/287/19
f 552/291/21 549/292/20 550/289/20
f 554/293/22 551/294/21 552/291/21
f 556/295/23 553/296/22 554/293/22
f 558/297/24 555/298/23 556/295/23
f 560/299/25 557/300/24 558/297/24
f 562/301/26 559/302/25 560/299/25
f 564/303/27 561/304/26 562/301/26
f 566/305/28 563/306/27 564/303/27
f 516/307/4 565/308/28 566/305/28
f 570/309/29 567/250/30 568/259/30
f 572/258/31 569/310/29 570/309/29
f 574/311/32 571/261/31 572/258/31
f 576/260/33 573/312/32 574/311/32
f 578/313/34 575/263/33 576/260/33
f 580/262/35 577/314/34 578/313/34
f 582/315/36 579/265/35 580/262/35
f 584/264/37 581/316/36 582/315/36
f 586/317/38 583/267/37 584/264/37
f 588/266/39 585/318/38 586/317/38
f 590/319/40 587/269/39 588/266/39
f 592/268/41 589/320/42 590/319/40
f 594/321/43 591/271/41 592/268/41
f 596/270/44 593/6/43 594/321/43
f 598/322/45 595/273/46 596/270/44
f 600/272/47 597/323/45 598/322/45
f 602/324/48 599/275/47 600/272/47
f 604/274/49 601/325/48 602/324/48
f 606/326/50 603/277/49 604/274/49
f 608/276/51 605/327/50 606/326/50
f 610/328/52 607/279/51 608/276/51
f 612/278/53 609/329/52 610/328/52
f 614/330/54 611/281/53 612/278/53
f 616/280/55 613/331/54 614/330/54
f 618/332/56 615/283/55 616/280/55
f 620/282/57 617/333/56 618/332/56
f 622/334/58 619/149/57 620/282/57
f 624/284/59 621/335/58 622/334/58
f 626/336/60 623/286/59 624/284/59
f 628/285/61 625/337/60 626/336/60
f 630/338/62 627/288/61 628/285/61
f 632/287/63 629/339/62 630/338/62
f 634/340/64 631/290/63 632/287/63
f 636/289/65 633/341/64 634/340/64
f 638/342/66 635/292/65 636/289/65
f 640/291/67 637/343/66 638/342/66
f 642/344/68 639/294/69 640/291/67
f 644/293/70 641/345/71 642/344/68
f 646/346/72 643/296/70 644/293/70
f 648/295/73 645/254/72 646/346/72
f 650/347/74 647/298/73 648/295/73
f 652/297/75 649/348/74 650/347/74
f 654/349/76 651/300/75 652/297/75
f 656/299/77 653/350/76 654/349/76
f 658/351/78 655/302/77 656/299/77
f 660/301/79 657/352/78 658/351/78
f 662/353/80 659/304/79 660/301/79
f 664/303/81 661/354/80 662/353/80
f 666/355/82 663/306/81 664/303/81
f 668/305/83 665/356/82 666/355/82
f 670/357/84 667/308/83 668/305/83
f 568/307/30 669/358/84 670/357/84
f 674/359/85 671/250/86 672/259/86
f 676/360/87 673/361/85 674/359/85
f 678/362/88 675/363/87 676/360/87
f 680/364/89 677/365/88 678/362/88
f 682/366/90 679/367/91 680/364/89
f 684/368/92 681/369/90 682/366/90
f 686/370/93 683/371/92 684/368/92
f 688/372/94 685/373/93 686/370/93
f 690/374/95 687/375/94 688/372/94
f 692/376/96 689/377/95 690/374/95
f 694/378/97 691/379/96 692/376/96
f 696/380/98 693/381/97 694/378/97
f 698/382/99 695/383/98 696/380/98
f 700/384/100 697/385/99 698/382/99
f 702/386/101 699/387/100 700/384/100
f 704/388/102 701/389/101 702/386/101
f 706/390/103 703/391/102 704/388/102
f 708/392/104 705/393/103 706/390/103
f 710/394/105 707/395/104 708/392/104
f 712/396/106 709/397/105 710/394/105
f 714/398/107 711/399/106 712/396/106
f 716/400/108 713/401/107 714/398/107
f 718/402/109 715/403/108 716/400/108
f 720/404/110 717/405/109 718/402/109
f 722/406/111 719/407/110 720/404/110
f 724/408/112 721/409/111 722/406/111
f 726/410/113 723/411/112 724/408/112
f 728/412/114 725/413/113 726/410/113
f 730/414/115 727/415/114 728/412/114
f 732/416/116 729/417/115 730/414/115
f 734/418/117 731/419/116 732/416/116
f 736/420/118 733/421/117 734/418/117
f 738/422/119 735/423/118 736/420/118
f 740/424/120 737/425/119 738/422/119
f 742/426/121 739/427/120 740/424/120
f 744/428/122 741/429/121 742/426/121
f 746/430/123 743/431/122 744/428/122
f 748/432/124 745/433/123 746/430/123
f 750/434/125 747/435/126 748/432/124
f 752/436/127 749/437/125 750/434/125
f 754/438/128 751/439/127 752/436/127
f 756/440/129 753/441/128 754/438/128
f 758/442/130 755/443/129 756/440/129
f 760/444/131 757/445/130 758/442/130
f 762/446/132 759/447/131 760/444/131
f 764/448/133 761/449/132 762/446/132
f 766/450/134 763/451/133 764/448/133
f 768/452/135 765/453/134 766/450/134
f 770/454/136 767/455/135 768/452/135
f 772/456/137 769/457/136 770/454/136
f 774/458/138 771/459/137 772/456/137
f 776/460/41 773/461/138 774/458/138
f 778/462/139 775/463/41 776/460/41
f 780/464/140 777/465/139 778/462/139
f 782/466/141 779/467/140 780/464/140
f 784/468/142 781/469/141 782/466/141
f 786/470/143 783/471/142 784/468/142
f 788/472/144 785/473/143 786/470/143
f 790/474/145 787/475/144 788/472/144
f 792/476/146 789/477/145 790/474/145
f 794/478/147 791/479/146 792/476/146
f 796/480/148 793/481/147 794/478/147
f 798/482/149 795/483/148 796/480/148
f 800/484/150 797/485/149 798/482/149
f 802/486/151 799/487/150 800/484/150
f 804/488/152 801/489/151 802/486/151
f 806/490/153 803/491/152 804/488/152
f 808/492/154 805/493/153 806/490/153
f 810/494/155 807/495/154 808/492/154
f 812/496/156 809/497/155 810/494/155
f 814/498/157 811/499/156 812/496/156
f 816/500/158 813/501/157 814/498/157
f 818/502/159 815/503/158 816/500/158
f 820/504/160 817/505/159 818/502/159
f 822/506/161 819/507/160 820/504/160
f 824/508/162 821/509/161 822/506/161
f 826/510/163 823/511/162 824/508/162
f 828/512/164 825/513/165 826/510/163
f 830/514/166 827/515/164 828/512/164
f 832/516/167 829/517/166 830/514/166
f 834/518/168 831/519/167 832/516/167
f 836/520/169 833/521/168 834/518/168
f 838/522/170 835/523/169 836/520/169
f 840/524/171 837/525/170 838/522/170
f 842/526/172 839/527/171 840/524/171
f 844/528/173 841/529/172 842/526/172
f 846/530/174 843/531/173 844/528/173
f 848/532/175 845/533/174 846/530/174
f 850/534/176 847/535/175 848/532/175
f 852/536/177 849/537/176 850/534/176
f 854/538/178 851/539/177 852/536/177
f 856/540/179 853/541/178 854/538/178
f 858/542/180 855/543/179 856/540/179
f 860/544/181 857/545/180 858/542/180
f 862/546/182 859/547/181 860/544/181
f 864/548/183 861/549/182 862/546/182
f 866/550/184 863/551/183 864/548/183
f 868/552/185 865/553/184 866/550/184
f 870/554/186 867/555/185 868/552/185
f 872/556/187 869/557/186 870/554/186
f 874/558/188 871/559/187 872/556/187
f 876/560/189 873/561/188 874/558/188
f 878/562/190 875/563/189 876/560/189
f 880/564/191 877/565/190 878/562/190
f 882/566/192 879/567/191 880/564/191
f 884/568/193 881/569/192 882/566/192
f 886/570/194 883/571/193 884/568/193
f 888/572/195 885/573/194 886/570/194
f 890/574/196 887/575/195 888/572/195
f 892/576/197 889/577/196 890/574/196
f 894/578/198 891/579/197 892/576/197
f 896/580/199 893/581/198 894/578/198
f 898/582/200 895/583/199 896/580/199
f 900/584/41 897/585/200 898/582/200
f 902/586/201 899/587/41 900/584/41
f 904/588/202 901/589/203 902/586/201
f 906/590/204 903/591/202 904/588/202
f 908/592/205 905/593/204 906/590/204
f 910/594/206 907/595/205 908/592/205
f 912/596/207 909/597/206 910/594/206
f 914/598/208 911/599/207 912/596/207
f 916/600/209 913/601/208 914/598/208
f 918/602/210 915/603/209 916/600/209
f 920/604/211 917/605/210 918/602/210
f 922/606/212 919/607/211 920/604/211
f 924/608/213 921/609/212 922/606/212
f 926/610/214 923/611/213 924/608/213
f 928/612/215 925/613/216 926/610/214
f 930/614/217 927/615/215 928/612/215
f 932/616/218 929/617/217 930/614/217
f 934/618/219 931/619/218 932/616/218
f 936/620/220 933/621/219 934/618/219
f 938/622/221 935/623/220 936/620/220
f 940/624/222 937/625/221 938/622/221
f 942/626/223 939/627/222 940/624/222
f 944/628/224 941/629/223 942/626/223
f 946/630/225 943/631/224 944/628/224
f 948/632/226 945/633/225 946/630/225
f 950/634/227 947/635/226 948/632/226
f 952/636/228 949/637/227 950/634/227
f 954/638/229 951/639/228 952/636/228
f 956/640/230 953/641/229 954/638/229
f 958/642/231 955/643/230 956/640/230
f 960/644/232 957/645/231 958/642/231
f 962/646/233 959/647/232 960/644/232
f 964/648/234 961/649/233 962/646/233
f 966/650/235 963/651/234 964/648/234
f 968/652/236 965/653/235 966/650/235
f 970/654/237 967/655/236 968/652/236
f 972/656/238 969/657/237 970/654/237
f 974/658/239 971/659/238 972/656/238
f 976/660/240 973/661/239 974/658/239
f 672/307/86 975/662/240 976/660/240
f 980/258/241 977/250/242 978/259/242
f 982/260/243 979/261/241 980/258/241
f 984/262/244 981/263/243 982/260/243
f 986/264/245 983/265/244 984/262/244
f 988/266/246 985/267/245 986/264/245
f 990/268/247 987/269/246 988/266/246
f 992/270/248 989/271/247 990/268/247
f 994/272/249 991/273/248 992/270/248
f 996/274/250 993/275/249 994/272/249
f 998/276/251 995/277/250 996/274/250
f 1000/278/252 997/279/251 998/276/251
f 1002/280/138 999/281/253 1000/278/252
f 1004/282/254 1001/283/138 1002/280/138
f 1006/284/255 1003/149/256 1004/282/254
f 1008/285/257 1005/286/255 1006/284/255
f 1010/287/258 1007/288/257 1008/285/257
f 1012/289/259 1009/290/258 1010/287/258
f 1014/291/260 1011/292/259 1012/289/259
f 1016/293/261 1013/294/260 1014/291/260
f 1018/295/262 1015/296/261 1016/293/261
f 1020/297/263 1017/298/262 1018/295/262
f 1022/299/264 1019/300/263 1020/297/263
f 1024/301/265 1021/302/264 1022/299/264
f 1026/303/266 1023/304/265 1024/301/265
f 1028/305/267 1025/306/266 1026/303/266
f 978/307/242 1027/308/268 1028/305/267
f 518/258/3 517/261/3 515/250/4
f 520/260/5 519/263/5 517/261/3
f 522/262/6 521/265/6 519/263/5
f 524/264/7 523/267/7 521/265/6
f 526/266/8 525/269/8 523/267/7
f 528/268/9 527/271/9 525/269/8
f 530/270/10 529/273/10 527/271/9
f 532/272/11 531/275/11 529/273/10
f 534/274/12 533/277/12 531/275/11
f 536/276/13 535/279/13 533/277/12
f 538/278/14 537/281/14 535/279/13
f 540/280/15 539/283/15 537/281/14
f 542/282/16 541/149/16 539/283/15
f 544/284/17 543/286/17 541/149/16
f 546/285/18 545/288/18 543/286/17
f 548/287/19 547/290/19 545/288/18
f 550/289/20 549/292/20 547/290/19
f 552/291/21 551/294/21 549/292/20
f 554/293/22 553/296/22 551/294/21
f 556/295/23 555/298/23 553/296/22
f 558/297/24 557/300/24 555/298/23
f 560/299/25 559/302/25 557/300/24
f 562/301/26 561/304/26 559/302/25
f 564/303/27 563/306/27 561/304/26
f 566/305/28 565/308/28 563/306/27
f 516/307/4 515/121/4 565/308/28
f 570/309/29 569/310/29 567/250/30
f 572/258/31 571/261/31 569/310/29
f 574/311/32 573/312/32 571/261/31
f 576/260/33 575/263/33 573/312/32
f 578/313/34 577/314/34 575/263/33
f 580/262/35 579/265/35 577/314/34
f 582/315/36 581/316/36 579/265/35
f 584/264/37 583/267/37 581/316/36
f 586/317/38 585/318/38 583/267/37
f 588/266/39 587/269/39 585/318/38
f 590/319/40 589/320/42 587/269/39
f 592/268/41 591/271/41 589/320/42
f 594/321/43 593/6/43 591/271/41
f 596/270/44 595/273/46 593/6/43
f 598/322/45 597/323/45 595/273/46
f 600/272/47 599/275/47 597/323/45
f 602/324/48 601/325/48 599/275/47
f 604/274/49 603/277/49 601/325/48
f 606/326/50 605/327/50 603/277/49
f 608/276/51 607/279/51 605/327/50
f 610/328/52 609/329/52 607/279/51
f 612/278/53 611/281/53 609/329/52
f 614/330/54 613/331/54 611/281/53
f 616/280/55 615/283/55 613/331/54
f 618/332/56 617/333/56 615/283/55
f 620/282/57 619/149/57 617/333/56
f 622/334/58 621/335/58 619/149/57
f 624/284/59 623/286/59 621/335/58
f 626/336/60 625/337/60 623/286/59
f 628/285/61 627/288/61 625/337/60
f 630/338/62 629/339/62 627/288/61
f 632/287/63 631/290/63 629/339/62
f 634/340/64 633/341/64 631/290/63
f 636/289/65 635/292/65 633/341/64
f 638/342/66 637/343/66 635/292/65
f 640/291/67 639/294/69 637/343/66
f 642/344/68 641/345/71 639/294/69
f 644/293/70 643/296/70 641/345/71
f 646/346/72 645/254/72 643/296/70
f 648/295/73 647/298/73 645/254/72
f 650/347/74 649/348/74 647/298/73
f 652/297/75 651/300/75 649/348/74
f 654/349/76 653/350/76 651/300/75
f 656/299/77 655/302/77 653/350/76
f 658/351/78 657/352/78 655/302/77
f 660/301/79 659/304/79 657/352/78
f 662/353/80 661/354/80 659/304/79
f 664/303/81 663/306/81 661/354/80
f 666/355/82 665/356/82 663/306/81
f 668/305/83 667/308/83 665/356/82
f 670/357/84 669/358/84 667/308/83
f 568/307/30 567/121/30 669/358/84
f 674/359/85 673/361/85 671/250/86
f 676/360/87 675/363/87 673/361/85
f 678/362/88 677/365/88 675/363/87
f 680/364/89 679/367/91 677/365/88
f 682/366/90 681/369/90 679/367/91
f 684/368/92 683/371/92 681/369/90
f 686/370/93 685/373/93 683/371/92
f 688/372/94 687/375/94 685/373/93
f 690/374/95 689/377/95 687/375/94
f 692/376/96 691/379/96 689/377/95
f 694/378/97 693/381/97 691/379/96
f 696/380/98 695/383/98 693/381/97
f 698/382/99 697/385/99 695/383/98
f 700/384/100 699/387/100 697/385/99
f 702/386/101 701/389/101 699/387/100
f 704/388/102 703/391/102 701/389/101
f 706/390/103 705/393/103 703/391/102
f 708/392/104 707/395/104 705/393/103
f 710/394/105 709/397/105 707/395/104
f 712/396/106 711/399/106 709/397/105
f 714/398/107 713/401/107 711/399/106
f 716/400/108 715/403/108 713/401/107
f 718/402/109 717/405/109 715/403/108
f 720/404/110 719/407/110 717/405/109
f 722/406/111 721/409/111 719/407/110
f 724/408/112 723/411/112 721/409/111
f 726/410/113 725/413/113 723/411/112
f 728/412/114 727/415/114 725/413/113
f 730/414/115 729/417/115 727/415/114
f 732/416/116 731/419/116 729/417/115
f 734/418/117 733/421/117 731/419/116
f 736/420/118 735/423/118 733/421/117
f 738/422/119 737/425/119 735/423/118
f 740/424/120 739/427/120 737/425/119
f 742/426/121 741/429/121 739/427/120
f 744/428/122 743/431/122 741/429/121
f 746/430/123 745/433/123 743/431/122
f 748/432/124 747/435/126 745/433/123
f 750/434/125 749/437/125 747/435/126
f 752/436/127 751/439/127 749/437/125
f 754/438/128 753/441/128 751/439/127
f 756/440/129 755/443/129 753/441/128
f 758/442/130 757/445/130 755/443/129
f 760/444/131 759/447/131 757/445/130
f 762/446/132 761/449/132 759/447/131
f 764/448/133 763/451/133 761/449/132
f 766/450/134 765/453/134 763/451/133
f 768/452/135 767/455/135 765/453/134
f 770/454/136 769/457/136 767/455/135
f 772/456/137 771/459/137 769/457/136
f 774/458/138 773/461/138 771/459/137
f 776/460/41 775/463/41 773/461/138
f 778/462/139 777/465/139 775/463/41
f 780/464/140 779/467/140 777/465/139
f 782/466/141 781/469/141 779/467/140
f 784/468/142 783/471/142 781/469/141
f 786/470/143 785/473/143 783/471/142
f 788/472/144 787/475/144 785/473/143
f 790/474/145 789/477/145 787/475/144
f 792/476/146 791/479/146 789/477/145
f 794/478/147 793/481/147 791/479/146
f 796/480/148 795/483/148 793/481/147
f 798/482/149 797/485/149 795/483/148
f 800/484/150 799/487/150 797/485/149
f 802/486/151 801/489/151 799/487/150
f 804/488/152 803/491/152 801/489/151
f 806/490/153 805/493/153 803/491/152
f 808/492/154 807/495/154 805/493/153
f 810/494/155 809/497/155 807/495/154
f 812/496/156 811/499/156 809/497/155
f 814/498/157 813/501/157 811/499/156
f 816/500/158 815/503/158 813/501/157
f 818/502/159 817/505/159 815/503/158
f 820/504/160 819/507/160 817/505/159
f 822/506/161 821/509/161 819/507/160
f 824/508/162 823/511/162 821/509/161
f 826/510/163 825/513/165 823/511/162
f 828/512/164 827/515/164 825/513/165
f 830/514/166 829/517/166 827/515/164
f 832/516/167 831/519/167 829/517/166
f 834/518/168 833/521/168 831/519/167
f 836/520/169 835/523/169 833/521/168
f 838/522/170 837/525/170 835/523/169
f 840/524/171 839/527/171 837/525/170
f 842/526/172 841/529/172 839/527/171
f 844/528/173 843/531/173 841/529/172
f 846/530/174 845/533/174 843/531/173
f 848/532/175 847/535/175 845/533/174
f 850/534/176 849/537/176 847/535/175
f 852/536/177 851/539/177 849/537/176
f 854/538/178 853/541/178 851/539/177
f 856/540/179 855/543/179 853/541/178
f 858/542/180 857/545/180 855/543/179
f 860/544/181 859/547/181 857/545/180
f 862/546/182 861/549/182 859/547/181
f 864/548/183 863/551/183 861/549/182
f 866/550/184 865/553/184 863/551/183
f 868/552/185 867/555/185 865/553/184
f 870/554/186 869/557/186 867/555/185
f 872/556/187 871/559/187 869/557/186
f 874/558/188 873/561/188 871/559/187
f 876/560/189 875/563/189 873/561/188
f 878/562/190 877/565/190 875/563/189
f 880/564/191 879/567/191 877/565/190
f 882/566/192 881/569/192 879/567/191
f 884/568/193 883/571/193 881/569/192
f 886/570/194 885/573/194 883/571/193
f 888/572/195 887/575/195 885/573/194
f 890/574/196 889/577/196 887/575/195
f 892/576/197 891/579/197 889/577/196
f 894/578/198 893/581/198 891/579/197
f 896/580/199 895/583/199 893/581/198
f 898/582/200 897/585/200 895/583/199
f 900/584/41 899/587/41 897/585/200
f 902/586/201 901/589/203 899/587/41
f 904/588/202 903/591/202 901/589/203
f 906/590/204 905/593/204 903/591/202
f 908/592/205 907/595/205 905/593/204
f 910/594/206 909/597/206 907/595/205
f 912/596/207 911/599/207 909/597/206
f 914/598/208 913/601/208 911/599/207
f 916/600/209 915/603/209 913/601/208
f 918/602/210 917/605/210 915/603/209
f 920/604/211 919/607/211 917/605/210
f 922/606/212 921/609/212 919/607/211
f 924/608/213 923/611/213 921/609/212
f 926/610/214 925/613/216 923/611/213
f 928/612/215 927/615/215 925/613/216
f 930/614/217 929/617/217 927/615/215
f 932/616/218 931/619/218 929/617/217
f 934/618/219 933/621/219 931/619/218
f 936/620/220 935/623/220 933/621/219
f 938/622/221 937/625/221 935/623/220
f 940/624/222 939/627/222 937/625/221
f 942/626/223 941/629/223 939/627/222
f 944/628/224 943/631/224 941/629/223
f 946/630/225 945/633/225 943/631/224
f 948/632/226 947/635/226 945/633/225
f 950/634/227 949/637/227 947/635/226
f 952/636/228 951/639/228 949/637/227
f 954/638/229 953/641/229 951/639/228
f 956/640/230 955/643/230 953/641/229
f 958/642/231 957/645/231 955/643/230
f 960/644/232 959/647/232 957/645/231
f 962/646/233 961/649/233 959/647/232
f 964/648/234 963/651/234 961/649/233
f 966/650/235 965/653/235 963/651/234
f 968/652/236 967/655/236 965/653/235
f 970/654/237 969/657/237 967/655/236
f 972/656/238 971/659/238 969/657/237
f 974/658/239 973/661/239 971/659/238
f 976/660/240 975/662/240 973/661/239
f 672/307/86 671/121/86 975/662/240
f 980/258/241 979/261/241 977/250/242
f 982/260/243 981/263/243 979/261/241
f 984/262/244 983/265/244 981/263/243
f 986/264/245 985/267/245 983/265/244
f 988/266/246 987/269/246 985/267/245
f 990/268/247 989/271/247 987/269/246
f 992/270/248 991/273/248 989/271/247
f 994/272/249 993/275/249 991/273/248
f 996/274/250 995/277/250 993/275/249
f 998/276/251 997/279/251 995/277/250
f 1000/278/252 999/281/253 997/279/251
f 1002/280/138 1001/283/138 999/281/253
f 1004/282/254 1003/149/256 1001/283/138
f 1006/284/255 1005/286/255 1003/149/256
f 1008/285/257 1007/288/257 1005/286/255
f 1010/287/258 1009/290/258 1007/288/257
f 1012/289/259 1011/292/259 1009/290/258
f 1014/291/260 1013/294/260 1011/292/259
f 1016/293/261 1015/296/261 1013/294/260
f 1018/295/262 1017/298/262 1015/296/261
f 1020/297/263 1019/300/263 1017/298/262
f 1022/299/264 1021/302/264 1019/300/263
f 1024/301/265 1023/304/265 1021/302/264
f 1026/303/266 1025/306/266 1023/304/265
f 1028/305/267 1027/308/268 1025/306/266
f 978/307/242 977/121/242 1027/308/268
