# Blender 5.0.1
# www.blender.org
mtllib multiMaterial.mtl
o Plane
v -1.000000 -1.000000 -0.000000
v 1.000000 -1.000000 -0.000000
v -1.000000 1.000000 0.000000
v 1.000000 1.000000 0.000000
vn -0.0000 -0.0000 1.0000
vt 1.000000 0.000000
vt 0.000000 1.000000
vt 0.000000 0.000000
vt 1.000000 1.000000
s 0
usemtl Material.001
f 2/1/1 3/2/1 1/3/1
f 2/1/1 4/4/1 3/2/1
o Cube
v 1.495951 0.226224 0.724649
v 1.495951 2.226224 0.724649
v 1.495951 0.226224 -1.275351
v 1.495951 2.226224 -1.275351
v 3.495951 0.226224 0.724649
v 3.495951 2.226224 0.724649
v 3.495951 0.226224 -1.275351
v 3.495951 2.226224 -1.275351
vn -1.0000 -0.0000 -0.0000
vn -0.0000 -0.0000 -1.0000
vn 1.0000 -0.0000 -0.0000
vn -0.0000 -0.0000 1.0000
vn -0.0000 -1.0000 -0.0000
vn -0.0000 1.0000 -0.0000
vt 0.250000 1.000000
vt 0.750000 0.000000
vt 0.250000 0.000000
vt 0.750000 1.000000
s 0
usemtl Material
f 6/5/2 7/6/2 5/7/2
f 8/5/3 11/6/3 7/7/3
f 12/8/4 9/7/4 11/6/4
f 10/8/5 5/7/5 9/6/5
f 11/8/6 5/7/6 7/5/6
f 8/5/7 10/6/7 12/8/7
f 6/5/2 8/8/2 7/6/2
f 10/8/5 6/5/5 5/7/5
f 11/8/6 9/6/6 5/7/6
f 8/5/7 6/7/7 10/6/7
f 8/5/3 12/8/3 11/6/3
f 12/8/4 10/5/4 9/7/4
