# Blender 5.1.2
# www.blender.org
mtllib height.mtl
o テキスト
v 0.219000 -0.032000 0.100000
v 0.219000 0.059000 0.100000
v -0.214000 0.059000 0.100000
v -0.214000 -0.032000 0.100000
v 0.297000 -0.087000 0.100000
v -0.289000 -0.087000 0.100000
v -0.289000 0.114000 0.100000
v 0.297000 0.114000 0.100000
v 0.019047 0.328362 0.100000
v 0.025128 0.312953 0.100000
v 0.031157 0.297108 0.100000
v 0.037047 0.281157 0.100000
v 0.042709 0.265434 0.100000
v 0.048055 0.250271 0.100000
v 0.053000 0.236000 0.100000
v 0.437000 0.236000 0.100000
v 0.437000 0.170000 0.100000
v -0.441000 0.170000 0.100000
v -0.441000 0.236000 0.100000
v -0.030000 0.236000 0.100000
v -0.059000 0.326000 0.100000
v 0.013000 0.343000 0.100000
v 0.405000 -0.500000 0.100000
v 0.404423 -0.514615 0.100000
v 0.402586 -0.526921 0.100000
v 0.399332 -0.537181 0.100000
v 0.394504 -0.545656 0.100000
v 0.387945 -0.552609 0.100000
v 0.379496 -0.558303 0.100000
v 0.369000 -0.563000 0.100000
v 0.356434 -0.566332 0.100000
v 0.341822 -0.568720 0.100000
v 0.325076 -0.570321 0.100000
v 0.306108 -0.571292 0.100000
v 0.284831 -0.571790 0.100000
v 0.261157 -0.571974 0.100000
v 0.235000 -0.572000 0.100000
v 0.232883 -0.564015 0.100000
v 0.230067 -0.555627 0.100000
v 0.226708 -0.547047 0.100000
v 0.222965 -0.538484 0.100000
v 0.218994 -0.530149 0.100000
v 0.214953 -0.522251 0.100000
v 0.211000 -0.515000 0.100000
v 0.229560 -0.515685 0.100000
v 0.247927 -0.516073 0.100000
v 0.265420 -0.516233 0.100000
v 0.281356 -0.516236 0.100000
v 0.295053 -0.516152 0.100000
v 0.305828 -0.516050 0.100000
v 0.313000 -0.516000 0.100000
v 0.317720 -0.515746 0.100000
v 0.321618 -0.514950 0.100000
v 0.324729 -0.513560 0.100000
v 0.327088 -0.511522 0.100000
v 0.328729 -0.508784 0.100000
v 0.329688 -0.505294 0.100000
v 0.330000 -0.501000 0.100000
v 0.330000 -0.206000 0.100000
v -0.332000 -0.206000 0.100000
v -0.332000 -0.579000 0.100000
v -0.404000 -0.579000 0.100000
v -0.404000 -0.143000 0.100000
v 0.405000 -0.143000 0.100000
v 0.206000 -0.471000 0.100000
v -0.148000 -0.471000 0.100000
v -0.148000 -0.521000 0.100000
v -0.219000 -0.521000 0.100000
v -0.219000 -0.265000 0.100000
v 0.206000 -0.265000 0.100000
v 0.138000 -0.415000 0.100000
v 0.138000 -0.321000 0.100000
v -0.148000 -0.321000 0.100000
v -0.148000 -0.415000 0.100000
v 0.219000 -0.032000 -0.100000
v 0.219000 0.059000 -0.100000
v -0.214000 0.059000 -0.100000
v -0.214000 -0.032000 -0.100000
v 0.297000 -0.087000 -0.100000
v -0.289000 -0.087000 -0.100000
v -0.289000 0.114000 -0.100000
v 0.297000 0.114000 -0.100000
v 0.019047 0.328362 -0.100000
v 0.025128 0.312953 -0.100000
v 0.031157 0.297108 -0.100000
v 0.037047 0.281157 -0.100000
v 0.042708 0.265434 -0.100000
v 0.048055 0.250271 -0.100000
v 0.053000 0.236000 -0.100000
v 0.437000 0.236000 -0.100000
v 0.437000 0.170000 -0.100000
v -0.441000 0.170000 -0.100000
v -0.441000 0.236000 -0.100000
v -0.030000 0.236000 -0.100000
v -0.059000 0.326000 -0.100000
v 0.013000 0.343000 -0.100000
v 0.405000 -0.500000 -0.100000
v 0.404423 -0.514615 -0.100000
v 0.402586 -0.526921 -0.100000
v 0.399332 -0.537181 -0.100000
v 0.394504 -0.545656 -0.100000
v 0.387945 -0.552609 -0.100000
v 0.379496 -0.558303 -0.100000
v 0.369000 -0.563000 -0.100000
v 0.356434 -0.566332 -0.100000
v 0.341822 -0.568720 -0.100000
v 0.325076 -0.570321 -0.100000
v 0.306108 -0.571292 -0.100000
v 0.284831 -0.571790 -0.100000
v 0.261157 -0.571974 -0.100000
v 0.235000 -0.572000 -0.100000
v 0.232883 -0.564015 -0.100000
v 0.230067 -0.555627 -0.100000
v 0.226708 -0.547047 -0.100000
v 0.222965 -0.538484 -0.100000
v 0.218994 -0.530149 -0.100000
v 0.214953 -0.522251 -0.100000
v 0.211000 -0.515000 -0.100000
v 0.229560 -0.515685 -0.100000
v 0.247927 -0.516073 -0.100000
v 0.265420 -0.516233 -0.100000
v 0.281356 -0.516236 -0.100000
v 0.295053 -0.516152 -0.100000
v 0.305828 -0.516050 -0.100000
v 0.313000 -0.516000 -0.100000
v 0.317720 -0.515746 -0.100000
v 0.321618 -0.514950 -0.100000
v 0.324729 -0.513560 -0.100000
v 0.327088 -0.511522 -0.100000
v 0.328729 -0.508784 -0.100000
v 0.329688 -0.505294 -0.100000
v 0.330000 -0.501000 -0.100000
v 0.330000 -0.206000 -0.100000
v -0.332000 -0.206000 -0.100000
v -0.332000 -0.579000 -0.100000
v -0.404000 -0.579000 -0.100000
v -0.404000 -0.143000 -0.100000
v 0.405000 -0.143000 -0.100000
v 0.206000 -0.471000 -0.100000
v -0.148000 -0.471000 -0.100000
v -0.148000 -0.521000 -0.100000
v -0.219000 -0.521000 -0.100000
v -0.219000 -0.265000 -0.100000
v 0.206000 -0.265000 -0.100000
v 0.138000 -0.415000 -0.100000
v 0.138000 -0.321000 -0.100000
v -0.148000 -0.321000 -0.100000
v -0.148000 -0.415000 -0.100000
v 0.219000 -0.032000 -0.100000
v 0.219000 -0.032000 0.100000
v 0.219000 0.059000 -0.100000
v 0.219000 0.059000 0.100000
v -0.214000 0.059000 -0.100000
v -0.214000 0.059000 0.100000
v -0.214000 -0.032000 -0.100000
v -0.214000 -0.032000 0.100000
v 0.297000 -0.087000 -0.100000
v 0.297000 -0.087000 0.100000
v -0.289000 -0.087000 -0.100000
v -0.289000 -0.087000 0.100000
v -0.289000 0.114000 -0.100000
v -0.289000 0.114000 0.100000
v 0.297000 0.114000 -0.100000
v 0.297000 0.114000 0.100000
v 0.019047 0.328362 -0.100000
v 0.019047 0.328362 0.100000
v 0.025128 0.312953 -0.100000
v 0.025128 0.312953 0.100000
v 0.031157 0.297108 -0.100000
v 0.031157 0.297108 0.100000
v 0.037047 0.281157 -0.100000
v 0.037047 0.281157 0.100000
v 0.042708 0.265434 -0.100000
v 0.042709 0.265434 0.100000
v 0.048055 0.250271 -0.100000
v 0.048055 0.250271 0.100000
v 0.053000 0.236000 -0.100000
v 0.053000 0.236000 0.100000
v 0.437000 0.236000 -0.100000
v 0.437000 0.236000 0.100000
v 0.437000 0.170000 -0.100000
v 0.437000 0.170000 0.100000
v -0.441000 0.170000 -0.100000
v -0.441000 0.170000 0.100000
v -0.441000 0.236000 -0.100000
v -0.441000 0.236000 0.100000
v -0.030000 0.236000 -0.100000
v -0.030000 0.236000 0.100000
v -0.059000 0.326000 -0.100000
v -0.059000 0.326000 0.100000
v 0.013000 0.343000 -0.100000
v 0.013000 0.343000 0.100000
v 0.405000 -0.500000 -0.100000
v 0.405000 -0.500000 0.100000
v 0.404423 -0.514615 -0.100000
v 0.404423 -0.514615 0.100000
v 0.402586 -0.526921 -0.100000
v 0.402586 -0.526921 0.100000
v 0.399332 -0.537181 -0.100000
v 0.399332 -0.537181 0.100000
v 0.394504 -0.545656 -0.100000
v 0.394504 -0.545656 0.100000
v 0.387945 -0.552609 -0.100000
v 0.387945 -0.552609 0.100000
v 0.379496 -0.558303 -0.100000
v 0.379496 -0.558303 0.100000
v 0.369000 -0.563000 -0.100000
v 0.369000 -0.563000 0.100000
v 0.356434 -0.566332 -0.100000
v 0.356434 -0.566332 0.100000
v 0.341822 -0.568720 -0.100000
v 0.341822 -0.568720 0.100000
v 0.325076 -0.570321 -0.100000
v 0.325076 -0.570321 0.100000
v 0.306108 -0.571292 -0.100000
v 0.306108 -0.571292 0.100000
v 0.284831 -0.571790 -0.100000
v 0.284831 -0.571790 0.100000
v 0.261157 -0.571974 -0.100000
v 0.261157 -0.571974 0.100000
v 0.235000 -0.572000 -0.100000
v 0.235000 -0.572000 0.100000
v 0.232883 -0.564015 -0.100000
v 0.232883 -0.564015 0.100000
v 0.230067 -0.555627 -0.100000
v 0.230067 -0.555627 0.100000
v 0.226708 -0.547047 -0.100000
v 0.226708 -0.547047 0.100000
v 0.222965 -0.538484 -0.100000
v 0.222965 -0.538484 0.100000
v 0.218994 -0.530149 -0.100000
v 0.218994 -0.530149 0.100000
v 0.214953 -0.522251 -0.100000
v 0.214953 -0.522251 0.100000
v 0.211000 -0.515000 -0.100000
v 0.211000 -0.515000 0.100000
v 0.229560 -0.515685 -0.100000
v 0.229560 -0.515685 0.100000
v 0.247927 -0.516073 -0.100000
v 0.247927 -0.516073 0.100000
v 0.265420 -0.516233 -0.100000
v 0.265420 -0.516233 0.100000
v 0.281356 -0.516236 -0.100000
v 0.281356 -0.516236 0.100000
v 0.295053 -0.516152 -0.100000
v 0.295053 -0.516152 0.100000
v 0.305828 -0.516050 -0.100000
v 0.305828 -0.516050 0.100000
v 0.313000 -0.516000 -0.100000
v 0.313000 -0.516000 0.100000
v 0.317720 -0.515746 -0.100000
v 0.317720 -0.515746 0.100000
v 0.321618 -0.514950 -0.100000
v 0.321618 -0.514950 0.100000
v 0.324729 -0.513560 -0.100000
v 0.324729 -0.513560 0.100000
v 0.327088 -0.511522 -0.100000
v 0.327088 -0.511522 0.100000
v 0.328729 -0.508784 -0.100000
v 0.328729 -0.508784 0.100000
v 0.329688 -0.505294 -0.100000
v 0.329688 -0.505294 0.100000
v 0.330000 -0.501000 -0.100000
v 0.330000 -0.501000 0.100000
v 0.330000 -0.206000 -0.100000
v 0.330000 -0.206000 0.100000
v -0.332000 -0.206000 -0.100000
v -0.332000 -0.206000 0.100000
v -0.332000 -0.579000 -0.100000
v -0.332000 -0.579000 0.100000
v -0.404000 -0.579000 -0.100000
v -0.404000 -0.579000 0.100000
v -0.404000 -0.143000 -0.100000
v -0.404000 -0.143000 0.100000
v 0.405000 -0.143000 -0.100000
v 0.405000 -0.143000 0.100000
v 0.206000 -0.471000 -0.100000
v 0.206000 -0.471000 0.100000
v -0.148000 -0.471000 -0.100000
v -0.148000 -0.471000 0.100000
v -0.148000 -0.521000 -0.100000
v -0.148000 -0.521000 0.100000
v -0.219000 -0.521000 -0.100000
v -0.219000 -0.521000 0.100000
v -0.219000 -0.265000 -0.100000
v -0.219000 -0.265000 0.100000
v 0.206000 -0.265000 -0.100000
v 0.206000 -0.265000 0.100000
v 0.138000 -0.415000 -0.100000
v 0.138000 -0.415000 0.100000
v 0.138000 -0.321000 -0.100000
v 0.138000 -0.321000 0.100000
v -0.148000 -0.321000 -0.100000
v -0.148000 -0.321000 0.100000
v -0.148000 -0.415000 -0.100000
v -0.148000 -0.415000 0.100000
vn -0.0000 -0.0000 1.0000
vn -0.0000 -0.0000 -1.0000
vn -0.7071 -0.7071 -0.0000
vn -0.7071 0.7071 -0.0000
vn 0.7071 -0.7071 -0.0000
vn 0.7071 0.7071 -0.0000
vn 0.9324 0.3614 -0.0000
vn 0.9272 0.3745 -0.0000
vn 0.9364 0.3510 -0.0000
vn 0.9395 0.3426 -0.0000
vn 0.9420 0.3357 -0.0000
vn 0.9440 0.3300 -0.0000
vn 0.5799 0.8147 -0.0000
vn -0.8083 0.5888 -0.0000
vn -0.8710 0.4913 -0.0000
vn 0.4561 0.8899 -0.0000
vn 0.9956 -0.0937 -0.0000
vn 0.9998 -0.0197 -0.0000
vn 0.9742 -0.2257 -0.0000
vn 0.9161 -0.4009 -0.0000
vn 0.8039 -0.5948 -0.0000
vn 0.6471 -0.7624 -0.0000
vn 0.4855 -0.8743 -0.0000
vn 0.3335 -0.9428 -0.0000
vn 0.2091 -0.9779 -0.0000
vn 0.1283 -0.9917 -0.0000
vn 0.2090 -0.9779 -0.0000
vn 0.0731 -0.9973 -0.0000
vn 0.0373 -0.9993 -0.0000
vn 0.0156 -0.9999 -0.0000
vn 0.0044 -1.0000 -0.0000
vn -0.6094 -0.7928 -0.0000
vn -0.9578 -0.2874 -0.0000
vn -0.9399 -0.3415 -0.0000
vn -0.9239 -0.3826 -0.0000
vn -0.9096 -0.4154 -0.0000
vn -0.8966 -0.4428 -0.0000
vn -0.8842 -0.4671 -0.0000
vn -0.8503 0.5263 -0.0000
vn 0.0290 0.9996 -0.0000
vn 0.0151 0.9999 -0.0000
vn 0.0047 1.0000 -0.0000
vn -0.0030 1.0000 -0.0000
vn -0.0078 1.0000 -0.0000
vn -0.0082 1.0000 -0.0000
vn -0.0303 0.9995 -0.0000
vn -0.1272 0.9919 -0.0000
vn -0.3059 0.9521 -0.0000
vn -0.5367 0.8438 -0.0000
vn -0.7654 0.6436 -0.0000
vn -0.9194 0.3932 -0.0000
vn -0.9855 0.1695 -0.0000
vn -0.9194 0.3933 -0.0000
vn -0.9993 0.0362 -0.0000
vn -0.9855 0.1696 -0.0000
vt 0.821918 0.000000
vt 0.808219 0.000000
vt 0.835616 0.000000
vt 0.849315 0.000000
vt 1.000000 0.000000
vt 0.986301 0.000000
vt 0.931507 0.000000
vt 0.904110 0.000000
vt 0.890411 0.000000
vt 0.917808 0.000000
vt 0.082192 0.000000
vt 0.068493 0.000000
vt 0.041096 0.000000
vt 0.027397 0.000000
vt 0.972603 0.000000
vt 0.876712 0.000000
vt 0.945205 0.000000
vt 0.958904 0.000000
vt 0.191781 0.000000
vt 0.178082 0.000000
vt 0.260274 0.000000
vt 0.164384 0.000000
vt 0.150685 0.000000
vt 0.136986 0.000000
vt 0.123288 0.000000
vt 0.273973 0.000000
vt 0.109589 0.000000
vt 0.287671 0.000000
vt 0.643836 0.000000
vt 0.630137 0.000000
vt 0.465753 0.000000
vt 0.479452 0.000000
vt 0.616438 0.000000
vt 0.506849 0.000000
vt 0.493151 0.000000
vt 0.520548 0.000000
vt 0.671233 0.000000
vt 0.657534 0.000000
vt 0.452055 0.000000
vt 0.684932 0.000000
vt 0.410959 0.000000
vt 0.397260 0.000000
vt 0.739726 0.000000
vt 0.753425 0.000000
vt 0.383562 0.000000
vt 0.369863 0.000000
vt 0.356164 0.000000
vt 0.342466 0.000000
vt 0.328767 0.000000
vt 0.767123 0.000000
vt 0.315068 0.000000
vt 0.780822 0.000000
vt 0.301370 0.000000
vt 0.794521 0.000000
vt 0.863014 0.000000
vt 0.438356 0.000000
vt 0.698630 0.000000
vt 0.712329 0.000000
vt 0.424658 0.000000
vt 0.726027 0.000000
vt 0.534247 0.000000
vt 0.547945 0.000000
vt 0.602740 0.000000
vt 0.561644 0.000000
vt 0.575342 0.000000
vt 0.589041 0.000000
vt 0.013699 0.000000
vt 0.000000 0.000000
vt 0.054795 0.000000
vt 0.095890 0.000000
vt 0.246575 0.000000
vt 0.232877 0.000000
vt 0.219178 0.000000
vt 0.205479 0.000000
vt 0.250000 1.000000
vt 0.000000 1.000000
vt 0.500000 1.000000
vt 0.250000 0.000000
vt 0.750000 1.000000
vt 0.500000 0.000000
vt 1.000000 1.000000
vt 0.750000 0.000000
vt 0.071429 1.000000
vt 0.142857 1.000000
vt 0.071429 0.000000
vt 0.214286 1.000000
vt 0.142857 0.000000
vt 0.285714 1.000000
vt 0.214286 0.000000
vt 0.357143 1.000000
vt 0.285714 0.000000
vt 0.428571 1.000000
vt 0.357143 0.000000
vt 0.428571 0.000000
vt 0.571429 1.000000
vt 0.642857 1.000000
vt 0.571429 0.000000
vt 0.714286 1.000000
vt 0.642857 0.000000
vt 0.785714 1.000000
vt 0.714286 0.000000
vt 0.857143 1.000000
vt 0.785714 0.000000
vt 0.928571 1.000000
vt 0.857143 0.000000
vt 0.928571 0.000000
vt 0.023810 1.000000
vt 0.047619 1.000000
vt 0.023810 0.000000
vt 0.047619 0.000000
vt 0.095238 1.000000
vt 0.119048 1.000000
vt 0.095238 0.000000
vt 0.119048 0.000000
vt 0.166667 1.000000
vt 0.190476 1.000000
vt 0.166667 0.000000
vt 0.190476 0.000000
vt 0.238095 1.000000
vt 0.261905 1.000000
vt 0.238095 0.000000
vt 0.261905 0.000000
vt 0.309524 1.000000
vt 0.333333 1.000000
vt 0.309524 0.000000
vt 0.333333 0.000000
vt 0.380952 1.000000
vt 0.404762 1.000000
vt 0.380952 0.000000
vt 0.404762 0.000000
vt 0.452381 1.000000
vt 0.476190 1.000000
vt 0.452381 0.000000
vt 0.476190 0.000000
vt 0.523810 1.000000
vt 0.547619 1.000000
vt 0.523810 0.000000
vt 0.547619 0.000000
vt 0.595238 1.000000
vt 0.619048 1.000000
vt 0.595238 0.000000
vt 0.619048 0.000000
vt 0.666667 1.000000
vt 0.690476 1.000000
vt 0.666667 0.000000
vt 0.690476 0.000000
vt 0.738095 1.000000
vt 0.761905 1.000000
vt 0.738095 0.000000
vt 0.761905 0.000000
vt 0.809524 1.000000
vt 0.833333 1.000000
vt 0.809524 0.000000
vt 0.833333 0.000000
vt 0.880952 1.000000
vt 0.904762 1.000000
vt 0.880952 0.000000
vt 0.904762 0.000000
vt 0.952381 1.000000
vt 0.976190 1.000000
vt 0.952381 0.000000
vt 0.976190 0.000000
s 0
usemtl マテリアル
f 61/1/1 60/2/1 62/3/1
f 63/4/1 62/3/1 60/2/1
f 74/5/1 73/6/1 69/7/1
f 67/8/1 66/9/1 68/10/1
f 66/9/1 74/5/1 68/10/1
f 74/5/1 69/7/1 68/10/1
f 7/11/1 6/12/1 4/13/1
f 4/13/1 3/14/1 7/11/1
f 72/15/1 65/16/1 70/17/1
f 65/16/1 72/15/1 71/18/1
f 74/5/1 66/9/1 71/18/1
f 15/19/1 14/20/1 20/21/1
f 14/20/1 13/22/1 20/21/1
f 13/22/1 12/23/1 20/21/1
f 12/23/1 11/24/1 20/21/1
f 11/24/1 10/25/1 20/21/1
f 21/26/1 20/21/1 10/25/1
f 10/25/1 9/27/1 21/26/1
f 9/27/1 22/28/1 21/26/1
f 48/29/1 47/30/1 35/31/1
f 35/31/1 47/30/1 36/32/1
f 46/33/1 36/32/1 47/30/1
f 38/34/1 37/35/1 36/32/1
f 39/36/1 38/34/1 36/32/1
f 36/32/1 46/33/1 39/36/1
f 50/37/1 49/38/1 34/39/1
f 34/39/1 51/40/1 50/37/1
f 34/39/1 49/38/1 35/31/1
f 48/29/1 35/31/1 49/38/1
f 31/41/1 30/42/1 55/43/1
f 56/44/1 55/43/1 30/42/1
f 56/44/1 30/42/1 29/45/1
f 29/45/1 28/46/1 56/44/1
f 28/46/1 27/47/1 56/44/1
f 27/47/1 26/48/1 56/44/1
f 26/48/1 25/49/1 56/44/1
f 57/50/1 56/44/1 25/49/1
f 25/49/1 24/51/1 57/50/1
f 58/52/1 57/50/1 24/51/1
f 24/51/1 23/53/1 58/52/1
f 59/54/1 58/52/1 23/53/1
f 23/53/1 64/55/1 59/54/1
f 51/40/1 34/39/1 33/56/1
f 52/57/1 51/40/1 33/56/1
f 53/58/1 52/57/1 33/56/1
f 33/56/1 32/59/1 53/58/1
f 54/60/1 53/58/1 32/59/1
f 32/59/1 31/41/1 54/60/1
f 31/41/1 55/43/1 54/60/1
f 39/36/1 46/33/1 40/61/1
f 41/62/1 40/61/1 46/33/1
f 46/33/1 45/63/1 41/62/1
f 42/64/1 41/62/1 45/63/1
f 43/65/1 42/64/1 45/63/1
f 44/66/1 43/65/1 45/63/1
f 2/67/1 1/68/1 5/69/1
f 5/69/1 8/70/1 2/67/1
f 7/11/1 3/14/1 2/67/1
f 2/67/1 8/70/1 7/11/1
f 4/13/1 6/12/1 1/68/1
f 5/69/1 1/68/1 6/12/1
f 72/15/1 70/17/1 73/6/1
f 19/71/1 18/72/1 20/21/1
f 18/72/1 17/73/1 20/21/1
f 15/19/1 20/21/1 17/73/1
f 17/73/1 16/74/1 15/19/1
f 69/7/1 73/6/1 70/17/1
f 59/54/1 64/55/1 63/4/1
f 63/4/1 60/2/1 59/54/1
f 65/16/1 71/18/1 66/9/1
f 135/1/2 136/3/2 134/2/2
f 137/4/2 134/2/2 136/3/2
f 148/5/2 143/7/2 147/6/2
f 141/8/2 142/10/2 140/9/2
f 140/9/2 142/10/2 148/5/2
f 148/5/2 142/10/2 143/7/2
f 81/11/2 78/13/2 80/12/2
f 78/13/2 81/11/2 77/14/2
f 146/15/2 144/17/2 139/16/2
f 139/16/2 145/18/2 146/15/2
f 148/5/2 145/18/2 140/9/2
f 89/19/2 94/21/2 88/20/2
f 88/20/2 94/21/2 87/22/2
f 87/22/2 94/21/2 86/23/2
f 86/23/2 94/21/2 85/24/2
f 85/24/2 94/21/2 84/25/2
f 95/26/2 84/25/2 94/21/2
f 84/25/2 95/26/2 83/27/2
f 83/27/2 95/26/2 96/28/2
f 122/29/2 109/31/2 121/30/2
f 109/31/2 110/32/2 121/30/2
f 120/33/2 121/30/2 110/32/2
f 112/34/2 110/32/2 111/35/2
f 113/36/2 110/32/2 112/34/2
f 110/32/2 113/36/2 120/33/2
f 124/37/2 108/39/2 123/38/2
f 108/39/2 124/37/2 125/40/2
f 108/39/2 109/31/2 123/38/2
f 122/29/2 123/38/2 109/31/2
f 105/41/2 129/43/2 104/42/2
f 130/44/2 104/42/2 129/43/2
f 130/44/2 103/45/2 104/42/2
f 103/45/2 130/44/2 102/46/2
f 102/46/2 130/44/2 101/47/2
f 101/47/2 130/44/2 100/48/2
f 100/48/2 130/44/2 99/49/2
f 131/50/2 99/49/2 130/44/2
f 99/49/2 131/50/2 98/51/2
f 132/52/2 98/51/2 131/50/2
f 98/51/2 132/52/2 97/53/2
f 133/54/2 97/53/2 132/52/2
f 97/53/2 133/54/2 138/55/2
f 125/40/2 107/56/2 108/39/2
f 126/57/2 107/56/2 125/40/2
f 127/58/2 107/56/2 126/57/2
f 107/56/2 127/58/2 106/59/2
f 128/60/2 106/59/2 127/58/2
f 106/59/2 128/60/2 105/41/2
f 105/41/2 128/60/2 129/43/2
f 113/36/2 114/61/2 120/33/2
f 115/62/2 120/33/2 114/61/2
f 120/33/2 115/62/2 119/63/2
f 116/64/2 119/63/2 115/62/2
f 117/65/2 119/63/2 116/64/2
f 118/66/2 119/63/2 117/65/2
f 76/67/2 79/69/2 75/68/2
f 79/69/2 76/67/2 82/70/2
f 81/11/2 76/67/2 77/14/2
f 76/67/2 81/11/2 82/70/2
f 78/13/2 75/68/2 80/12/2
f 79/69/2 80/12/2 75/68/2
f 146/15/2 147/6/2 144/17/2
f 93/71/2 94/21/2 92/72/2
f 92/72/2 94/21/2 91/73/2
f 89/19/2 91/73/2 94/21/2
f 91/73/2 89/19/2 90/74/2
f 143/7/2 144/17/2 147/6/2
f 133/54/2 137/4/2 138/55/2
f 137/4/2 133/54/2 134/2/2
f 139/16/2 140/9/2 145/18/2
s 1
f 152/75/3 149/68/4 150/76/4
f 154/77/5 151/78/3 152/75/3
f 156/79/6 153/80/5 154/77/5
f 150/81/4 155/82/6 156/79/6
f 160/75/3 157/68/5 158/76/5
f 162/77/4 159/78/3 160/75/3
f 164/79/6 161/80/4 162/77/4
f 158/81/5 163/82/6 164/79/6
f 168/83/7 165/68/8 166/76/8
f 170/84/9 167/85/7 168/83/7
f 172/86/10 169/87/9 170/84/9
f 174/88/11 171/89/10 172/86/10
f 176/90/12 173/91/11 174/88/11
f 178/92/13 175/93/12 176/90/12
f 180/77/6 177/94/13 178/92/13
f 182/95/5 179/80/6 180/77/6
f 184/96/3 181/97/5 182/95/5
f 186/98/4 183/99/3 184/96/3
f 188/100/14 185/101/4 186/98/4
f 190/102/15 187/103/14 188/100/14
f 192/104/16 189/105/15 190/102/15
f 166/81/8 191/106/16 192/104/16
f 196/107/17 193/68/18 194/76/18
f 198/108/19 195/109/17 196/107/17
f 200/83/20 197/110/19 198/108/19
f 202/111/21 199/85/20 200/83/20
f 204/112/22 201/113/21 202/111/21
f 206/84/23 203/114/22 204/112/22
f 208/115/24 205/87/23 206/84/23
f 210/116/25 207/117/24 208/115/24
f 212/86/26 209/118/27 210/116/25
f 214/119/28 211/89/26 212/86/26
f 216/120/29 213/121/28 214/119/28
f 218/88/30 215/122/29 216/120/29
f 220/123/31 217/91/30 218/88/30
f 222/124/32 219/125/31 220/123/31
f 224/90/33 221/126/32 222/124/32
f 226/127/34 223/93/33 224/90/33
f 228/128/35 225/129/34 226/127/34
f 230/92/36 227/130/35 228/128/35
f 232/131/37 229/94/36 230/92/36
f 234/132/38 231/133/37 232/131/37
f 236/77/39 233/134/38 234/132/38
f 238/135/40 235/80/39 236/77/39
f 240/136/41 237/137/40 238/135/40
f 242/95/42 239/138/41 240/136/41
f 244/139/43 241/97/42 242/95/42
f 246/140/44 243/141/43 244/139/43
f 248/96/45 245/142/44 246/140/44
f 250/143/46 247/99/45 248/96/45
f 252/144/47 249/145/46 250/143/46
f 254/98/48 251/146/47 252/144/47
f 256/147/49 253/101/48 254/98/48
f 258/148/50 255/149/49 256/147/49
f 260/100/51 257/150/50 258/148/50
f 262/151/52 259/103/53 260/100/51
f 264/152/54 261/153/55 262/151/52
f 266/102/3 263/154/54 264/152/54
f 268/155/5 265/105/3 266/102/3
f 270/156/5 267/157/5 268/155/5
f 272/104/3 269/158/5 270/156/5
f 274/159/4 271/106/3 272/104/3
f 276/160/6 273/161/4 274/159/4
f 194/81/18 275/162/6 276/160/6
f 280/115/5 277/68/5 278/76/5
f 282/124/5 279/117/5 280/115/5
f 284/77/3 281/126/5 282/124/5
f 286/143/4 283/80/3 284/77/3
f 288/152/6 285/145/4 286/143/4
f 278/81/5 287/154/6 288/152/6
f 292/75/3 289/68/4 290/76/4
f 294/77/5 291/78/3 292/75/3
f 296/79/6 293/80/5 294/77/5
f 290/81/4 295/82/6 296/79/6
f 152/75/3 151/78/3 149/68/4
f 154/77/5 153/80/5 151/78/3
f 156/79/6 155/82/6 153/80/5
f 150/81/4 149/5/4 155/82/6
f 160/75/3 159/78/3 157/68/5
f 162/77/4 161/80/4 159/78/3
f 164/79/6 163/82/6 161/80/4
f 158/81/5 157/5/5 163/82/6
f 168/83/7 167/85/7 165/68/8
f 170/84/9 169/87/9 167/85/7
f 172/86/10 171/89/10 169/87/9
f 174/88/11 173/91/11 171/89/10
f 176/90/12 175/93/12 173/91/11
f 178/92/13 177/94/13 175/93/12
f 180/77/6 179/80/6 177/94/13
f 182/95/5 181/97/5 179/80/6
f 184/96/3 183/99/3 181/97/5
f 186/98/4 185/101/4 183/99/3
f 188/100/14 187/103/14 185/101/4
f 190/102/15 189/105/15 187/103/14
f 192/104/16 191/106/16 189/105/15
f 166/81/8 165/5/8 191/106/16
f 196/107/17 195/109/17 193/68/18
f 198/108/19 197/110/19 195/109/17
f 200/83/20 199/85/20 197/110/19
f 202/111/21 201/113/21 199/85/20
f 204/112/22 203/114/22 201/113/21
f 206/84/23 205/87/23 203/114/22
f 208/115/24 207/117/24 205/87/23
f 210/116/25 209/118/27 207/117/24
f 212/86/26 211/89/26 209/118/27
f 214/119/28 213/121/28 211/89/26
f 216/120/29 215/122/29 213/121/28
f 218/88/30 217/91/30 215/122/29
f 220/123/31 219/125/31 217/91/30
f 222/124/32 221/126/32 219/125/31
f 224/90/33 223/93/33 221/126/32
f 226/127/34 225/129/34 223/93/33
f 228/128/35 227/130/35 225/129/34
f 230/92/36 229/94/36 227/130/35
f 232/131/37 231/133/37 229/94/36
f 234/132/38 233/134/38 231/133/37
f 236/77/39 235/80/39 233/134/38
f 238/135/40 237/137/40 235/80/39
f 240/136/41 239/138/41 237/137/40
f 242/95/42 241/97/42 239/138/41
f 244/139/43 243/141/43 241/97/42
f 246/140/44 245/142/44 243/141/43
f 248/96/45 247/99/45 245/142/44
f 250/143/46 249/145/46 247/99/45
f 252/144/47 251/146/47 249/145/46
f 254/98/48 253/101/48 251/146/47
f 256/147/49 255/149/49 253/101/48
f 258/148/50 257/150/50 255/149/49
f 260/100/51 259/103/53 257/150/50
f 262/151/52 261/153/55 259/103/53
f 264/152/54 263/154/54 261/153/55
f 266/102/3 265/105/3 263/154/54
f 268/155/5 267/157/5 265/105/3
f 270/156/5 269/158/5 267/157/5
f 272/104/3 271/106/3 269/158/5
f 274/159/4 273/161/4 271/106/3
f 276/160/6 275/162/6 273/161/4
f 194/81/18 193/5/18 275/162/6
f 280/115/5 279/117/5 277/68/5
f 282/124/5 281/126/5 279/117/5
f 284/77/3 283/80/3 281/126/5
f 286/143/4 285/145/4 283/80/3
f 288/152/6 287/154/6 285/145/4
f 278/81/5 277/5/5 287/154/6
f 292/75/3 291/78/3 289/68/4
f 294/77/5 293/80/5 291/78/3
f 296/79/6 295/82/6 293/80/5
f 290/81/4 289/5/4 295/82/6
