{
	"asset":{
		"generator":"Khronos glTF Blender I/O v5.1.20",
		"version":"2.0"
	},
	"scene":0,
	"scenes":[
		{
			"name":"Scene",
			"nodes":[
				0
			]
		}
	],
	"nodes":[
		{
			"mesh":0,
			"name":"Sword"
		}
	],
	"materials":[
		{
			"doubleSided":true,
			"name":"Sword_UV_Material",
			"pbrMetallicRoughness":{
				"baseColorTexture":{
					"index":0
				},
				"metallicFactor":0.25,
				"roughnessFactor":0.550000011920929
			}
		}
	],
	"meshes":[
		{
			"name":"Sword_Mesh",
			"primitives":[
				{
					"attributes":{
						"POSITION":0,
						"NORMAL":1,
						"TEXCOORD_0":2
					},
					"indices":3,
					"material":0
				}
			]
		}
	],
	"textures":[
		{
			"sampler":0,
			"source":0
		}
	],
	"images":[
		{
			"mimeType":"image/png",
			"name":"sword_basecolor",
			"uri":"sword_basecolor.png"
		}
	],
	"accessors":[
		{
			"bufferView":0,
			"componentType":5126,
			"count":980,
			"max":[
				0.26872721314430237,
				0.7319999933242798,
				0.07890895754098892
			],
			"min":[
				-0.26872721314430237,
				-0.7319999933242798,
				-0.07890895754098892
			],
			"type":"VEC3"
		},
		{
			"bufferView":1,
			"componentType":5126,
			"count":980,
			"type":"VEC3"
		},
		{
			"bufferView":2,
			"componentType":5126,
			"count":980,
			"type":"VEC2"
		},
		{
			"bufferView":3,
			"componentType":5123,
			"count":1494,
			"type":"SCALAR"
		}
	],
	"bufferViews":[
		{
			"buffer":0,
			"byteLength":11760,
			"byteOffset":0,
			"target":34962
		},
		{
			"buffer":0,
			"byteLength":11760,
			"byteOffset":11760,
			"target":34962
		},
		{
			"buffer":0,
			"byteLength":7840,
			"byteOffset":23520,
			"target":34962
		},
		{
			"buffer":0,
			"byteLength":2988,
			"byteOffset":31360,
			"target":34963
		}
	],
	"samplers":[
		{
			"magFilter":9729,
			"minFilter":9987
		}
	],
	"buffers":[
		{
			"byteLength":34348,
			"uri":"sword.bin"
		}
	]
}
