{
	"asset":{
		"generator":"Khronos glTF Blender I/O v5.0.21",
		"version":"2.0"
	},
	"scene":0,
	"scenes":[
		{
			"name":"Scene",
			"nodes":[
				0,
				1,
				2,
				3,
				4,
				5,
				6,
				7,
				8,
				9,
				10,
				11,
				12,
				13,
				14,
				15
			]
		}
	],
	"nodes":[
		{
			"mesh":0,
			"name":"Sword_Blade_Steel",
			"scale":[
				0.699999988079071,
				0.699999988079071,
				0.699999988079071
			]
		},
		{
			"mesh":1,
			"name":"Sword_Blade_Inlay_Back",
			"scale":[
				0.699999988079071,
				0.699999988079071,
				0.699999988079071
			]
		},
		{
			"mesh":2,
			"name":"Sword_Blade_Inlay_Front",
			"scale":[
				0.699999988079071,
				0.699999988079071,
				0.699999988079071
			]
		},
		{
			"mesh":3,
			"name":"Sword_Guard_Metal",
			"scale":[
				0.699999988079071,
				0.699999988079071,
				0.699999988079071
			]
		},
		{
			"mesh":4,
			"name":"Sword_Grip_Leather",
			"scale":[
				0.699999988079071,
				0.699999988079071,
				0.699999988079071
			]
		},
		{
			"mesh":5,
			"name":"Sword_Grip_Wrap_01",
			"scale":[
				0.699999988079071,
				0.699999988079071,
				0.699999988079071
			]
		},
		{
			"mesh":6,
			"name":"Sword_Grip_Wrap_02",
			"scale":[
				0.699999988079071,
				0.699999988079071,
				0.699999988079071
			]
		},
		{
			"mesh":7,
			"name":"Sword_Grip_Wrap_03",
			"scale":[
				0.699999988079071,
				0.699999988079071,
				0.699999988079071
			]
		},
		{
			"mesh":8,
			"name":"Sword_Grip_Wrap_04",
			"scale":[
				0.699999988079071,
				0.699999988079071,
				0.699999988079071
			]
		},
		{
			"mesh":9,
			"name":"Sword_Grip_Wrap_05",
			"scale":[
				0.699999988079071,
				0.699999988079071,
				0.699999988079071
			]
		},
		{
			"mesh":10,
			"name":"Sword_Grip_Wrap_06",
			"scale":[
				0.699999988079071,
				0.699999988079071,
				0.699999988079071
			]
		},
		{
			"mesh":11,
			"name":"Sword_Grip_Collar_Top",
			"scale":[
				0.699999988079071,
				0.699999988079071,
				0.699999988079071
			]
		},
		{
			"mesh":12,
			"name":"Sword_Grip_Collar_Bottom",
			"scale":[
				0.699999988079071,
				0.699999988079071,
				0.699999988079071
			]
		},
		{
			"mesh":13,
			"name":"Sword_Pommel_Metal",
			"scale":[
				0.699999988079071,
				0.699999988079071,
				0.699999988079071
			]
		},
		{
			"mesh":14,
			"name":"Sword_Guard_Gem",
			"scale":[
				0.699999988079071,
				0.699999988079071,
				0.699999988079071
			]
		},
		{
			"mesh":15,
			"name":"Sword_Pommel_Gem",
			"scale":[
				0.699999988079071,
				0.699999988079071,
				0.699999988079071
			]
		}
	],
	"materials":[
		{
			"doubleSided":true,
			"name":"Sword_Blade_Steel_Material",
			"pbrMetallicRoughness":{
				"baseColorTexture":{
					"index":0
				},
				"roughnessFactor":0.27000001072883606
			}
		},
		{
			"doubleSided":true,
			"name":"Sword_Blade_Inlay_Back_Material",
			"pbrMetallicRoughness":{
				"baseColorTexture":{
					"index":1
				},
				"roughnessFactor":0.27000001072883606
			}
		},
		{
			"doubleSided":true,
			"name":"Sword_Blade_Inlay_Front_Material",
			"pbrMetallicRoughness":{
				"baseColorTexture":{
					"index":2
				},
				"roughnessFactor":0.27000001072883606
			}
		},
		{
			"doubleSided":true,
			"name":"Sword_Guard_Metal_Material",
			"pbrMetallicRoughness":{
				"baseColorTexture":{
					"index":3
				},
				"roughnessFactor":0.36000001430511475
			}
		},
		{
			"doubleSided":true,
			"name":"Sword_Grip_Leather_Material",
			"pbrMetallicRoughness":{
				"baseColorTexture":{
					"index":4
				},
				"metallicFactor":0,
				"roughnessFactor":0.8199999928474426
			}
		},
		{
			"doubleSided":true,
			"name":"Sword_Grip_Wrap_01_Material",
			"pbrMetallicRoughness":{
				"baseColorTexture":{
					"index":5
				},
				"metallicFactor":0,
				"roughnessFactor":0.8199999928474426
			}
		},
		{
			"doubleSided":true,
			"name":"Sword_Grip_Wrap_02_Material",
			"pbrMetallicRoughness":{
				"baseColorTexture":{
					"index":6
				},
				"metallicFactor":0,
				"roughnessFactor":0.8199999928474426
			}
		},
		{
			"doubleSided":true,
			"name":"Sword_Grip_Wrap_03_Material",
			"pbrMetallicRoughness":{
				"baseColorTexture":{
					"index":7
				},
				"metallicFactor":0,
				"roughnessFactor":0.8199999928474426
			}
		},
		{
			"doubleSided":true,
			"name":"Sword_Grip_Wrap_04_Material",
			"pbrMetallicRoughness":{
				"baseColorTexture":{
					"index":8
				},
				"metallicFactor":0,
				"roughnessFactor":0.8199999928474426
			}
		},
		{
			"doubleSided":true,
			"name":"Sword_Grip_Wrap_05_Material",
			"pbrMetallicRoughness":{
				"baseColorTexture":{
					"index":9
				},
				"metallicFactor":0,
				"roughnessFactor":0.8199999928474426
			}
		},
		{
			"doubleSided":true,
			"name":"Sword_Grip_Wrap_06_Material",
			"pbrMetallicRoughness":{
				"baseColorTexture":{
					"index":10
				},
				"metallicFactor":0,
				"roughnessFactor":0.8199999928474426
			}
		},
		{
			"doubleSided":true,
			"name":"Sword_Grip_Collar_Top_Material",
			"pbrMetallicRoughness":{
				"baseColorTexture":{
					"index":11
				},
				"roughnessFactor":0.36000001430511475
			}
		},
		{
			"doubleSided":true,
			"name":"Sword_Grip_Collar_Bottom_Material",
			"pbrMetallicRoughness":{
				"baseColorTexture":{
					"index":12
				},
				"roughnessFactor":0.36000001430511475
			}
		},
		{
			"doubleSided":true,
			"name":"Sword_Pommel_Metal_Material",
			"pbrMetallicRoughness":{
				"baseColorTexture":{
					"index":13
				},
				"roughnessFactor":0.36000001430511475
			}
		},
		{
			"doubleSided":true,
			"name":"Sword_Guard_Gem_Material",
			"pbrMetallicRoughness":{
				"baseColorTexture":{
					"index":14
				},
				"metallicFactor":0,
				"roughnessFactor":0.2199999988079071
			}
		},
		{
			"doubleSided":true,
			"name":"Sword_Pommel_Gem_Material",
			"pbrMetallicRoughness":{
				"baseColorTexture":{
					"index":15
				},
				"metallicFactor":0,
				"roughnessFactor":0.2199999988079071
			}
		}
	],
	"meshes":[
		{
			"name":"Sword_Blade_Steel_Mesh",
			"primitives":[
				{
					"attributes":{
						"POSITION":0,
						"NORMAL":1,
						"TEXCOORD_0":2
					},
					"indices":3,
					"material":0
				}
			]
		},
		{
			"name":"Sword_Blade_Inlay_Back_Mesh",
			"primitives":[
				{
					"attributes":{
						"POSITION":4,
						"NORMAL":5,
						"TEXCOORD_0":6
					},
					"indices":7,
					"material":1
				}
			]
		},
		{
			"name":"Sword_Blade_Inlay_Front_Mesh",
			"primitives":[
				{
					"attributes":{
						"POSITION":8,
						"NORMAL":9,
						"TEXCOORD_0":10
					},
					"indices":11,
					"material":2
				}
			]
		},
		{
			"name":"Sword_Guard_Metal_Mesh",
			"primitives":[
				{
					"attributes":{
						"POSITION":12,
						"NORMAL":13,
						"TEXCOORD_0":14
					},
					"indices":15,
					"material":3
				}
			]
		},
		{
			"name":"Sword_Grip_Leather_Mesh",
			"primitives":[
				{
					"attributes":{
						"POSITION":16,
						"NORMAL":17,
						"TEXCOORD_0":18
					},
					"indices":19,
					"material":4
				}
			]
		},
		{
			"name":"Sword_Grip_Wrap_01_Mesh",
			"primitives":[
				{
					"attributes":{
						"POSITION":20,
						"NORMAL":21,
						"TEXCOORD_0":22
					},
					"indices":19,
					"material":5
				}
			]
		},
		{
			"name":"Sword_Grip_Wrap_02_Mesh",
			"primitives":[
				{
					"attributes":{
						"POSITION":23,
						"NORMAL":24,
						"TEXCOORD_0":25
					},
					"indices":19,
					"material":6
				}
			]
		},
		{
			"name":"Sword_Grip_Wrap_03_Mesh",
			"primitives":[
				{
					"attributes":{
						"POSITION":26,
						"NORMAL":27,
						"TEXCOORD_0":28
					},
					"indices":19,
					"material":7
				}
			]
		},
		{
			"name":"Sword_Grip_Wrap_04_Mesh",
			"primitives":[
				{
					"attributes":{
						"POSITION":29,
						"NORMAL":30,
						"TEXCOORD_0":31
					},
					"indices":19,
					"material":8
				}
			]
		},
		{
			"name":"Sword_Grip_Wrap_05_Mesh",
			"primitives":[
				{
					"attributes":{
						"POSITION":32,
						"NORMAL":33,
						"TEXCOORD_0":34
					},
					"indices":19,
					"material":9
				}
			]
		},
		{
			"name":"Sword_Grip_Wrap_06_Mesh",
			"primitives":[
				{
					"attributes":{
						"POSITION":35,
						"NORMAL":36,
						"TEXCOORD_0":37
					},
					"indices":19,
					"material":10
				}
			]
		},
		{
			"name":"Sword_Grip_Collar_Top_Mesh",
			"primitives":[
				{
					"attributes":{
						"POSITION":38,
						"NORMAL":39,
						"TEXCOORD_0":40
					},
					"indices":19,
					"material":11
				}
			]
		},
		{
			"name":"Sword_Grip_Collar_Bottom_Mesh",
			"primitives":[
				{
					"attributes":{
						"POSITION":41,
						"NORMAL":42,
						"TEXCOORD_0":43
					},
					"indices":19,
					"material":12
				}
			]
		},
		{
			"name":"Sword_Pommel_Metal_Mesh",
			"primitives":[
				{
					"attributes":{
						"POSITION":44,
						"NORMAL":45,
						"TEXCOORD_0":46
					},
					"indices":47,
					"material":13
				}
			]
		},
		{
			"name":"Sword_Guard_Gem_Mesh",
			"primitives":[
				{
					"attributes":{
						"POSITION":48,
						"NORMAL":49,
						"TEXCOORD_0":50
					},
					"indices":47,
					"material":14
				}
			]
		},
		{
			"name":"Sword_Pommel_Gem_Mesh",
			"primitives":[
				{
					"attributes":{
						"POSITION":51,
						"NORMAL":52,
						"TEXCOORD_0":53
					},
					"indices":54,
					"material":15
				}
			]
		}
	],
	"textures":[
		{
			"sampler":0,
			"source":0
		},
		{
			"sampler":0,
			"source":0
		},
		{
			"sampler":0,
			"source":0
		},
		{
			"sampler":0,
			"source":0
		},
		{
			"sampler":0,
			"source":0
		},
		{
			"sampler":0,
			"source":0
		},
		{
			"sampler":0,
			"source":0
		},
		{
			"sampler":0,
			"source":0
		},
		{
			"sampler":0,
			"source":0
		},
		{
			"sampler":0,
			"source":0
		},
		{
			"sampler":0,
			"source":0
		},
		{
			"sampler":0,
			"source":0
		},
		{
			"sampler":0,
			"source":0
		},
		{
			"sampler":0,
			"source":0
		},
		{
			"sampler":0,
			"source":0
		},
		{
			"sampler":0,
			"source":0
		}
	],
	"images":[
		{
			"mimeType":"image/png",
			"name":"sword_basecolor",
			"uri":"sword_basecolor.png"
		}
	],
	"accessors":[
		{
			"bufferView":0,
			"componentType":5126,
			"count":48,
			"max":[
				0.125,
				0.7319999933242798,
				0.04690895974636078
			],
			"min":[
				-0.125,
				-0.20800000429153442,
				-0.019091039896011353
			],
			"type":"VEC3"
		},
		{
			"bufferView":1,
			"componentType":5126,
			"count":48,
			"type":"VEC3"
		},
		{
			"bufferView":2,
			"componentType":5126,
			"count":48,
			"type":"VEC2"
		},
		{
			"bufferView":3,
			"componentType":5123,
			"count":66,
			"type":"SCALAR"
		},
		{
			"bufferView":4,
			"componentType":5126,
			"count":36,
			"max":[
				0.017999999225139618,
				0.43199998140335083,
				0.05090896040201187
			],
			"min":[
				-0.017999999225139618,
				-0.14800000190734863,
				0.0479089617729187
			],
			"type":"VEC3"
		},
		{
			"bufferView":5,
			"componentType":5126,
			"count":36,
			"type":"VEC3"
		},
		{
			"bufferView":6,
			"componentType":5126,
			"count":36,
			"type":"VEC2"
		},
		{
			"bufferView":7,
			"componentType":5123,
			"count":60,
			"type":"SCALAR"
		},
		{
			"bufferView":8,
			"componentType":5126,
			"count":36,
			"max":[
				0.017999999225139618,
				0.43199998140335083,
				-0.020091041922569275
			],
			"min":[
				-0.017999999225139618,
				-0.14800000190734863,
				-0.023091040551662445
			],
			"type":"VEC3"
		},
		{
			"bufferView":9,
			"componentType":5126,
			"count":36,
			"type":"VEC3"
		},
		{
			"bufferView":10,
			"componentType":5126,
			"count":36,
			"type":"VEC2"
		},
		{
			"bufferView":11,
			"componentType":5123,
			"count":60,
			"type":"SCALAR"
		},
		{
			"bufferView":12,
			"componentType":5126,
			"count":248,
			"max":[
				0.26872721314430237,
				-0.14680597186088562,
				0.07390895485877991
			],
			"min":[
				-0.26872721314430237,
				-0.30130037665367126,
				-0.04609103873372078
			],
			"type":"VEC3"
		},
		{
			"bufferView":13,
			"componentType":5126,
			"count":248,
			"type":"VEC3"
		},
		{
			"bufferView":14,
			"componentType":5126,
			"count":248,
			"type":"VEC2"
		},
		{
			"bufferView":15,
			"componentType":5123,
			"count":372,
			"type":"SCALAR"
		},
		{
			"bufferView":16,
			"componentType":5126,
			"count":48,
			"max":[
				0.05000000074505806,
				-0.2880000174045563,
				0.06390896439552307
			],
			"min":[
				-0.05000000074505806,
				-0.5979999899864197,
				-0.03609104081988335
			],
			"type":"VEC3"
		},
		{
			"bufferView":17,
			"componentType":5126,
			"count":48,
			"type":"VEC3"
		},
		{
			"bufferView":18,
			"componentType":5126,
			"count":48,
			"type":"VEC2"
		},
		{
			"bufferView":19,
			"componentType":5123,
			"count":84,
			"type":"SCALAR"
		},
		{
			"bufferView":20,
			"componentType":5126,
			"count":48,
			"max":[
				0.0560000017285347,
				-0.3019999861717224,
				0.06990896165370941
			],
			"min":[
				-0.0560000017285347,
				-0.3319999873638153,
				-0.042091041803359985
			],
			"type":"VEC3"
		},
		{
			"bufferView":21,
			"componentType":5126,
			"count":48,
			"type":"VEC3"
		},
		{
			"bufferView":22,
			"componentType":5126,
			"count":48,
			"type":"VEC2"
		},
		{
			"bufferView":23,
			"componentType":5126,
			"count":48,
			"max":[
				0.0560000017285347,
				-0.3490000367164612,
				0.06990896165370941
			],
			"min":[
				-0.0560000017285347,
				-0.3790000081062317,
				-0.042091041803359985
			],
			"type":"VEC3"
		},
		{
			"bufferView":24,
			"componentType":5126,
			"count":48,
			"type":"VEC3"
		},
		{
			"bufferView":25,
			"componentType":5126,
			"count":48,
			"type":"VEC2"
		},
		{
			"bufferView":26,
			"componentType":5126,
			"count":48,
			"max":[
				0.0560000017285347,
				-0.3960000276565552,
				0.06990896165370941
			],
			"min":[
				-0.0560000017285347,
				-0.4259999990463257,
				-0.042091041803359985
			],
			"type":"VEC3"
		},
		{
			"bufferView":27,
			"componentType":5126,
			"count":48,
			"type":"VEC3"
		},
		{
			"bufferView":28,
			"componentType":5126,
			"count":48,
			"type":"VEC2"
		},
		{
			"bufferView":29,
			"componentType":5126,
			"count":48,
			"max":[
				0.0560000017285347,
				-0.44300001859664917,
				0.06990896165370941
			],
			"min":[
				-0.0560000017285347,
				-0.4729999899864197,
				-0.042091041803359985
			],
			"type":"VEC3"
		},
		{
			"bufferView":30,
			"componentType":5126,
			"count":48,
			"type":"VEC3"
		},
		{
			"bufferView":31,
			"componentType":5126,
			"count":48,
			"type":"VEC2"
		},
		{
			"bufferView":32,
			"componentType":5126,
			"count":48,
			"max":[
				0.0560000017285347,
				-0.49000000953674316,
				0.06990896165370941
			],
			"min":[
				-0.0560000017285347,
				-0.5199999809265137,
				-0.042091041803359985
			],
			"type":"VEC3"
		},
		{
			"bufferView":33,
			"componentType":5126,
			"count":48,
			"type":"VEC3"
		},
		{
			"bufferView":34,
			"componentType":5126,
			"count":48,
			"type":"VEC2"
		},
		{
			"bufferView":35,
			"componentType":5126,
			"count":48,
			"max":[
				0.0560000017285347,
				-0.5370000600814819,
				0.06990896165370941
			],
			"min":[
				-0.0560000017285347,
				-0.5670000314712524,
				-0.042091041803359985
			],
			"type":"VEC3"
		},
		{
			"bufferView":36,
			"componentType":5126,
			"count":48,
			"type":"VEC3"
		},
		{
			"bufferView":37,
			"componentType":5126,
			"count":48,
			"type":"VEC2"
		},
		{
			"bufferView":38,
			"componentType":5126,
			"count":48,
			"max":[
				0.06499999761581421,
				-0.2705000042915344,
				0.07890895754098892
			],
			"min":[
				-0.06499999761581421,
				-0.30550000071525574,
				-0.051091037690639496
			],
			"type":"VEC3"
		},
		{
			"bufferView":39,
			"componentType":5126,
			"count":48,
			"type":"VEC3"
		},
		{
			"bufferView":40,
			"componentType":5126,
			"count":48,
			"type":"VEC2"
		},
		{
			"bufferView":41,
			"componentType":5126,
			"count":48,
			"max":[
				0.06300000101327896,
				-0.5855000019073486,
				0.07690896093845367
			],
			"min":[
				-0.06300000101327896,
				-0.6204999685287476,
				-0.04909104108810425
			],
			"type":"VEC3"
		},
		{
			"bufferView":42,
			"componentType":5126,
			"count":48,
			"type":"VEC3"
		},
		{
			"bufferView":43,
			"componentType":5126,
			"count":48,
			"type":"VEC2"
		},
		{
			"bufferView":44,
			"componentType":5126,
			"count":60,
			"max":[
				0.07334285229444504,
				-0.5740000009536743,
				0.0692005604505539
			],
			"min":[
				-0.07334285229444504,
				-0.7319999933242798,
				-0.04138263687491417
			],
			"type":"VEC3"
		},
		{
			"bufferView":45,
			"componentType":5126,
			"count":60,
			"type":"VEC3"
		},
		{
			"bufferView":46,
			"componentType":5126,
			"count":60,
			"type":"VEC2"
		},
		{
			"bufferView":47,
			"componentType":5123,
			"count":60,
			"type":"SCALAR"
		},
		{
			"bufferView":48,
			"componentType":5126,
			"count":60,
			"max":[
				0.04293239861726761,
				-0.19300001859664917,
				-0.031273119151592255
			],
			"min":[
				-0.04293239861726761,
				-0.27900001406669617,
				-0.07890895754098892
			],
			"type":"VEC3"
		},
		{
			"bufferView":49,
			"componentType":5126,
			"count":60,
			"type":"VEC3"
		},
		{
			"bufferView":50,
			"componentType":5126,
			"count":60,
			"type":"VEC2"
		},
		{
			"bufferView":51,
			"componentType":5126,
			"count":60,
			"max":[
				0.03309372439980507,
				-0.6170000433921814,
				-0.025928884744644165
			],
			"min":[
				-0.03309372439980507,
				-0.6930000185966492,
				-0.058253198862075806
			],
			"type":"VEC3"
		},
		{
			"bufferView":52,
			"componentType":5126,
			"count":60,
			"type":"VEC3"
		},
		{
			"bufferView":53,
			"componentType":5126,
			"count":60,
			"type":"VEC2"
		},
		{
			"bufferView":54,
			"componentType":5123,
			"count":60,
			"type":"SCALAR"
		}
	],
	"bufferViews":[
		{
			"buffer":0,
			"byteLength":576,
			"byteOffset":0,
			"target":34962
		},
		{
			"buffer":0,
			"byteLength":576,
			"byteOffset":576,
			"target":34962
		},
		{
			"buffer":0,
			"byteLength":384,
			"byteOffset":1152,
			"target":34962
		},
		{
			"buffer":0,
			"byteLength":132,
			"byteOffset":1536,
			"target":34963
		},
		{
			"buffer":0,
			"byteLength":432,
			"byteOffset":1668,
			"target":34962
		},
		{
			"buffer":0,
			"byteLength":432,
			"byteOffset":2100,
			"target":34962
		},
		{
			"buffer":0,
			"byteLength":288,
			"byteOffset":2532,
			"target":34962
		},
		{
			"buffer":0,
			"byteLength":120,
			"byteOffset":2820,
			"target":34963
		},
		{
			"buffer":0,
			"byteLength":432,
			"byteOffset":2940,
			"target":34962
		},
		{
			"buffer":0,
			"byteLength":432,
			"byteOffset":3372,
			"target":34962
		},
		{
			"buffer":0,
			"byteLength":288,
			"byteOffset":3804,
			"target":34962
		},
		{
			"buffer":0,
			"byteLength":120,
			"byteOffset":4092,
			"target":34963
		},
		{
			"buffer":0,
			"byteLength":2976,
			"byteOffset":4212,
			"target":34962
		},
		{
			"buffer":0,
			"byteLength":2976,
			"byteOffset":7188,
			"target":34962
		},
		{
			"buffer":0,
			"byteLength":1984,
			"byteOffset":10164,
			"target":34962
		},
		{
			"buffer":0,
			"byteLength":744,
			"byteOffset":12148,
			"target":34963
		},
		{
			"buffer":0,
			"byteLength":576,
			"byteOffset":12892,
			"target":34962
		},
		{
			"buffer":0,
			"byteLength":576,
			"byteOffset":13468,
			"target":34962
		},
		{
			"buffer":0,
			"byteLength":384,
			"byteOffset":14044,
			"target":34962
		},
		{
			"buffer":0,
			"byteLength":168,
			"byteOffset":14428,
			"target":34963
		},
		{
			"buffer":0,
			"byteLength":576,
			"byteOffset":14596,
			"target":34962
		},
		{
			"buffer":0,
			"byteLength":576,
			"byteOffset":15172,
			"target":34962
		},
		{
			"buffer":0,
			"byteLength":384,
			"byteOffset":15748,
			"target":34962
		},
		{
			"buffer":0,
			"byteLength":576,
			"byteOffset":16132,
			"target":34962
		},
		{
			"buffer":0,
			"byteLength":576,
			"byteOffset":16708,
			"target":34962
		},
		{
			"buffer":0,
			"byteLength":384,
			"byteOffset":17284,
			"target":34962
		},
		{
			"buffer":0,
			"byteLength":576,
			"byteOffset":17668,
			"target":34962
		},
		{
			"buffer":0,
			"byteLength":576,
			"byteOffset":18244,
			"target":34962
		},
		{
			"buffer":0,
			"byteLength":384,
			"byteOffset":18820,
			"target":34962
		},
		{
			"buffer":0,
			"byteLength":576,
			"byteOffset":19204,
			"target":34962
		},
		{
			"buffer":0,
			"byteLength":576,
			"byteOffset":19780,
			"target":34962
		},
		{
			"buffer":0,
			"byteLength":384,
			"byteOffset":20356,
			"target":34962
		},
		{
			"buffer":0,
			"byteLength":576,
			"byteOffset":20740,
			"target":34962
		},
		{
			"buffer":0,
			"byteLength":576,
			"byteOffset":21316,
			"target":34962
		},
		{
			"buffer":0,
			"byteLength":384,
			"byteOffset":21892,
			"target":34962
		},
		{
			"buffer":0,
			"byteLength":576,
			"byteOffset":22276,
			"target":34962
		},
		{
			"buffer":0,
			"byteLength":576,
			"byteOffset":22852,
			"target":34962
		},
		{
			"buffer":0,
			"byteLength":384,
			"byteOffset":23428,
			"target":34962
		},
		{
			"buffer":0,
			"byteLength":576,
			"byteOffset":23812,
			"target":34962
		},
		{
			"buffer":0,
			"byteLength":576,
			"byteOffset":24388,
			"target":34962
		},
		{
			"buffer":0,
			"byteLength":384,
			"byteOffset":24964,
			"target":34962
		},
		{
			"buffer":0,
			"byteLength":576,
			"byteOffset":25348,
			"target":34962
		},
		{
			"buffer":0,
			"byteLength":576,
			"byteOffset":25924,
			"target":34962
		},
		{
			"buffer":0,
			"byteLength":384,
			"byteOffset":26500,
			"target":34962
		},
		{
			"buffer":0,
			"byteLength":720,
			"byteOffset":26884,
			"target":34962
		},
		{
			"buffer":0,
			"byteLength":720,
			"byteOffset":27604,
			"target":34962
		},
		{
			"buffer":0,
			"byteLength":480,
			"byteOffset":28324,
			"target":34962
		},
		{
			"buffer":0,
			"byteLength":120,
			"byteOffset":28804,
			"target":34963
		},
		{
			"buffer":0,
			"byteLength":720,
			"byteOffset":28924,
			"target":34962
		},
		{
			"buffer":0,
			"byteLength":720,
			"byteOffset":29644,
			"target":34962
		},
		{
			"buffer":0,
			"byteLength":480,
			"byteOffset":30364,
			"target":34962
		},
		{
			"buffer":0,
			"byteLength":720,
			"byteOffset":30844,
			"target":34962
		},
		{
			"buffer":0,
			"byteLength":720,
			"byteOffset":31564,
			"target":34962
		},
		{
			"buffer":0,
			"byteLength":480,
			"byteOffset":32284,
			"target":34962
		},
		{
			"buffer":0,
			"byteLength":120,
			"byteOffset":32764,
			"target":34963
		}
	],
	"samplers":[
		{
			"magFilter":9729,
			"minFilter":9987
		}
	],
	"buffers":[
		{
			"byteLength":32884,
			"uri":"sword_parts.bin"
		}
	]
}
