{
	"asset":{
		"generator":"Khronos glTF Blender I/O v5.0.21",
		"version":"2.0"
	},
	"scene":0,
	"scenes":[
		{
			"name":"Scene",
			"nodes":[
				0,
				1,
				2
			]
		}
	],
	"nodes":[
		{
			"mesh":0,
			"name":"Cylinder",
			"rotation":[
				0.7071068286895752,
				0,
				0,
				0.7071068286895752
			],
			"scale":[
				10,
				10,
				10
			]
		},
		{
			"mesh":1,
			"name":"Cylinder.002",
			"rotation":[
				0.7071068286895752,
				0,
				0,
				0.7071068286895752
			],
			"scale":[
				10,
				10,
				10
			]
		},
		{
			"mesh":2,
			"name":"Cylinder.004",
			"rotation":[
				0.7071068286895752,
				0,
				0,
				0.7071068286895752
			],
			"scale":[
				10,
				10,
				10
			]
		}
	],
	"materials":[
		{
			"doubleSided":true,
			"name":"Material.001",
			"pbrMetallicRoughness":{
				"baseColorTexture":{
					"index":0
				},
				"metallicFactor":0,
				"roughnessFactor":0.28899085521698
			}
		},
		{
			"doubleSided":true,
			"name":"Material.006",
			"pbrMetallicRoughness":{
				"baseColorTexture":{
					"index":1
				},
				"metallicFactor":0,
				"roughnessFactor":0.5
			}
		},
		{
			"doubleSided":true,
			"name":"Material.007",
			"pbrMetallicRoughness":{
				"baseColorTexture":{
					"index":2
				},
				"metallicFactor":0,
				"roughnessFactor":0.5
			}
		}
	],
	"meshes":[
		{
			"name":"Cylinder",
			"primitives":[
				{
					"attributes":{
						"POSITION":0,
						"NORMAL":1,
						"TEXCOORD_0":2
					},
					"indices":3,
					"material":0
				}
			]
		},
		{
			"name":"Cylinder.002",
			"primitives":[
				{
					"attributes":{
						"POSITION":4,
						"NORMAL":5,
						"TEXCOORD_0":6
					},
					"indices":7,
					"material":1
				}
			]
		},
		{
			"name":"Cylinder.004",
			"primitives":[
				{
					"attributes":{
						"POSITION":8,
						"NORMAL":9,
						"TEXCOORD_0":10
					},
					"indices":11,
					"material":2
				}
			]
		}
	],
	"textures":[
		{
			"sampler":0,
			"source":0
		},
		{
			"sampler":0,
			"source":1
		},
		{
			"sampler":0,
			"source":2
		}
	],
	"images":[
		{
			"mimeType":"image/png",
			"name":"StaffBase_UV",
			"uri":"StaffBase_UV.png"
		},
		{
			"mimeType":"image/png",
			"name":"Staff_UV",
			"uri":"Staff_UV.png"
		},
		{
			"mimeType":"image/png",
			"name":"leatherStraps_UV",
			"uri":"leatherStraps_UV.png"
		}
	],
	"accessors":[
		{
			"bufferView":0,
			"componentType":5126,
			"count":298804,
			"max":[
				0.11525200307369232,
				0.022173000499606133,
				-0.038350000977516174
			],
			"min":[
				-0.11170099675655365,
				-0.02133600041270256,
				-0.8849809765815735
			],
			"type":"VEC3"
		},
		{
			"bufferView":1,
			"componentType":5126,
			"count":298804,
			"type":"VEC3"
		},
		{
			"bufferView":2,
			"componentType":5126,
			"count":298804,
			"type":"VEC2"
		},
		{
			"bufferView":3,
			"componentType":5125,
			"count":407808,
			"type":"SCALAR"
		},
		{
			"bufferView":4,
			"componentType":5126,
			"count":522,
			"max":[
				0.04038799926638603,
				0.005423000082373619,
				-0.7227749824523926
			],
			"min":[
				-0.04038799926638603,
				-0.005423000082373619,
				-0.8035510182380676
			],
			"type":"VEC3"
		},
		{
			"bufferView":5,
			"componentType":5126,
			"count":522,
			"type":"VEC3"
		},
		{
			"bufferView":6,
			"componentType":5126,
			"count":522,
			"type":"VEC2"
		},
		{
			"bufferView":7,
			"componentType":5123,
			"count":1140,
			"type":"SCALAR"
		},
		{
			"bufferView":8,
			"componentType":5126,
			"count":408,
			"max":[
				-0.046181999146938324,
				0.012016000226140022,
				-0.5865269899368286
			],
			"min":[
				-0.09439399838447571,
				-0.012291000224649906,
				-0.7129330039024353
			],
			"type":"VEC3"
		},
		{
			"bufferView":9,
			"componentType":5126,
			"count":408,
			"type":"VEC3"
		},
		{
			"bufferView":10,
			"componentType":5126,
			"count":408,
			"type":"VEC2"
		},
		{
			"bufferView":11,
			"componentType":5123,
			"count":768,
			"type":"SCALAR"
		}
	],
	"bufferViews":[
		{
			"buffer":0,
			"byteLength":3585648,
			"byteOffset":0,
			"target":34962
		},
		{
			"buffer":0,
			"byteLength":3585648,
			"byteOffset":3585648,
			"target":34962
		},
		{
			"buffer":0,
			"byteLength":2390432,
			"byteOffset":7171296,
			"target":34962
		},
		{
			"buffer":0,
			"byteLength":1631232,
			"byteOffset":9561728,
			"target":34963
		},
		{
			"buffer":0,
			"byteLength":6264,
			"byteOffset":11192960,
			"target":34962
		},
		{
			"buffer":0,
			"byteLength":6264,
			"byteOffset":11199224,
			"target":34962
		},
		{
			"buffer":0,
			"byteLength":4176,
			"byteOffset":11205488,
			"target":34962
		},
		{
			"buffer":0,
			"byteLength":2280,
			"byteOffset":11209664,
			"target":34963
		},
		{
			"buffer":0,
			"byteLength":4896,
			"byteOffset":11211944,
			"target":34962
		},
		{
			"buffer":0,
			"byteLength":4896,
			"byteOffset":11216840,
			"target":34962
		},
		{
			"buffer":0,
			"byteLength":3264,
			"byteOffset":11221736,
			"target":34962
		},
		{
			"buffer":0,
			"byteLength":1536,
			"byteOffset":11225000,
			"target":34963
		}
	],
	"samplers":[
		{
			"magFilter":9729,
			"minFilter":9987
		}
	],
	"buffers":[
		{
			"byteLength":11226536,
			"uri":"staff.bin"
		}
	]
}
