{
	"asset":{
		"generator":"Khronos glTF Blender I/O v5.0.21",
		"version":"2.0"
	},
	"scene":0,
	"scenes":[
		{
			"name":"Scene",
			"nodes":[
				0,
				1,
				2,
				3,
				4,
				5,
				6,
				7,
				8,
				9,
				10,
				11,
				12,
				13,
				14,
				15,
				16,
				17,
				18,
				19,
				20,
				21
			]
		}
	],
	"nodes":[
		{
			"mesh":0,
			"name":"Shield_Outer_Frame_Metal"
		},
		{
			"mesh":1,
			"name":"Shield_Front_Panel_Matte"
		},
		{
			"mesh":2,
			"name":"Shield_Back_Panel_Matte"
		},
		{
			"mesh":3,
			"name":"Shield_Emblem_Wing_L_1"
		},
		{
			"mesh":4,
			"name":"Shield_Emblem_Wing_L_2"
		},
		{
			"mesh":5,
			"name":"Shield_Emblem_Wing_L_3"
		},
		{
			"mesh":6,
			"name":"Shield_Emblem_Wing_R_1"
		},
		{
			"mesh":7,
			"name":"Shield_Emblem_Wing_R_2"
		},
		{
			"mesh":8,
			"name":"Shield_Emblem_Wing_R_3"
		},
		{
			"mesh":9,
			"name":"Shield_Emblem_Stem"
		},
		{
			"mesh":10,
			"name":"Shield_Emblem_Gem"
		},
		{
			"mesh":11,
			"name":"Shield_Rivet_01"
		},
		{
			"mesh":12,
			"name":"Shield_Rivet_02"
		},
		{
			"mesh":13,
			"name":"Shield_Rivet_03"
		},
		{
			"mesh":14,
			"name":"Shield_Rivet_04"
		},
		{
			"mesh":15,
			"name":"Shield_Rivet_05"
		},
		{
			"mesh":16,
			"name":"Shield_Handle_Lower_Mount_L"
		},
		{
			"mesh":17,
			"name":"Shield_Handle_Lower_Mount_R"
		},
		{
			"mesh":18,
			"name":"Shield_Handle_Lower_Grip"
		},
		{
			"mesh":19,
			"name":"Shield_Handle_Upper_Mount_L"
		},
		{
			"mesh":20,
			"name":"Shield_Handle_Upper_Mount_R"
		},
		{
			"mesh":21,
			"name":"Shield_Handle_Upper_Grip"
		}
	],
	"materials":[
		{
			"doubleSided":true,
			"name":"Shield_Outer_Frame_Metal_Material",
			"pbrMetallicRoughness":{
				"baseColorTexture":{
					"index":0
				},
				"roughnessFactor":0.36000001430511475
			}
		},
		{
			"doubleSided":true,
			"name":"Shield_Front_Panel_Matte_Material",
			"pbrMetallicRoughness":{
				"baseColorTexture":{
					"index":1
				},
				"metallicFactor":0,
				"roughnessFactor":0.8199999928474426
			}
		},
		{
			"doubleSided":true,
			"name":"Shield_Back_Panel_Matte_Material",
			"pbrMetallicRoughness":{
				"baseColorTexture":{
					"index":2
				},
				"metallicFactor":0,
				"roughnessFactor":0.8199999928474426
			}
		},
		{
			"doubleSided":true,
			"name":"Shield_Emblem_Wing_L_1_Material",
			"pbrMetallicRoughness":{
				"baseColorTexture":{
					"index":3
				},
				"roughnessFactor":0.36000001430511475
			}
		},
		{
			"doubleSided":true,
			"name":"Shield_Emblem_Wing_L_2_Material",
			"pbrMetallicRoughness":{
				"baseColorTexture":{
					"index":4
				},
				"roughnessFactor":0.36000001430511475
			}
		},
		{
			"doubleSided":true,
			"name":"Shield_Emblem_Wing_L_3_Material",
			"pbrMetallicRoughness":{
				"baseColorTexture":{
					"index":5
				},
				"roughnessFactor":0.36000001430511475
			}
		},
		{
			"doubleSided":true,
			"name":"Shield_Emblem_Wing_R_1_Material",
			"pbrMetallicRoughness":{
				"baseColorTexture":{
					"index":6
				},
				"roughnessFactor":0.36000001430511475
			}
		},
		{
			"doubleSided":true,
			"name":"Shield_Emblem_Wing_R_2_Material",
			"pbrMetallicRoughness":{
				"baseColorTexture":{
					"index":7
				},
				"roughnessFactor":0.36000001430511475
			}
		},
		{
			"doubleSided":true,
			"name":"Shield_Emblem_Wing_R_3_Material",
			"pbrMetallicRoughness":{
				"baseColorTexture":{
					"index":8
				},
				"roughnessFactor":0.36000001430511475
			}
		},
		{
			"doubleSided":true,
			"name":"Shield_Emblem_Stem_Material",
			"pbrMetallicRoughness":{
				"baseColorTexture":{
					"index":9
				},
				"roughnessFactor":0.36000001430511475
			}
		},
		{
			"doubleSided":true,
			"name":"Shield_Emblem_Gem_Material",
			"pbrMetallicRoughness":{
				"baseColorTexture":{
					"index":10
				},
				"metallicFactor":0,
				"roughnessFactor":0.2199999988079071
			}
		},
		{
			"doubleSided":true,
			"name":"Shield_Rivet_01_Material",
			"pbrMetallicRoughness":{
				"baseColorTexture":{
					"index":11
				},
				"roughnessFactor":0.36000001430511475
			}
		},
		{
			"doubleSided":true,
			"name":"Shield_Rivet_02_Material",
			"pbrMetallicRoughness":{
				"baseColorTexture":{
					"index":12
				},
				"roughnessFactor":0.36000001430511475
			}
		},
		{
			"doubleSided":true,
			"name":"Shield_Rivet_03_Material",
			"pbrMetallicRoughness":{
				"baseColorTexture":{
					"index":13
				},
				"roughnessFactor":0.36000001430511475
			}
		},
		{
			"doubleSided":true,
			"name":"Shield_Rivet_04_Material",
			"pbrMetallicRoughness":{
				"baseColorTexture":{
					"index":14
				},
				"roughnessFactor":0.36000001430511475
			}
		},
		{
			"doubleSided":true,
			"name":"Shield_Rivet_05_Material",
			"pbrMetallicRoughness":{
				"baseColorTexture":{
					"index":15
				},
				"roughnessFactor":0.36000001430511475
			}
		},
		{
			"doubleSided":true,
			"name":"Shield_Handle_Lower_Mount_L_Material",
			"pbrMetallicRoughness":{
				"baseColorTexture":{
					"index":16
				},
				"roughnessFactor":0.36000001430511475
			}
		},
		{
			"doubleSided":true,
			"name":"Shield_Handle_Lower_Mount_R_Material",
			"pbrMetallicRoughness":{
				"baseColorTexture":{
					"index":17
				},
				"roughnessFactor":0.36000001430511475
			}
		},
		{
			"doubleSided":true,
			"name":"Shield_Handle_Lower_Grip_Material",
			"pbrMetallicRoughness":{
				"baseColorTexture":{
					"index":18
				},
				"metallicFactor":0,
				"roughnessFactor":0.8199999928474426
			}
		},
		{
			"doubleSided":true,
			"name":"Shield_Handle_Upper_Mount_L_Material",
			"pbrMetallicRoughness":{
				"baseColorTexture":{
					"index":19
				},
				"roughnessFactor":0.36000001430511475
			}
		},
		{
			"doubleSided":true,
			"name":"Shield_Handle_Upper_Mount_R_Material",
			"pbrMetallicRoughness":{
				"baseColorTexture":{
					"index":20
				},
				"roughnessFactor":0.36000001430511475
			}
		},
		{
			"doubleSided":true,
			"name":"Shield_Handle_Upper_Grip_Material",
			"pbrMetallicRoughness":{
				"baseColorTexture":{
					"index":21
				},
				"metallicFactor":0,
				"roughnessFactor":0.8199999928474426
			}
		}
	],
	"meshes":[
		{
			"name":"Shield_Outer_Frame_Metal_Mesh",
			"primitives":[
				{
					"attributes":{
						"POSITION":0,
						"NORMAL":1,
						"TEXCOORD_0":2
					},
					"indices":3,
					"material":0
				}
			]
		},
		{
			"name":"Shield_Front_Panel_Matte_Mesh",
			"primitives":[
				{
					"attributes":{
						"POSITION":4,
						"NORMAL":5,
						"TEXCOORD_0":6
					},
					"indices":7,
					"material":1
				}
			]
		},
		{
			"name":"Shield_Back_Panel_Matte_Mesh",
			"primitives":[
				{
					"attributes":{
						"POSITION":8,
						"NORMAL":9,
						"TEXCOORD_0":10
					},
					"indices":11,
					"material":2
				}
			]
		},
		{
			"name":"Shield_Emblem_Wing_L_1_Mesh",
			"primitives":[
				{
					"attributes":{
						"POSITION":12,
						"NORMAL":13,
						"TEXCOORD_0":14
					},
					"indices":15,
					"material":3
				}
			]
		},
		{
			"name":"Shield_Emblem_Wing_L_2_Mesh",
			"primitives":[
				{
					"attributes":{
						"POSITION":16,
						"NORMAL":17,
						"TEXCOORD_0":18
					},
					"indices":19,
					"material":4
				}
			]
		},
		{
			"name":"Shield_Emblem_Wing_L_3_Mesh",
			"primitives":[
				{
					"attributes":{
						"POSITION":20,
						"NORMAL":21,
						"TEXCOORD_0":22
					},
					"indices":23,
					"material":5
				}
			]
		},
		{
			"name":"Shield_Emblem_Wing_R_1_Mesh",
			"primitives":[
				{
					"attributes":{
						"POSITION":24,
						"NORMAL":25,
						"TEXCOORD_0":26
					},
					"indices":27,
					"material":6
				}
			]
		},
		{
			"name":"Shield_Emblem_Wing_R_2_Mesh",
			"primitives":[
				{
					"attributes":{
						"POSITION":28,
						"NORMAL":29,
						"TEXCOORD_0":30
					},
					"indices":31,
					"material":7
				}
			]
		},
		{
			"name":"Shield_Emblem_Wing_R_3_Mesh",
			"primitives":[
				{
					"attributes":{
						"POSITION":32,
						"NORMAL":33,
						"TEXCOORD_0":34
					},
					"indices":35,
					"material":8
				}
			]
		},
		{
			"name":"Shield_Emblem_Stem_Mesh",
			"primitives":[
				{
					"attributes":{
						"POSITION":36,
						"NORMAL":37,
						"TEXCOORD_0":38
					},
					"indices":39,
					"material":9
				}
			]
		},
		{
			"name":"Shield_Emblem_Gem_Mesh",
			"primitives":[
				{
					"attributes":{
						"POSITION":40,
						"NORMAL":41,
						"TEXCOORD_0":42
					},
					"indices":43,
					"material":10
				}
			]
		},
		{
			"name":"Shield_Rivet_01_Mesh",
			"primitives":[
				{
					"attributes":{
						"POSITION":44,
						"NORMAL":45,
						"TEXCOORD_0":46
					},
					"indices":47,
					"material":11
				}
			]
		},
		{
			"name":"Shield_Rivet_02_Mesh",
			"primitives":[
				{
					"attributes":{
						"POSITION":48,
						"NORMAL":49,
						"TEXCOORD_0":50
					},
					"indices":47,
					"material":12
				}
			]
		},
		{
			"name":"Shield_Rivet_03_Mesh",
			"primitives":[
				{
					"attributes":{
						"POSITION":51,
						"NORMAL":52,
						"TEXCOORD_0":53
					},
					"indices":47,
					"material":13
				}
			]
		},
		{
			"name":"Shield_Rivet_04_Mesh",
			"primitives":[
				{
					"attributes":{
						"POSITION":54,
						"NORMAL":55,
						"TEXCOORD_0":56
					},
					"indices":47,
					"material":14
				}
			]
		},
		{
			"name":"Shield_Rivet_05_Mesh",
			"primitives":[
				{
					"attributes":{
						"POSITION":57,
						"NORMAL":58,
						"TEXCOORD_0":59
					},
					"indices":47,
					"material":15
				}
			]
		},
		{
			"name":"Shield_Handle_Lower_Mount_L_Mesh",
			"primitives":[
				{
					"attributes":{
						"POSITION":60,
						"NORMAL":61,
						"TEXCOORD_0":62
					},
					"indices":63,
					"material":16
				}
			]
		},
		{
			"name":"Shield_Handle_Lower_Mount_R_Mesh",
			"primitives":[
				{
					"attributes":{
						"POSITION":64,
						"NORMAL":65,
						"TEXCOORD_0":66
					},
					"indices":63,
					"material":17
				}
			]
		},
		{
			"name":"Shield_Handle_Lower_Grip_Mesh",
			"primitives":[
				{
					"attributes":{
						"POSITION":67,
						"NORMAL":68,
						"TEXCOORD_0":69
					},
					"indices":63,
					"material":18
				}
			]
		},
		{
			"name":"Shield_Handle_Upper_Mount_L_Mesh",
			"primitives":[
				{
					"attributes":{
						"POSITION":70,
						"NORMAL":71,
						"TEXCOORD_0":72
					},
					"indices":63,
					"material":19
				}
			]
		},
		{
			"name":"Shield_Handle_Upper_Mount_R_Mesh",
			"primitives":[
				{
					"attributes":{
						"POSITION":73,
						"NORMAL":74,
						"TEXCOORD_0":75
					},
					"indices":63,
					"material":20
				}
			]
		},
		{
			"name":"Shield_Handle_Upper_Grip_Mesh",
			"primitives":[
				{
					"attributes":{
						"POSITION":76,
						"NORMAL":77,
						"TEXCOORD_0":78
					},
					"indices":63,
					"material":21
				}
			]
		}
	],
	"textures":[
		{
			"sampler":0,
			"source":0
		},
		{
			"sampler":0,
			"source":0
		},
		{
			"sampler":0,
			"source":0
		},
		{
			"sampler":0,
			"source":0
		},
		{
			"sampler":0,
			"source":0
		},
		{
			"sampler":0,
			"source":0
		},
		{
			"sampler":0,
			"source":0
		},
		{
			"sampler":0,
			"source":0
		},
		{
			"sampler":0,
			"source":0
		},
		{
			"sampler":0,
			"source":0
		},
		{
			"sampler":0,
			"source":0
		},
		{
			"sampler":0,
			"source":0
		},
		{
			"sampler":0,
			"source":0
		},
		{
			"sampler":0,
			"source":0
		},
		{
			"sampler":0,
			"source":0
		},
		{
			"sampler":0,
			"source":0
		},
		{
			"sampler":0,
			"source":0
		},
		{
			"sampler":0,
			"source":0
		},
		{
			"sampler":0,
			"source":0
		},
		{
			"sampler":0,
			"source":0
		},
		{
			"sampler":0,
			"source":0
		},
		{
			"sampler":0,
			"source":0
		}
	],
	"images":[
		{
			"mimeType":"image/png",
			"name":"shield_basecolor",
			"uri":"shield_basecolor.png"
		}
	],
	"accessors":[
		{
			"bufferView":0,
			"componentType":5126,
			"count":210,
			"max":[
				0.4000000059604645,
				0.5519295930862427,
				0.04253556579351425
			],
			"min":[
				-0.4000000059604645,
				-0.5519295930862427,
				-0.06046443432569504
			],
			"type":"VEC3"
		},
		{
			"bufferView":1,
			"componentType":5126,
			"count":210,
			"type":"VEC3"
		},
		{
			"bufferView":2,
			"componentType":5126,
			"count":210,
			"type":"VEC2"
		},
		{
			"bufferView":3,
			"componentType":5123,
			"count":312,
			"type":"SCALAR"
		},
		{
			"bufferView":4,
			"componentType":5126,
			"count":30,
			"max":[
				0.3440000116825104,
				0.474929541349411,
				-0.07846443355083466
			],
			"min":[
				-0.3440000116825104,
				-0.4796704351902008,
				-0.14746442437171936
			],
			"type":"VEC3"
		},
		{
			"bufferView":5,
			"componentType":5126,
			"count":30,
			"type":"VEC3"
		},
		{
			"bufferView":6,
			"componentType":5126,
			"count":30,
			"type":"VEC2"
		},
		{
			"bufferView":7,
			"componentType":5123,
			"count":30,
			"type":"SCALAR"
		},
		{
			"bufferView":8,
			"componentType":5126,
			"count":210,
			"max":[
				0.36399999260902405,
				0.5024296045303345,
				0.06853556632995605
			],
			"min":[
				-0.36399999260902405,
				-0.505623459815979,
				0.046535562723875046
			],
			"type":"VEC3"
		},
		{
			"bufferView":9,
			"componentType":5126,
			"count":210,
			"type":"VEC3"
		},
		{
			"bufferView":10,
			"componentType":5126,
			"count":210,
			"type":"VEC2"
		},
		{
			"bufferView":11,
			"componentType":5123,
			"count":312,
			"type":"SCALAR"
		},
		{
			"bufferView":12,
			"componentType":5126,
			"count":96,
			"max":[
				-0.02881227619946003,
				0.2808886170387268,
				-0.15746444463729858
			],
			"min":[
				-0.2778669595718384,
				0.06485865265130997,
				-0.17346444725990295
			],
			"type":"VEC3"
		},
		{
			"bufferView":13,
			"componentType":5126,
			"count":96,
			"type":"VEC3"
		},
		{
			"bufferView":14,
			"componentType":5126,
			"count":96,
			"type":"VEC2"
		},
		{
			"bufferView":15,
			"componentType":5123,
			"count":132,
			"type":"SCALAR"
		},
		{
			"bufferView":16,
			"componentType":5126,
			"count":86,
			"max":[
				-0.042812276631593704,
				0.19073104858398438,
				-0.15746444463729858
			],
			"min":[
				-0.2528669536113739,
				-0.025011196732521057,
				-0.17346444725990295
			],
			"type":"VEC3"
		},
		{
			"bufferView":17,
			"componentType":5126,
			"count":86,
			"type":"VEC3"
		},
		{
			"bufferView":18,
			"componentType":5126,
			"count":86,
			"type":"VEC2"
		},
		{
			"bufferView":19,
			"componentType":5123,
			"count":120,
			"type":"SCALAR"
		},
		{
			"bufferView":20,
			"componentType":5126,
			"count":86,
			"max":[
				-0.05681227892637253,
				0.1005372628569603,
				-0.15746444463729858
			],
			"min":[
				-0.22786696255207062,
				-0.11484918743371964,
				-0.17346444725990295
			],
			"type":"VEC3"
		},
		{
			"bufferView":21,
			"componentType":5126,
			"count":86,
			"type":"VEC3"
		},
		{
			"bufferView":22,
			"componentType":5126,
			"count":86,
			"type":"VEC2"
		},
		{
			"bufferView":23,
			"componentType":5123,
			"count":120,
			"type":"SCALAR"
		},
		{
			"bufferView":24,
			"componentType":5126,
			"count":96,
			"max":[
				0.2778669595718384,
				0.2808886170387268,
				-0.15746444463729858
			],
			"min":[
				0.02881227619946003,
				0.06485865265130997,
				-0.17346444725990295
			],
			"type":"VEC3"
		},
		{
			"bufferView":25,
			"componentType":5126,
			"count":96,
			"type":"VEC3"
		},
		{
			"bufferView":26,
			"componentType":5126,
			"count":96,
			"type":"VEC2"
		},
		{
			"bufferView":27,
			"componentType":5123,
			"count":132,
			"type":"SCALAR"
		},
		{
			"bufferView":28,
			"componentType":5126,
			"count":86,
			"max":[
				0.2528669536113739,
				0.19073104858398438,
				-0.15746444463729858
			],
			"min":[
				0.042812276631593704,
				-0.025011196732521057,
				-0.17346444725990295
			],
			"type":"VEC3"
		},
		{
			"bufferView":29,
			"componentType":5126,
			"count":86,
			"type":"VEC3"
		},
		{
			"bufferView":30,
			"componentType":5126,
			"count":86,
			"type":"VEC2"
		},
		{
			"bufferView":31,
			"componentType":5123,
			"count":120,
			"type":"SCALAR"
		},
		{
			"bufferView":32,
			"componentType":5126,
			"count":86,
			"max":[
				0.22786696255207062,
				0.1005372628569603,
				-0.15746444463729858
			],
			"min":[
				0.05681227892637253,
				-0.11484918743371964,
				-0.17346444725990295
			],
			"type":"VEC3"
		},
		{
			"bufferView":33,
			"componentType":5126,
			"count":86,
			"type":"VEC3"
		},
		{
			"bufferView":34,
			"componentType":5126,
			"count":86,
			"type":"VEC2"
		},
		{
			"bufferView":35,
			"componentType":5123,
			"count":120,
			"type":"SCALAR"
		},
		{
			"bufferView":36,
			"componentType":5126,
			"count":24,
			"max":[
				0.04500000178813934,
				-0.09807045012712479,
				-0.16046443581581116
			],
			"min":[
				-0.04500000178813934,
				-0.2680704593658447,
				-0.17646443843841553
			],
			"type":"VEC3"
		},
		{
			"bufferView":37,
			"componentType":5126,
			"count":24,
			"type":"VEC3"
		},
		{
			"bufferView":38,
			"componentType":5126,
			"count":24,
			"type":"VEC2"
		},
		{
			"bufferView":39,
			"componentType":5123,
			"count":36,
			"type":"SCALAR"
		},
		{
			"bufferView":40,
			"componentType":5126,
			"count":60,
			"max":[
				0.05545434728264809,
				0.13692954182624817,
				-0.151393324136734
			],
			"min":[
				-0.05545434728264809,
				-0.023070447146892548,
				-0.20753556489944458
			],
			"type":"VEC3"
		},
		{
			"bufferView":41,
			"componentType":5126,
			"count":60,
			"type":"VEC3"
		},
		{
			"bufferView":42,
			"componentType":5126,
			"count":60,
			"type":"VEC2"
		},
		{
			"bufferView":43,
			"componentType":5123,
			"count":60,
			"type":"SCALAR"
		},
		{
			"bufferView":44,
			"componentType":5126,
			"count":48,
			"max":[
				-0.32999998331069946,
				0.38192957639694214,
				-0.0739644393324852
			],
			"min":[
				-0.3700000047683716,
				0.34192955493927,
				-0.0869644358754158
			],
			"type":"VEC3"
		},
		{
			"bufferView":45,
			"componentType":5126,
			"count":48,
			"type":"VEC3"
		},
		{
			"bufferView":46,
			"componentType":5126,
			"count":48,
			"type":"VEC2"
		},
		{
			"bufferView":47,
			"componentType":5123,
			"count":84,
			"type":"SCALAR"
		},
		{
			"bufferView":48,
			"componentType":5126,
			"count":48,
			"max":[
				0.3700000047683716,
				0.38192957639694214,
				-0.0739644393324852
			],
			"min":[
				0.32999998331069946,
				0.34192955493927,
				-0.0869644358754158
			],
			"type":"VEC3"
		},
		{
			"bufferView":49,
			"componentType":5126,
			"count":48,
			"type":"VEC3"
		},
		{
			"bufferView":50,
			"componentType":5126,
			"count":48,
			"type":"VEC2"
		},
		{
			"bufferView":51,
			"componentType":5126,
			"count":48,
			"max":[
				-0.3489999771118164,
				0.07192955166101456,
				-0.0739644393324852
			],
			"min":[
				-0.3889999985694885,
				0.03192955255508423,
				-0.0869644358754158
			],
			"type":"VEC3"
		},
		{
			"bufferView":52,
			"componentType":5126,
			"count":48,
			"type":"VEC3"
		},
		{
			"bufferView":53,
			"componentType":5126,
			"count":48,
			"type":"VEC2"
		},
		{
			"bufferView":54,
			"componentType":5126,
			"count":48,
			"max":[
				0.3889999985694885,
				0.07192955166101456,
				-0.0739644393324852
			],
			"min":[
				0.3489999771118164,
				0.03192955255508423,
				-0.0869644358754158
			],
			"type":"VEC3"
		},
		{
			"bufferView":55,
			"componentType":5126,
			"count":48,
			"type":"VEC3"
		},
		{
			"bufferView":56,
			"componentType":5126,
			"count":48,
			"type":"VEC2"
		},
		{
			"bufferView":57,
			"componentType":5126,
			"count":48,
			"max":[
				0.019999999552965164,
				-0.49307042360305786,
				-0.0739644393324852
			],
			"min":[
				-0.019999999552965164,
				-0.53307044506073,
				-0.0869644358754158
			],
			"type":"VEC3"
		},
		{
			"bufferView":58,
			"componentType":5126,
			"count":48,
			"type":"VEC3"
		},
		{
			"bufferView":59,
			"componentType":5126,
			"count":48,
			"type":"VEC2"
		},
		{
			"bufferView":60,
			"componentType":5126,
			"count":96,
			"max":[
				-0.10999999940395355,
				-0.14507044851779938,
				0.16753557324409485
			],
			"min":[
				-0.17000000178813934,
				-0.23107044398784637,
				0.0705355629324913
			],
			"type":"VEC3"
		},
		{
			"bufferView":61,
			"componentType":5126,
			"count":96,
			"type":"VEC3"
		},
		{
			"bufferView":62,
			"componentType":5126,
			"count":96,
			"type":"VEC2"
		},
		{
			"bufferView":63,
			"componentType":5123,
			"count":132,
			"type":"SCALAR"
		},
		{
			"bufferView":64,
			"componentType":5126,
			"count":96,
			"max":[
				0.17000000178813934,
				-0.14507044851779938,
				0.16753557324409485
			],
			"min":[
				0.10999999940395355,
				-0.23107044398784637,
				0.0705355629324913
			],
			"type":"VEC3"
		},
		{
			"bufferView":65,
			"componentType":5126,
			"count":96,
			"type":"VEC3"
		},
		{
			"bufferView":66,
			"componentType":5126,
			"count":96,
			"type":"VEC2"
		},
		{
			"bufferView":67,
			"componentType":5126,
			"count":96,
			"max":[
				0.1599999964237213,
				-0.15307044982910156,
				0.20753556489944458
			],
			"min":[
				-0.1599999964237213,
				-0.2230704426765442,
				0.16753557324409485
			],
			"type":"VEC3"
		},
		{
			"bufferView":68,
			"componentType":5126,
			"count":96,
			"type":"VEC3"
		},
		{
			"bufferView":69,
			"componentType":5126,
			"count":96,
			"type":"VEC2"
		},
		{
			"bufferView":70,
			"componentType":5126,
			"count":96,
			"max":[
				-0.10999999940395355,
				0.23492954671382904,
				0.16753557324409485
			],
			"min":[
				-0.17000000178813934,
				0.14892955124378204,
				0.0705355629324913
			],
			"type":"VEC3"
		},
		{
			"bufferView":71,
			"componentType":5126,
			"count":96,
			"type":"VEC3"
		},
		{
			"bufferView":72,
			"componentType":5126,
			"count":96,
			"type":"VEC2"
		},
		{
			"bufferView":73,
			"componentType":5126,
			"count":96,
			"max":[
				0.17000000178813934,
				0.23492954671382904,
				0.16753557324409485
			],
			"min":[
				0.10999999940395355,
				0.14892955124378204,
				0.0705355629324913
			],
			"type":"VEC3"
		},
		{
			"bufferView":74,
			"componentType":5126,
			"count":96,
			"type":"VEC3"
		},
		{
			"bufferView":75,
			"componentType":5126,
			"count":96,
			"type":"VEC2"
		},
		{
			"bufferView":76,
			"componentType":5126,
			"count":96,
			"max":[
				0.1599999964237213,
				0.22692954540252686,
				0.20753556489944458
			],
			"min":[
				-0.1599999964237213,
				0.15692955255508423,
				0.16753557324409485
			],
			"type":"VEC3"
		},
		{
			"bufferView":77,
			"componentType":5126,
			"count":96,
			"type":"VEC3"
		},
		{
			"bufferView":78,
			"componentType":5126,
			"count":96,
			"type":"VEC2"
		}
	],
	"bufferViews":[
		{
			"buffer":0,
			"byteLength":2520,
			"byteOffset":0,
			"target":34962
		},
		{
			"buffer":0,
			"byteLength":2520,
			"byteOffset":2520,
			"target":34962
		},
		{
			"buffer":0,
			"byteLength":1680,
			"byteOffset":5040,
			"target":34962
		},
		{
			"buffer":0,
			"byteLength":624,
			"byteOffset":6720,
			"target":34963
		},
		{
			"buffer":0,
			"byteLength":360,
			"byteOffset":7344,
			"target":34962
		},
		{
			"buffer":0,
			"byteLength":360,
			"byteOffset":7704,
			"target":34962
		},
		{
			"buffer":0,
			"byteLength":240,
			"byteOffset":8064,
			"target":34962
		},
		{
			"buffer":0,
			"byteLength":60,
			"byteOffset":8304,
			"target":34963
		},
		{
			"buffer":0,
			"byteLength":2520,
			"byteOffset":8364,
			"target":34962
		},
		{
			"buffer":0,
			"byteLength":2520,
			"byteOffset":10884,
			"target":34962
		},
		{
			"buffer":0,
			"byteLength":1680,
			"byteOffset":13404,
			"target":34962
		},
		{
			"buffer":0,
			"byteLength":624,
			"byteOffset":15084,
			"target":34963
		},
		{
			"buffer":0,
			"byteLength":1152,
			"byteOffset":15708,
			"target":34962
		},
		{
			"buffer":0,
			"byteLength":1152,
			"byteOffset":16860,
			"target":34962
		},
		{
			"buffer":0,
			"byteLength":768,
			"byteOffset":18012,
			"target":34962
		},
		{
			"buffer":0,
			"byteLength":264,
			"byteOffset":18780,
			"target":34963
		},
		{
			"buffer":0,
			"byteLength":1032,
			"byteOffset":19044,
			"target":34962
		},
		{
			"buffer":0,
			"byteLength":1032,
			"byteOffset":20076,
			"target":34962
		},
		{
			"buffer":0,
			"byteLength":688,
			"byteOffset":21108,
			"target":34962
		},
		{
			"buffer":0,
			"byteLength":240,
			"byteOffset":21796,
			"target":34963
		},
		{
			"buffer":0,
			"byteLength":1032,
			"byteOffset":22036,
			"target":34962
		},
		{
			"buffer":0,
			"byteLength":1032,
			"byteOffset":23068,
			"target":34962
		},
		{
			"buffer":0,
			"byteLength":688,
			"byteOffset":24100,
			"target":34962
		},
		{
			"buffer":0,
			"byteLength":240,
			"byteOffset":24788,
			"target":34963
		},
		{
			"buffer":0,
			"byteLength":1152,
			"byteOffset":25028,
			"target":34962
		},
		{
			"buffer":0,
			"byteLength":1152,
			"byteOffset":26180,
			"target":34962
		},
		{
			"buffer":0,
			"byteLength":768,
			"byteOffset":27332,
			"target":34962
		},
		{
			"buffer":0,
			"byteLength":264,
			"byteOffset":28100,
			"target":34963
		},
		{
			"buffer":0,
			"byteLength":1032,
			"byteOffset":28364,
			"target":34962
		},
		{
			"buffer":0,
			"byteLength":1032,
			"byteOffset":29396,
			"target":34962
		},
		{
			"buffer":0,
			"byteLength":688,
			"byteOffset":30428,
			"target":34962
		},
		{
			"buffer":0,
			"byteLength":240,
			"byteOffset":31116,
			"target":34963
		},
		{
			"buffer":0,
			"byteLength":1032,
			"byteOffset":31356,
			"target":34962
		},
		{
			"buffer":0,
			"byteLength":1032,
			"byteOffset":32388,
			"target":34962
		},
		{
			"buffer":0,
			"byteLength":688,
			"byteOffset":33420,
			"target":34962
		},
		{
			"buffer":0,
			"byteLength":240,
			"byteOffset":34108,
			"target":34963
		},
		{
			"buffer":0,
			"byteLength":288,
			"byteOffset":34348,
			"target":34962
		},
		{
			"buffer":0,
			"byteLength":288,
			"byteOffset":34636,
			"target":34962
		},
		{
			"buffer":0,
			"byteLength":192,
			"byteOffset":34924,
			"target":34962
		},
		{
			"buffer":0,
			"byteLength":72,
			"byteOffset":35116,
			"target":34963
		},
		{
			"buffer":0,
			"byteLength":720,
			"byteOffset":35188,
			"target":34962
		},
		{
			"buffer":0,
			"byteLength":720,
			"byteOffset":35908,
			"target":34962
		},
		{
			"buffer":0,
			"byteLength":480,
			"byteOffset":36628,
			"target":34962
		},
		{
			"buffer":0,
			"byteLength":120,
			"byteOffset":37108,
			"target":34963
		},
		{
			"buffer":0,
			"byteLength":576,
			"byteOffset":37228,
			"target":34962
		},
		{
			"buffer":0,
			"byteLength":576,
			"byteOffset":37804,
			"target":34962
		},
		{
			"buffer":0,
			"byteLength":384,
			"byteOffset":38380,
			"target":34962
		},
		{
			"buffer":0,
			"byteLength":168,
			"byteOffset":38764,
			"target":34963
		},
		{
			"buffer":0,
			"byteLength":576,
			"byteOffset":38932,
			"target":34962
		},
		{
			"buffer":0,
			"byteLength":576,
			"byteOffset":39508,
			"target":34962
		},
		{
			"buffer":0,
			"byteLength":384,
			"byteOffset":40084,
			"target":34962
		},
		{
			"buffer":0,
			"byteLength":576,
			"byteOffset":40468,
			"target":34962
		},
		{
			"buffer":0,
			"byteLength":576,
			"byteOffset":41044,
			"target":34962
		},
		{
			"buffer":0,
			"byteLength":384,
			"byteOffset":41620,
			"target":34962
		},
		{
			"buffer":0,
			"byteLength":576,
			"byteOffset":42004,
			"target":34962
		},
		{
			"buffer":0,
			"byteLength":576,
			"byteOffset":42580,
			"target":34962
		},
		{
			"buffer":0,
			"byteLength":384,
			"byteOffset":43156,
			"target":34962
		},
		{
			"buffer":0,
			"byteLength":576,
			"byteOffset":43540,
			"target":34962
		},
		{
			"buffer":0,
			"byteLength":576,
			"byteOffset":44116,
			"target":34962
		},
		{
			"buffer":0,
			"byteLength":384,
			"byteOffset":44692,
			"target":34962
		},
		{
			"buffer":0,
			"byteLength":1152,
			"byteOffset":45076,
			"target":34962
		},
		{
			"buffer":0,
			"byteLength":1152,
			"byteOffset":46228,
			"target":34962
		},
		{
			"buffer":0,
			"byteLength":768,
			"byteOffset":47380,
			"target":34962
		},
		{
			"buffer":0,
			"byteLength":264,
			"byteOffset":48148,
			"target":34963
		},
		{
			"buffer":0,
			"byteLength":1152,
			"byteOffset":48412,
			"target":34962
		},
		{
			"buffer":0,
			"byteLength":1152,
			"byteOffset":49564,
			"target":34962
		},
		{
			"buffer":0,
			"byteLength":768,
			"byteOffset":50716,
			"target":34962
		},
		{
			"buffer":0,
			"byteLength":1152,
			"byteOffset":51484,
			"target":34962
		},
		{
			"buffer":0,
			"byteLength":1152,
			"byteOffset":52636,
			"target":34962
		},
		{
			"buffer":0,
			"byteLength":768,
			"byteOffset":53788,
			"target":34962
		},
		{
			"buffer":0,
			"byteLength":1152,
			"byteOffset":54556,
			"target":34962
		},
		{
			"buffer":0,
			"byteLength":1152,
			"byteOffset":55708,
			"target":34962
		},
		{
			"buffer":0,
			"byteLength":768,
			"byteOffset":56860,
			"target":34962
		},
		{
			"buffer":0,
			"byteLength":1152,
			"byteOffset":57628,
			"target":34962
		},
		{
			"buffer":0,
			"byteLength":1152,
			"byteOffset":58780,
			"target":34962
		},
		{
			"buffer":0,
			"byteLength":768,
			"byteOffset":59932,
			"target":34962
		},
		{
			"buffer":0,
			"byteLength":1152,
			"byteOffset":60700,
			"target":34962
		},
		{
			"buffer":0,
			"byteLength":1152,
			"byteOffset":61852,
			"target":34962
		},
		{
			"buffer":0,
			"byteLength":768,
			"byteOffset":63004,
			"target":34962
		}
	],
	"samplers":[
		{
			"magFilter":9729,
			"minFilter":9987
		}
	],
	"buffers":[
		{
			"byteLength":63772,
			"uri":"shield_parts.bin"
		}
	]
}
