{
	"asset":{
		"generator":"Khronos glTF Blender I/O v5.1.20",
		"version":"2.0"
	},
	"scene":0,
	"scenes":[
		{
			"name":"Scene",
			"nodes":[
				0
			]
		}
	],
	"nodes":[
		{
			"mesh":0,
			"name":"Shield"
		}
	],
	"materials":[
		{
			"doubleSided":true,
			"name":"Shield_UV_Material",
			"pbrMetallicRoughness":{
				"baseColorTexture":{
					"index":0
				},
				"metallicFactor":0.25,
				"roughnessFactor":0.550000011920929
			}
		}
	],
	"meshes":[
		{
			"name":"Shield_Mesh",
			"primitives":[
				{
					"attributes":{
						"POSITION":0,
						"NORMAL":1,
						"TEXCOORD_0":2
					},
					"indices":3,
					"material":0
				}
			]
		}
	],
	"textures":[
		{
			"sampler":0,
			"source":0
		}
	],
	"images":[
		{
			"mimeType":"image/png",
			"name":"shield_basecolor",
			"uri":"shield_basecolor.png"
		}
	],
	"accessors":[
		{
			"bufferView":0,
			"componentType":5126,
			"count":1886,
			"max":[
				0.4000000059604645,
				0.5519295930862427,
				0.20753556489944458
			],
			"min":[
				-0.4000000059604645,
				-0.5519295930862427,
				-0.20753556489944458
			],
			"type":"VEC3"
		},
		{
			"bufferView":1,
			"componentType":5126,
			"count":1886,
			"type":"VEC3"
		},
		{
			"bufferView":2,
			"componentType":5126,
			"count":1886,
			"type":"VEC2"
		},
		{
			"bufferView":3,
			"componentType":5123,
			"count":2706,
			"type":"SCALAR"
		}
	],
	"bufferViews":[
		{
			"buffer":0,
			"byteLength":22632,
			"byteOffset":0,
			"target":34962
		},
		{
			"buffer":0,
			"byteLength":22632,
			"byteOffset":22632,
			"target":34962
		},
		{
			"buffer":0,
			"byteLength":15088,
			"byteOffset":45264,
			"target":34962
		},
		{
			"buffer":0,
			"byteLength":5412,
			"byteOffset":60352,
			"target":34963
		}
	],
	"samplers":[
		{
			"magFilter":9729,
			"minFilter":9987
		}
	],
	"buffers":[
		{
			"byteLength":65764,
			"uri":"shield.bin"
		}
	]
}
