{
	"asset":{
		"generator":"Khronos glTF Blender I/O v5.0.21",
		"version":"2.0"
	},
	"scene":0,
	"scenes":[
		{
			"name":"Scene",
			"nodes":[
				10
			]
		}
	],
	"nodes":[
		{
			"mesh":0,
			"name":"Body",
			"translation":[
				0,
				1.0299999713897705,
				0
			]
		},
		{
			"mesh":1,
			"name":"Eye_L",
			"translation":[
				0.25,
				1.309999942779541,
				-0.6610000133514404
			]
		},
		{
			"mesh":2,
			"name":"Eye_R",
			"translation":[
				-0.25,
				1.309999942779541,
				-0.6610000133514404
			]
		},
		{
			"mesh":3,
			"name":"Eye_Shine_L",
			"translation":[
				0.2680000066757202,
				1.340000033378601,
				-0.7009999752044678
			]
		},
		{
			"mesh":4,
			"name":"Eye_Shine_R",
			"translation":[
				-0.23199999332427979,
				1.340000033378601,
				-0.7009999752044678
			]
		},
		{
			"mesh":5,
			"name":"Foot_L",
			"translation":[
				0.3400000035762787,
				0.25,
				0
			]
		},
		{
			"mesh":6,
			"name":"Foot_R",
			"translation":[
				-0.3400000035762787,
				0.25,
				0
			]
		},
		{
			"mesh":7,
			"name":"Hand_L",
			"translation":[
				0.6899999976158142,
				1.059999942779541,
				0
			]
		},
		{
			"mesh":8,
			"name":"Hand_R",
			"translation":[
				-0.6899999976158142,
				1.059999942779541,
				0
			]
		},
		{
			"mesh":9,
			"name":"Nose",
			"translation":[
				0,
				1.090000033378601,
				-0.6499999761581421
			]
		},
		{
			"children":[
				0,
				1,
				2,
				3,
				4,
				5,
				6,
				7,
				8,
				9
			],
			"name":"Player_Root",
			"scale":[
				0.5,
				0.5,
				0.5
			],
			"translation":[
				0,
				-0.4472157955169678,
				-0.02821946144104004
			]
		}
	],
	"animations":[
		{
			"channels":[
				{
					"sampler":0,
					"target":{
						"node":0,
						"path":"scale"
					}
				}
			],
			"name":"Body\u30a2\u30af\u30b7\u30e7\u30f3",
			"samplers":[
				{
					"input":39,
					"interpolation":"LINEAR",
					"output":40
				}
			]
		}
	],
	"materials":[
		{
			"doubleSided":true,
			"name":"Player textured colors",
			"pbrMetallicRoughness":{
				"baseColorTexture":{
					"index":0
				},
				"metallicFactor":0,
				"roughnessFactor":0.75
			}
		}
	],
	"meshes":[
		{
			"name":"Sphere",
			"primitives":[
				{
					"attributes":{
						"POSITION":0,
						"NORMAL":1,
						"TEXCOORD_0":2
					},
					"indices":3,
					"material":0
				}
			]
		},
		{
			"name":"Sphere.002",
			"primitives":[
				{
					"attributes":{
						"POSITION":4,
						"NORMAL":5,
						"TEXCOORD_0":6
					},
					"indices":7,
					"material":0
				}
			]
		},
		{
			"name":"Sphere.006",
			"primitives":[
				{
					"attributes":{
						"POSITION":8,
						"NORMAL":9,
						"TEXCOORD_0":10
					},
					"indices":11,
					"material":0
				}
			]
		},
		{
			"name":"Sphere.003",
			"primitives":[
				{
					"attributes":{
						"POSITION":12,
						"NORMAL":13,
						"TEXCOORD_0":14
					},
					"indices":15,
					"material":0
				}
			]
		},
		{
			"name":"Sphere.007",
			"primitives":[
				{
					"attributes":{
						"POSITION":16,
						"NORMAL":17,
						"TEXCOORD_0":18
					},
					"indices":19,
					"material":0
				}
			]
		},
		{
			"name":"Sphere.005",
			"primitives":[
				{
					"attributes":{
						"POSITION":20,
						"NORMAL":21,
						"TEXCOORD_0":22
					},
					"indices":23,
					"material":0
				}
			]
		},
		{
			"name":"Sphere.009",
			"primitives":[
				{
					"attributes":{
						"POSITION":24,
						"NORMAL":25,
						"TEXCOORD_0":26
					},
					"indices":27,
					"material":0
				}
			]
		},
		{
			"name":"Sphere.004",
			"primitives":[
				{
					"attributes":{
						"POSITION":28,
						"NORMAL":29,
						"TEXCOORD_0":30
					},
					"indices":31,
					"material":0
				}
			]
		},
		{
			"name":"Sphere.008",
			"primitives":[
				{
					"attributes":{
						"POSITION":32,
						"NORMAL":33,
						"TEXCOORD_0":34
					},
					"indices":35,
					"material":0
				}
			]
		},
		{
			"name":"Sphere.001",
			"primitives":[
				{
					"attributes":{
						"POSITION":36,
						"NORMAL":37,
						"TEXCOORD_0":38
					},
					"indices":35,
					"material":0
				}
			]
		}
	],
	"textures":[
		{
			"sampler":0,
			"source":0
		}
	],
	"images":[
		{
			"mimeType":"image/png",
			"name":"player",
			"uri":"player.png"
		}
	],
	"accessors":[
		{
			"bufferView":0,
			"componentType":5126,
			"count":151,
			"max":[
				0.7799999117851257,
				0.8199999928474426,
				0.7200000286102295
			],
			"min":[
				-0.7799999713897705,
				-0.8199999928474426,
				-0.7200000286102295
			],
			"type":"VEC3"
		},
		{
			"bufferView":1,
			"componentType":5126,
			"count":151,
			"type":"VEC3"
		},
		{
			"bufferView":2,
			"componentType":5126,
			"count":151,
			"type":"VEC2"
		},
		{
			"bufferView":3,
			"componentType":5123,
			"count":672,
			"type":"SCALAR"
		},
		{
			"bufferView":4,
			"componentType":5126,
			"count":43,
			"max":[
				0.06499999016523361,
				0.09000000357627869,
				0.04500000178813934
			],
			"min":[
				-0.06499999016523361,
				-0.09000000357627869,
				-0.044999998062849045
			],
			"type":"VEC3"
		},
		{
			"bufferView":5,
			"componentType":5126,
			"count":43,
			"type":"VEC3"
		},
		{
			"bufferView":6,
			"componentType":5126,
			"count":43,
			"type":"VEC2"
		},
		{
			"bufferView":7,
			"componentType":5123,
			"count":144,
			"type":"SCALAR"
		},
		{
			"bufferView":8,
			"componentType":5126,
			"count":43,
			"max":[
				0.06499999016523361,
				0.09000000357627869,
				0.04500000178813934
			],
			"min":[
				-0.06499999016523361,
				-0.09000000357627869,
				-0.044999998062849045
			],
			"type":"VEC3"
		},
		{
			"bufferView":9,
			"componentType":5126,
			"count":43,
			"type":"VEC3"
		},
		{
			"bufferView":10,
			"componentType":5126,
			"count":43,
			"type":"VEC2"
		},
		{
			"bufferView":11,
			"componentType":5123,
			"count":144,
			"type":"SCALAR"
		},
		{
			"bufferView":12,
			"componentType":5126,
			"count":43,
			"max":[
				0.01799999736249447,
				0.02199999988079071,
				0.013000000268220901
			],
			"min":[
				-0.01799999736249447,
				-0.02199999988079071,
				-0.012999998405575752
			],
			"type":"VEC3"
		},
		{
			"bufferView":13,
			"componentType":5126,
			"count":43,
			"type":"VEC3"
		},
		{
			"bufferView":14,
			"componentType":5126,
			"count":43,
			"type":"VEC2"
		},
		{
			"bufferView":15,
			"componentType":5123,
			"count":144,
			"type":"SCALAR"
		},
		{
			"bufferView":16,
			"componentType":5126,
			"count":43,
			"max":[
				0.01799999736249447,
				0.02199999988079071,
				0.013000000268220901
			],
			"min":[
				-0.01799999736249447,
				-0.02199999988079071,
				-0.012999998405575752
			],
			"type":"VEC3"
		},
		{
			"bufferView":17,
			"componentType":5126,
			"count":43,
			"type":"VEC3"
		},
		{
			"bufferView":18,
			"componentType":5126,
			"count":43,
			"type":"VEC2"
		},
		{
			"bufferView":19,
			"componentType":5123,
			"count":144,
			"type":"SCALAR"
		},
		{
			"bufferView":20,
			"componentType":5126,
			"count":89,
			"max":[
				0.23000000417232513,
				0.06999999284744263,
				0.19999998807907104
			],
			"min":[
				-0.23000000417232513,
				-0.25,
				-0.4399999976158142
			],
			"type":"VEC3"
		},
		{
			"bufferView":21,
			"componentType":5126,
			"count":89,
			"type":"VEC3"
		},
		{
			"bufferView":22,
			"componentType":5126,
			"count":89,
			"type":"VEC2"
		},
		{
			"bufferView":23,
			"componentType":5123,
			"count":360,
			"type":"SCALAR"
		},
		{
			"bufferView":24,
			"componentType":5126,
			"count":89,
			"max":[
				0.23000000417232513,
				0.06999999284744263,
				0.19999998807907104
			],
			"min":[
				-0.23000000417232513,
				-0.25,
				-0.4399999976158142
			],
			"type":"VEC3"
		},
		{
			"bufferView":25,
			"componentType":5126,
			"count":89,
			"type":"VEC3"
		},
		{
			"bufferView":26,
			"componentType":5126,
			"count":89,
			"type":"VEC2"
		},
		{
			"bufferView":27,
			"componentType":5123,
			"count":360,
			"type":"SCALAR"
		},
		{
			"bufferView":28,
			"componentType":5126,
			"count":89,
			"max":[
				0.27000004053115845,
				0.11000007390975952,
				0.1899999976158142
			],
			"min":[
				-0.06999997794628143,
				-0.3899999260902405,
				-0.1899999976158142
			],
			"type":"VEC3"
		},
		{
			"bufferView":29,
			"componentType":5126,
			"count":89,
			"type":"VEC3"
		},
		{
			"bufferView":30,
			"componentType":5126,
			"count":89,
			"type":"VEC2"
		},
		{
			"bufferView":31,
			"componentType":5123,
			"count":360,
			"type":"SCALAR"
		},
		{
			"bufferView":32,
			"componentType":5126,
			"count":89,
			"max":[
				0.06999997794628143,
				0.11000007390975952,
				0.1899999976158142
			],
			"min":[
				-0.27000004053115845,
				-0.3899999260902405,
				-0.1899999976158142
			],
			"type":"VEC3"
		},
		{
			"bufferView":33,
			"componentType":5126,
			"count":89,
			"type":"VEC3"
		},
		{
			"bufferView":34,
			"componentType":5126,
			"count":89,
			"type":"VEC2"
		},
		{
			"bufferView":35,
			"componentType":5123,
			"count":360,
			"type":"SCALAR"
		},
		{
			"bufferView":36,
			"componentType":5126,
			"count":89,
			"max":[
				0.17000000178813934,
				0.1599999964237213,
				0.20999997854232788
			],
			"min":[
				-0.17000000178813934,
				-0.1599999964237213,
				-0.4300000071525574
			],
			"type":"VEC3"
		},
		{
			"bufferView":37,
			"componentType":5126,
			"count":89,
			"type":"VEC3"
		},
		{
			"bufferView":38,
			"componentType":5126,
			"count":89,
			"type":"VEC2"
		},
		{
			"bufferView":39,
			"componentType":5126,
			"count":1,
			"max":[
				0.041666666666666664
			],
			"min":[
				0.041666666666666664
			],
			"type":"SCALAR"
		},
		{
			"bufferView":40,
			"componentType":5126,
			"count":1,
			"type":"VEC3"
		}
	],
	"bufferViews":[
		{
			"buffer":0,
			"byteLength":1812,
			"byteOffset":0,
			"target":34962
		},
		{
			"buffer":0,
			"byteLength":1812,
			"byteOffset":1812,
			"target":34962
		},
		{
			"buffer":0,
			"byteLength":1208,
			"byteOffset":3624,
			"target":34962
		},
		{
			"buffer":0,
			"byteLength":1344,
			"byteOffset":4832,
			"target":34963
		},
		{
			"buffer":0,
			"byteLength":516,
			"byteOffset":6176,
			"target":34962
		},
		{
			"buffer":0,
			"byteLength":516,
			"byteOffset":6692,
			"target":34962
		},
		{
			"buffer":0,
			"byteLength":344,
			"byteOffset":7208,
			"target":34962
		},
		{
			"buffer":0,
			"byteLength":288,
			"byteOffset":7552,
			"target":34963
		},
		{
			"buffer":0,
			"byteLength":516,
			"byteOffset":7840,
			"target":34962
		},
		{
			"buffer":0,
			"byteLength":516,
			"byteOffset":8356,
			"target":34962
		},
		{
			"buffer":0,
			"byteLength":344,
			"byteOffset":8872,
			"target":34962
		},
		{
			"buffer":0,
			"byteLength":288,
			"byteOffset":9216,
			"target":34963
		},
		{
			"buffer":0,
			"byteLength":516,
			"byteOffset":9504,
			"target":34962
		},
		{
			"buffer":0,
			"byteLength":516,
			"byteOffset":10020,
			"target":34962
		},
		{
			"buffer":0,
			"byteLength":344,
			"byteOffset":10536,
			"target":34962
		},
		{
			"buffer":0,
			"byteLength":288,
			"byteOffset":10880,
			"target":34963
		},
		{
			"buffer":0,
			"byteLength":516,
			"byteOffset":11168,
			"target":34962
		},
		{
			"buffer":0,
			"byteLength":516,
			"byteOffset":11684,
			"target":34962
		},
		{
			"buffer":0,
			"byteLength":344,
			"byteOffset":12200,
			"target":34962
		},
		{
			"buffer":0,
			"byteLength":288,
			"byteOffset":12544,
			"target":34963
		},
		{
			"buffer":0,
			"byteLength":1068,
			"byteOffset":12832,
			"target":34962
		},
		{
			"buffer":0,
			"byteLength":1068,
			"byteOffset":13900,
			"target":34962
		},
		{
			"buffer":0,
			"byteLength":712,
			"byteOffset":14968,
			"target":34962
		},
		{
			"buffer":0,
			"byteLength":720,
			"byteOffset":15680,
			"target":34963
		},
		{
			"buffer":0,
			"byteLength":1068,
			"byteOffset":16400,
			"target":34962
		},
		{
			"buffer":0,
			"byteLength":1068,
			"byteOffset":17468,
			"target":34962
		},
		{
			"buffer":0,
			"byteLength":712,
			"byteOffset":18536,
			"target":34962
		},
		{
			"buffer":0,
			"byteLength":720,
			"byteOffset":19248,
			"target":34963
		},
		{
			"buffer":0,
			"byteLength":1068,
			"byteOffset":19968,
			"target":34962
		},
		{
			"buffer":0,
			"byteLength":1068,
			"byteOffset":21036,
			"target":34962
		},
		{
			"buffer":0,
			"byteLength":712,
			"byteOffset":22104,
			"target":34962
		},
		{
			"buffer":0,
			"byteLength":720,
			"byteOffset":22816,
			"target":34963
		},
		{
			"buffer":0,
			"byteLength":1068,
			"byteOffset":23536,
			"target":34962
		},
		{
			"buffer":0,
			"byteLength":1068,
			"byteOffset":24604,
			"target":34962
		},
		{
			"buffer":0,
			"byteLength":712,
			"byteOffset":25672,
			"target":34962
		},
		{
			"buffer":0,
			"byteLength":720,
			"byteOffset":26384,
			"target":34963
		},
		{
			"buffer":0,
			"byteLength":1068,
			"byteOffset":27104,
			"target":34962
		},
		{
			"buffer":0,
			"byteLength":1068,
			"byteOffset":28172,
			"target":34962
		},
		{
			"buffer":0,
			"byteLength":712,
			"byteOffset":29240,
			"target":34962
		},
		{
			"buffer":0,
			"byteLength":4,
			"byteOffset":29952
		},
		{
			"buffer":0,
			"byteLength":12,
			"byteOffset":29956
		}
	],
	"samplers":[
		{
			"magFilter":9728,
			"minFilter":9984
		}
	],
	"buffers":[
		{
			"byteLength":29968,
			"uri":"player.bin"
		}
	]
}
