# Blender 5.1.2
# www.blender.org
mtllib medium.mtl
o テキスト
v 0.037000 0.161000 0.100000
v 0.402000 0.161000 0.100000
v 0.402000 -0.309000 0.100000
v 0.325000 -0.309000 0.100000
v 0.325000 -0.252000 0.100000
v 0.037000 -0.252000 0.100000
v 0.037000 -0.579000 0.100000
v -0.042000 -0.579000 0.100000
v -0.042000 -0.252000 0.100000
v -0.329000 -0.252000 0.100000
v -0.329000 -0.314000 0.100000
v -0.404000 -0.314000 0.100000
v -0.404000 0.161000 0.100000
v -0.042000 0.161000 0.100000
v -0.042000 0.340000 0.100000
v 0.037000 0.340000 0.100000
v -0.042000 0.088000 0.100000
v -0.329000 0.088000 0.100000
v -0.329000 -0.178000 0.100000
v -0.042000 -0.178000 0.100000
v 0.037000 0.088000 0.100000
v 0.037000 -0.178000 0.100000
v 0.325000 -0.178000 0.100000
v 0.325000 0.088000 0.100000
v 0.037000 0.161000 -0.100000
v 0.402000 0.161000 -0.100000
v 0.402000 -0.309000 -0.100000
v 0.325000 -0.309000 -0.100000
v 0.325000 -0.252000 -0.100000
v 0.037000 -0.252000 -0.100000
v 0.037000 -0.579000 -0.100000
v -0.042000 -0.579000 -0.100000
v -0.042000 -0.252000 -0.100000
v -0.329000 -0.252000 -0.100000
v -0.329000 -0.314000 -0.100000
v -0.404000 -0.314000 -0.100000
v -0.404000 0.161000 -0.100000
v -0.042000 0.161000 -0.100000
v -0.042000 0.340000 -0.100000
v 0.037000 0.340000 -0.100000
v -0.042000 0.088000 -0.100000
v -0.329000 0.088000 -0.100000
v -0.329000 -0.178000 -0.100000
v -0.042000 -0.178000 -0.100000
v 0.037000 0.088000 -0.100000
v 0.037000 -0.178000 -0.100000
v 0.325000 -0.178000 -0.100000
v 0.325000 0.088000 -0.100000
v 0.037000 0.161000 -0.100000
v 0.037000 0.161000 0.100000
v 0.402000 0.161000 -0.100000
v 0.402000 0.161000 0.100000
v 0.402000 -0.309000 -0.100000
v 0.402000 -0.309000 0.100000
v 0.325000 -0.309000 -0.100000
v 0.325000 -0.309000 0.100000
v 0.325000 -0.252000 -0.100000
v 0.325000 -0.252000 0.100000
v 0.037000 -0.252000 -0.100000
v 0.037000 -0.252000 0.100000
v 0.037000 -0.579000 -0.100000
v 0.037000 -0.579000 0.100000
v -0.042000 -0.579000 -0.100000
v -0.042000 -0.579000 0.100000
v -0.042000 -0.252000 -0.100000
v -0.042000 -0.252000 0.100000
v -0.329000 -0.252000 -0.100000
v -0.329000 -0.252000 0.100000
v -0.329000 -0.314000 -0.100000
v -0.329000 -0.314000 0.100000
v -0.404000 -0.314000 -0.100000
v -0.404000 -0.314000 0.100000
v -0.404000 0.161000 -0.100000
v -0.404000 0.161000 0.100000
v -0.042000 0.161000 -0.100000
v -0.042000 0.161000 0.100000
v -0.042000 0.340000 -0.100000
v -0.042000 0.340000 0.100000
v 0.037000 0.340000 -0.100000
v 0.037000 0.340000 0.100000
v -0.042000 0.088000 -0.100000
v -0.042000 0.088000 0.100000
v -0.329000 0.088000 -0.100000
v -0.329000 0.088000 0.100000
v -0.329000 -0.178000 -0.100000
v -0.329000 -0.178000 0.100000
v -0.042000 -0.178000 -0.100000
v -0.042000 -0.178000 0.100000
v 0.037000 0.088000 -0.100000
v 0.037000 0.088000 0.100000
v 0.037000 -0.178000 -0.100000
v 0.037000 -0.178000 0.100000
v 0.325000 -0.178000 -0.100000
v 0.325000 -0.178000 0.100000
v 0.325000 0.088000 -0.100000
v 0.325000 0.088000 0.100000
vn -0.0000 -0.0000 1.0000
vn -0.0000 -0.0000 -1.0000
vn 0.7071 0.7071 -0.0000
vn 0.7071 -0.7071 -0.0000
vn -0.7071 -0.7071 -0.0000
vn -0.7071 0.7071 -0.0000
vt 0.478261 0.000000
vt 0.434783 0.000000
vt 0.391304 0.000000
vt 0.782609 0.000000
vt 0.521739 0.000000
vt 0.739130 0.000000
vt 0.347826 0.000000
vt 0.826087 0.000000
vt 0.695652 0.000000
vt 0.565217 0.000000
vt 0.173913 0.000000
vt 0.130435 0.000000
vt 0.086957 0.000000
vt 0.956522 0.000000
vt 0.043478 0.000000
vt 1.000000 0.000000
vt 0.913043 0.000000
vt 0.217391 0.000000
vt 0.000000 0.000000
vt 0.869565 0.000000
vt 0.304348 0.000000
vt 0.260870 0.000000
vt 0.608696 0.000000
vt 0.652174 0.000000
vt 0.062500 1.000000
vt 0.000000 1.000000
vt 0.125000 1.000000
vt 0.062500 0.000000
vt 0.187500 1.000000
vt 0.125000 0.000000
vt 0.250000 1.000000
vt 0.187500 0.000000
vt 0.312500 1.000000
vt 0.250000 0.000000
vt 0.375000 1.000000
vt 0.312500 0.000000
vt 0.437500 1.000000
vt 0.375000 0.000000
vt 0.500000 1.000000
vt 0.437500 0.000000
vt 0.562500 1.000000
vt 0.500000 0.000000
vt 0.625000 1.000000
vt 0.562500 0.000000
vt 0.687500 1.000000
vt 0.625000 0.000000
vt 0.750000 1.000000
vt 0.687500 0.000000
vt 0.812500 1.000000
vt 0.750000 0.000000
vt 0.875000 1.000000
vt 0.812500 0.000000
vt 0.937500 1.000000
vt 0.875000 0.000000
vt 1.000000 1.000000
vt 0.937500 0.000000
s 0
usemtl マテリアル
f 12/1/1 11/2/1 10/3/1
f 10/3/1 19/4/1 12/1/1
f 13/5/1 12/1/1 19/4/1
f 19/4/1 18/6/1 13/5/1
f 19/4/1 10/3/1 9/7/1
f 9/7/1 20/8/1 19/4/1
f 17/9/1 14/10/1 18/6/1
f 5/11/1 4/12/1 3/13/1
f 23/14/1 5/11/1 3/13/1
f 3/13/1 2/15/1 23/14/1
f 2/15/1 24/16/1 23/14/1
f 22/17/1 6/18/1 5/11/1
f 5/11/1 23/14/1 22/17/1
f 1/19/1 21/20/1 24/16/1
f 9/7/1 8/21/1 7/22/1
f 7/22/1 6/18/1 9/7/1
f 20/8/1 9/7/1 6/18/1
f 6/18/1 22/17/1 20/8/1
f 17/9/1 20/8/1 22/17/1
f 22/17/1 21/20/1 17/9/1
f 14/10/1 17/9/1 21/20/1
f 21/20/1 1/19/1 14/10/1
f 15/23/1 14/10/1 1/19/1
f 1/19/1 16/24/1 15/23/1
f 13/5/1 18/6/1 14/10/1
f 24/16/1 2/15/1 1/19/1
f 36/1/2 34/3/2 35/2/2
f 34/3/2 36/1/2 43/4/2
f 37/5/2 43/4/2 36/1/2
f 43/4/2 37/5/2 42/6/2
f 43/4/2 33/7/2 34/3/2
f 33/7/2 43/4/2 44/8/2
f 41/9/2 42/6/2 38/10/2
f 29/11/2 27/13/2 28/12/2
f 47/14/2 27/13/2 29/11/2
f 27/13/2 47/14/2 26/15/2
f 26/15/2 47/14/2 48/16/2
f 46/17/2 29/11/2 30/18/2
f 29/11/2 46/17/2 47/14/2
f 25/19/2 48/16/2 45/20/2
f 33/7/2 31/22/2 32/21/2
f 31/22/2 33/7/2 30/18/2
f 44/8/2 30/18/2 33/7/2
f 30/18/2 44/8/2 46/17/2
f 41/9/2 46/17/2 44/8/2
f 46/17/2 41/9/2 45/20/2
f 38/10/2 45/20/2 41/9/2
f 45/20/2 38/10/2 25/19/2
f 39/23/2 25/19/2 38/10/2
f 25/19/2 39/23/2 40/24/2
f 37/5/2 38/10/2 42/6/2
f 48/16/2 25/19/2 26/15/2
s 1
f 52/25/3 49/19/3 50/26/3
f 54/27/4 51/28/3 52/25/3
f 56/29/5 53/30/4 54/27/4
f 58/31/5 55/32/5 56/29/5
f 60/33/4 57/34/5 58/31/5
f 62/35/4 59/36/4 60/33/4
f 64/37/5 61/38/4 62/35/4
f 66/39/5 63/40/5 64/37/5
f 68/41/4 65/42/5 66/39/5
f 70/43/4 67/44/4 68/41/4
f 72/45/5 69/46/4 70/43/4
f 74/47/6 71/48/5 72/45/5
f 76/49/6 73/50/6 74/47/6
f 78/51/6 75/52/6 76/49/6
f 80/53/3 77/54/6 78/51/6
f 50/55/3 79/56/3 80/53/3
f 84/31/4 81/19/5 82/26/5
f 86/39/3 83/34/4 84/31/4
f 88/47/6 85/42/3 86/39/3
f 82/55/5 87/50/6 88/47/6
f 92/31/3 89/19/4 90/26/4
f 94/39/6 91/34/3 92/31/3
f 96/47/5 93/42/6 94/39/6
f 90/55/4 95/50/5 96/47/5
f 52/25/3 51/28/3 49/19/3
f 54/27/4 53/30/4 51/28/3
f 56/29/5 55/32/5 53/30/4
f 58/31/5 57/34/5 55/32/5
f 60/33/4 59/36/4 57/34/5
f 62/35/4 61/38/4 59/36/4
f 64/37/5 63/40/5 61/38/4
f 66/39/5 65/42/5 63/40/5
f 68/41/4 67/44/4 65/42/5
f 70/43/4 69/46/4 67/44/4
f 72/45/5 71/48/5 69/46/4
f 74/47/6 73/50/6 71/48/5
f 76/49/6 75/52/6 73/50/6
f 78/51/6 77/54/6 75/52/6
f 80/53/3 79/56/3 77/54/6
f 50/55/3 49/16/3 79/56/3
f 84/31/4 83/34/4 81/19/5
f 86/39/3 85/42/3 83/34/4
f 88/47/6 87/50/6 85/42/3
f 82/55/5 81/16/5 87/50/6
f 92/31/3 91/34/3 89/19/4
f 94/39/6 93/42/6 91/34/3
f 96/47/5 95/50/5 93/42/6
f 90/55/4 89/16/4 95/50/5
